<svg xmlns="http://www.w3.org/2000/svg" viewBox="0 0 1295.08 1080"><defs><style>.cls-1{fill:#586c9d;}.cls-2,.cls-3{fill:none;stroke:#f1e3d5;stroke-linecap:round;stroke-linejoin:round;}.cls-3{stroke-width:4px;}.cls-10,.cls-11,.cls-13,.cls-4,.cls-6{fill:#282246;}.cls-5{fill:#74bf96;}.cls-6{opacity:0.7;}.cls-10,.cls-7{opacity:0.5;}.cls-8{fill:#f0e4d8;}.cls-9{fill:#ed6464;}.cls-11{opacity:0.2;}.cls-12{fill:#5b6c9a;}.cls-13,.cls-16{opacity:0.1;}.cls-14{opacity:0.8;}.cls-15{opacity:0.4;}.cls-17{opacity:0.6;}.cls-18{opacity:0.3;}</style></defs><g id="Zoom1"><g id="Calque_3" data-name="Calque 3"><path class="cls-1" d="M952.36,592.63l45.95-39.38,77-13.58,15.39-15.39,78.29-4.15c45.23,13.19,71.92-5.32,81.63-14.3a9.79,9.79,0,0,0,2.81-9.69l-8.81-33.62,4.6-.65a4.35,4.35,0,0,0,3.7-4.89l-3.94-29.4-10.14-22.4,7-7.69-2.16-5.27a9,9,0,0,0-9-5.57l-26.35,2L1188,374.78a16.57,16.57,0,0,0-12.54-2.6l-15.24,3c-30.83,5.78-62.2-9.36-62.2-9.36l-2.78-13.95-4.32-.42L1091,340l10.58-5.28.27-4.46-16.08-5.67a4.27,4.27,0,0,1-2.82-4.56l2.15-17.09a5.89,5.89,0,0,1,6.48-5.11l89,9.68,24.42-24.18a5.41,5.41,0,0,0-.92-8.41L1186.86,264l-14.55.92-24.53-11.37c.91-15.09-35.6-8.72-35.6-8.72l-13.9-17.78-4.2-27.64-14.88-9.54,5.82-27.64-15.84-17,.2-8.13a3.41,3.41,0,0,0-4.36-3.38c-19.37,5.93-39.94-15.61-39.94-15.61l-.76-9,11-.53L1037.63,95l-6.83-8.08.7-8.43a8.71,8.71,0,0,0-6-9L944.67,43.22l-16.26-23.8a11,11,0,0,0-9.4-4.78L907,15,898.6,9.47l-33.74.41a5.89,5.89,0,0,0-5.41,8l8,20.54-18.29,8.9L839.5,44l-11.44,8-5.57,8.9-49.6,10.82-3.13,10.75L763.07,86l-6.35-1.25-8.45,4.6.5,4.79c-7.89,13.09-9.47,37-9.47,37l-4.17-.1L730,139c-5.18,7.92-25.6,2.64-25.6,2.64l-14.21,4.47L686.49,156l-14.93.61s-1.65-3-10.22-7.16-21,9.07-21,9.07l-39.24-11.69c-5.83,2.65-18.82,1.94-25.15,1.39a4,4,0,0,0-4.22,3c-1.17,4.27-4.47,11-13.62,9.6-13.26-2-42.71,11.52-42.71,11.52l-11.26,15.86-9.79-7.56-.15-11.73-.48-.85a4.37,4.37,0,0,0-6.94-.89l-24.68,25.46s-20.69-9.15-24.58,4.89-7.77,13.67-19.93,12.29c-7.86-.89-13.42,8.59-16.37,15.41a11.31,11.31,0,0,0,1.6,11.62l4.86,6-1.25,20.68c-13.8,6.15-12.54,15.18-12.54,15.18l5,17.35-5,25.64,3.62,17.88-36.7,11.36a7.27,7.27,0,0,0-5.1,7.57,129.89,129.89,0,0,1,.33,21.85c-1.12,11.78-22.71,5.05-22.71,5.05l-5.36-4.54,5.89-6-.29-6.09a5.1,5.1,0,0,0-5.51-4.86c-20.09,1.81-39.38,19.84-39.38,19.84l-15.1-9.32,5.35-3,1.15-3.55a3.68,3.68,0,0,0-2.27-4.61l-2.94-1.05-13.39,4-9-4.61a2.13,2.13,0,0,0-3.09,1.82c-.68,24.75-11.1,28.54-11.1,28.54L238.3,416c-3.64,7.17-25.38,6.85-25.38,6.85l-3.16,2.46a3.89,3.89,0,0,1-4.82,0l-9.32-7.46-6.85.4c-21.39,18.81-29.47-3.78-31.67-12.43a3.39,3.39,0,0,0-3.9-2.5l-1.15.22a32.25,32.25,0,0,1-13.88,13.55,11.73,11.73,0,0,0-6,7.4l-2.44,8.94,7.23,8.07-1.87,17.92L148.18,468l-.45,4.1c-4.87,1.67-18.5,1.44-25.92-2s-16.29,11.74-16.29,11.74l-6,.91C85,490,73,506,73,506c-4.44.05-9.19,2.32-12.75,4.49a6.09,6.09,0,0,0-1.57,9h0l20.59,8.13c32.68,42.5,8.85,70.51,8.85,70.51-9.67-5.47-22.26.39-22.26.39l-.05,9.61,45.23,18.06,20.76,5.4c4.35,7.66,13,9.81,19.84,10.22a6.15,6.15,0,0,0,6-8.61L155,627.09c38.69-28.36,63.16,18.07,63.16,18.07,28.81,33.11,51.94,17.9,51.94,17.9L287,644.77l14.55.31,2.34-9.38L332,617.87s38.27-38.8,110.57-24.34,127.47,15.71,149.19,63.87,83.11,41.27,83.11,41.27,19-3.56,34.62,7.77c0,0,16.6,10.83,30.37,7.24s28.38,1.89,32.85-.74,9.66-6.05,33.65-6.69,15.26-14.09,31.76-22.07,33-21.57,48.68-39.87a39.78,39.78,0,0,1,12.41-8.84c7.59-3.37,10.41-17.74,30.7-31.66C942.48,595.19,952.36,592.63,952.36,592.63Z"/><path class="cls-1" d="M1128.12,856.18c-21.86-2.21-32.07-15.25-36.54-24.1a16.92,16.92,0,0,0-13.45-9.32l-47.78-4.58,16.43-23.88-9-17.53,47.06-29.95,9.94-24.57-10.21-5.38-.56-26-8.55-7.15,3.12-14.2a11.18,11.18,0,0,0-4.42-11.51l-13.48-9.63-2.36,5.57-15.64,9-35.34-38.86c10.24-43.38-48.7-28.44-48.7-28.44a45.61,45.61,0,0,0-6.37-.83c-5-.46-29.41,17.06-36,24.86S905,637.21,900.05,639s-20.1,16.22-29.2,26.21c-2.25,2.46-4.42,4.77-6.41,6.83a60.93,60.93,0,0,1-18.83,13.16c-4.82,2.18-10.51,5.6-14,10.5-6.88,9.81-17.6,16.79-23.46,15.07s-23.27-.3-30.45,3.64-12.44,1.74-24.88,1.21-7.69,2-27.92-.19-26.73-18.49-52.88-13.79-53.43-6.88-72-20.71S573.37,636.31,551,626.53s-91.11-22.08-118.78-12.3c-21.77,7.7-63.68,13.86-80.56,16.14a8.42,8.42,0,0,0-7.3,8.36v23.55l-5.79,4.85s9.07,21.58,13.76,28.78-3,37.06-5,44.57-10.9,14.43-10.9,14.43c-15.75-5.63-34,3.52-34,3.52L300.64,767l-7.07,5.64a4.28,4.28,0,0,0,1.86,7.55l6.44,1.24,8.44,7.91L340,791.94l16.54,10.14c38,.85,74.69,19.56,74.69,19.56s1.42,16.39,17.12,24,21.88,16.21,21.88,16.21l13,30.78L495.22,896l14.64,26.11a19,19,0,0,0,13.2,9.38c4.8.86,9.61,1.49,9.61,1.49l-.21,6.81a23.55,23.55,0,0,0,9.3,19.49l21,15.94h32.89c7.53,4.23,4.61,16.91,4.61,16.91l-3.83,6.53c42.83,14.58,59.58,2.14,59.58,2.14l4,3.16.34,9.53,6.71,8.24c-2.69,31.45,17.47,28.36,17.47,28.36l16.42-5.87,19.93,17.69,4.4-4.11,12.62-.29,60.32,17.32a7.57,7.57,0,0,0,9.6-6.35l.73-5.85,17.11-.32,9.79-5.69a7.77,7.77,0,0,0,2.44-11.18l-27.21-38.71C833.32,1013,827.5,990,827.5,990c-35-28.07-16.56-68-16.56-68l-4.35-7.8a7,7,0,0,1,4.2-10.12L825.57,900l19.26-20.16,10.31,1.49,9.4,40,5.53,6.42v9.11l-9,1.19,2.24,20,8.36,7,2.54,12.25-9.56,20.6a23.9,23.9,0,0,0,23.1,1.27l55.44-26.8-2.39-9.85,7.31-8.07.15-9.1-13.88-10.61c15.23-14.18,7.16-31.8,7.16-31.8L933.52,891l8.21-8.81,10.6.15,5.22-6.6s4.08-1.22,10.6,4.76,15.76,8.56,23.1,7.06,2.12-17.5,2.12-17.5l7.63-8.37-.82-19.54,7.06-.1,4.83-8.82,46.72,36.93c10.41,22.24,40,17.9,40,17.9l6.08,4.77,23.21-11.93L1125.71,867ZM737.65,832.87l-5.25-.52-1.08,2a11.37,11.37,0,0,0,1.38,8.2l1.36,1.38s-38.38,23.42-38.38-16.55c0-39.22,28.93-34.4,28.93-34.4l8.14,16.33,7.92,15.41Z"/><path class="cls-2" d="M245.51,664.63l9.33-44a3.34,3.34,0,0,0-3.24-4l-11.35-.15-12.62,11.31a11.82,11.82,0,0,1-11.11,2.58l-14.36-4"/><path class="cls-2" d="M240.25,616.4l9.24-22.62-12,1.89-38.58-15.16-3.62.81a10,10,0,0,0-6.48,4.8l-6,10.56a24.87,24.87,0,0,1-10.08,9.74l-18.4,9.66.71,11"/><path class="cls-2" d="M159.85,613l-1.74-1.2a4.51,4.51,0,0,0-5.19,0l-6.78,4.85a8.85,8.85,0,0,0-3,3.72l-6.94,16.23"/><path class="cls-2" d="M146.58,616.3,124.5,601.44a34.23,34.23,0,0,0-18.19-5.8l-16.37-.41"/><path class="cls-2" d="M88.13,598.08l5.51,6.36a12.09,12.09,0,0,1,2.8,9.8l-.92,5.86"/><path class="cls-2" d="M94.39,585.29l11.85-11.82,23.4-42.54a16.43,16.43,0,0,0,1.2-13.12L128,509.38l-12.71,3.81s-2.55,20.08-20.83,8.88l-15.21,5.5"/><path class="cls-2" d="M198.87,580.51l6.57-16.09,24.66-20.61a3.1,3.1,0,0,1,4.89,1.27l5.83,15.09,7.05-1.45,2.8-10.19,4.22-2.49a2.07,2.07,0,0,1,3.13,1.81l-.07,5.72,21.38,21.49L275,582.33l-4.47-.17A20,20,0,0,0,256,587.6l-6.55,6.18"/><path class="cls-2" d="M279.33,575.06s14.59-1.93,17.77,19l12,11.9a6,6,0,0,0,8.6-.16l23.05-24.66a4.69,4.69,0,0,0-.32-6.71l-19.54-17.25-3.57,5,2.71,8-10,3.45-7.75-2.83-10.38,10"/><path class="cls-2" d="M320.88,557.13l-5.74-14.66L325,530.38l16.84-3.46,6.92-27.21,19.72,19.37-10.38,26.75S343.07,564.62,320.88,557.13Z"/><line class="cls-2" x1="333.37" y1="588.75" x2="342.21" y2="609.78"/><polyline class="cls-2" points="366.16 524.87 387.74 558 390.58 591.69"/><path class="cls-2" d="M368.46,519.08l4-10.17a3.08,3.08,0,0,1,5.13-1l6.94,7.46,5.05-8a5.79,5.79,0,0,1,8.82-1.22c4.37,4.07,9.47,12.38,8.49,28.77,0,0,31-.48,55.69,12.79l5.69,16-5.68,33.64"/><path class="cls-2" d="M393.12,504.77V485.5l6.76-10.24h8.93l10.52,18.18h5.61a2.14,2.14,0,0,1,1.7,3.45l-3.45,4.47,7.89,8.53,9.44-1.8,3.26,7.07-2.47,9.66-11,5.16-1.53,6.82"/><path class="cls-2" d="M440.52,508.09l7.81-16.93-4.68-3a3.08,3.08,0,0,1-1.16-3.87l6.76-14.85L410.1,447.63l.1-5.52,9.29-1.22,3.78-5.92-16.54-22.46-7.14.11-.41-8.17,21.23-14.08L413.57,384l-29.19,11.43-24.29,23.47,9.49,9.71v8.64l-15,14.35,10.13,15.18,9.7,1.27,11.81,32.06,6.77-.06"/><path class="cls-2" d="M354.6,451.64l-16.3-9s3,17.57-16.83,25.89l10.17,12-1.85,8.88,3.52,6.29,9.06-3.52,6.37,7.54"/><path class="cls-2" d="M321.47,468.5l-10.17-7.77-.4-11-6.48-3a4.4,4.4,0,0,1-1.3-7.07l2.59-2.66,42-23.61,6.2-.58,6.23,6.11"/><path class="cls-2" d="M311.3,460.73s-4.39,11.17-19.71,11.93c0,0-31.24-14.41-29.72-37l14.2-10.54,13.47-.16,6.42-3.91,10,.78L305.71,437"/><path class="cls-2" d="M276.07,425.12a79.78,79.78,0,0,0,1-21.4c-1.18-10.58,3-14,11.54-20"/><path class="cls-2" d="M233,543.29a35.17,35.17,0,0,0,4.26-13.19,32.19,32.19,0,0,0-.3-9.67s20-6.52,13.72-36l6.58-1.32-24.07-7.59,1.07,11-20.57,2.11a13.47,13.47,0,0,0-6.66,2.48c-3.69,2.7-7.62,8-.79,16.27l-3.67,9.4-15.7,13.7-3.69-2.4a2.09,2.09,0,0,0-3.1,1l-3.27,8.57a2.59,2.59,0,0,0,2.16,3.51l12.51,1.29,4.67-9.41,12-1.48,14.66,6.23,7.78-8.11,6.64.41"/><path class="cls-2" d="M202.65,500.56l-10.25-2.07-27.78,22.19-3.21,13.47-9.16-5.39S152,515.49,131,518.67"/><polyline class="cls-2" points="128.03 509.38 144.34 491.12 147.73 472.12"/><path class="cls-2" d="M99.5,482.78s-6.79,13-1.87,27.28l17.69,3.13"/><path class="cls-2" d="M147.2,474.69l25.1-2.4,2,5.88s15.22-4.54,20.43,10.81l-2.33,9.51"/><path class="cls-2" d="M184,478.27s27-28.21,2.5-48.41l2.23-11.65"/><path class="cls-2" d="M257.29,483.15,268.23,470s6-10-1.21-17.24"/><polyline class="cls-2" points="384.38 395.47 383.93 379.97 402.01 368.51 404.14 340.51 397.44 339.53"/><path class="cls-2" d="M404.14,340.51l23.45-1.78a4.47,4.47,0,0,1,4.35,2.48l.79,1.61a2.69,2.69,0,0,0,4.17.85l11.43-9.9,2.57-29.15L412.53,293.9l-1.87-3.65L398.87,296"/><path class="cls-2" d="M448.33,333.77s15.51,21.91,12,32.69S446,398.82,446,398.82l-25.61-8.45"/><path class="cls-2" d="M423.27,435l26-14.34L446,398.82s36.67-7.48,39.51,12.76c2.17,15.43,3.17,24.15,3.17,24.15S471,453.55,458.08,453.55s-31.15-1.05-31.15-1.05l-2.9,2.9"/><polyline class="cls-2" points="484.51 408.13 497.83 407.46 499.56 394.61 505.5 389.82 528.49 409.4 536.85 409.29 539.05 432.74 531.97 442.96 520.59 446.68 511.54 439.36 511.42 431.23 487.04 424.5"/><path class="cls-2" d="M527.15,444.22s11.6,9.73,5.26,26.87L537.06,489l-9.58,25.15-17.93-2.24L505.39,491l-6.18-.23L486,501.64l-36.78-32.16"/><path class="cls-2" d="M475.77,492.88l-3.53,25.52a8.54,8.54,0,0,0,2.42,7.2l3.09,3.09a3.67,3.67,0,0,1,.76,4l-3.83,8.71.64,2.45a4,4,0,0,1-2.58,4.77l-8.69,2.93"/><path class="cls-2" d="M509.55,511.86s-12,6.13-6.11,18.85l-25.66,53.71-.12,15.46"/><path class="cls-2" d="M529.67,507.62,559.46,511l2.69,17.66L549.74,567l-21.62-6.54-3.25-8.58a5.21,5.21,0,0,0-6.8-3l-4.32,1.73a7.06,7.06,0,0,1-7.22-1.22L497.94,542"/><path class="cls-2" d="M528.12,560.48l-3.69,14L505,593.21l-3.54,0a3.76,3.76,0,0,0-3.72,3.77v6.51"/><path class="cls-2" d="M549.74,567l7.58,2a9.44,9.44,0,0,1,7,9.59c-.5,11-3.42,30.85-17.31,38.28"/><polyline class="cls-2" points="563.22 588.37 608.61 560.29 619.11 562.98 624.48 571.63 633.91 574.24 641.24 583.15 630.24 599.91 573.93 632.52"/><path class="cls-2" d="M641.24,583.15l39,39L663.06,664,657.71,665A28,28,0,0,0,640,676.79h0l-21-2.06L591.77,657.4"/><polyline class="cls-2" points="629.66 551.84 619.15 556.49 619.11 562.98"/><path class="cls-2" d="M619.15,556.49l-30.1-29.16.82-9.22a6.6,6.6,0,0,0-8.16-7l-21.36,5.26"/><path class="cls-2" d="M637.1,542.54l32.9-64-15.27-12.26s1.4-10.56-5.22-15.44l-19.85,2.56-15.81-8.5a10.86,10.86,0,0,0-14.39,3.88l-9.84,16,18.18,9.47-4.32,11.93-10.14,1.93L559.46,511"/><path class="cls-2" d="M670,478.49l28.73-16.67,2.09-53.52,4.61.35,6-20.78-1.57-10.78-3.46-2.56a8.48,8.48,0,0,0-8.52-.9l-7,3.18a27.51,27.51,0,0,1-14.64,2.27l-21.15-2.51-6.69-4.83-21.71,8.85-14.94.28-6-1.66L594.74,392.9l-13.84-.28L555.31,417.8l31.13,24.34,7.23,16.12"/><path class="cls-2" d="M580.9,392.62l-15.26-20.87,32.49-25,4.13-17.66,25.3-11.47s-6.88-21.7,12-29.06L663.3,293l-8.21,83.58"/><path class="cls-2" d="M669.88,378.55l.25-8.85,41-36.16,16.2,1.12,8.36-6.48-1-7.57-11.48-11.16L719.59,297c-10.14-7.21-20.83,5.54-20.83,5.54l-14.17.55L663.3,293l7.38-38,21.22-1.22s9,13.14,12.68,8.58,3.9-13.47,3.9-13.47l5.9-7.14,13.5,7.7,1.72,28.41s-1.2,10.05-15,17.3"/><path class="cls-2" d="M728.67,263.66l70.66-1.94s2.49,16.19,18.41,16.08v12.61l-27.35,48.21-6.57-6.07a5.19,5.19,0,0,0-6-.73l-6.16,3.39-32.41-.71-3.52-6.32"/><path class="cls-2" d="M727.6,380s-6.92-10.8-17.74-2.93"/><path class="cls-2" d="M705.43,408.65s8,1.67,8,14l10.89,6.44,9.15-12L732,392.74"/><path class="cls-2" d="M724.29,429.13l11.12,2.71L751.58,421l10.26-.37,9.52,5a11.53,11.53,0,0,0,15.26-4.32l1.66-2.79L799.49,414l37.68-39.71,3.71-17.68-4-5.68-34.21-3.11-12.32-9.2-32.88,37.66L732,392.74,727.6,380l11.63-45.52"/><path class="cls-2" d="M771.36,425.63,792.52,437l1.73,8.18a10.21,10.21,0,0,1-4.81,10.92l-3,1.75-2.33,10.95,6.41,2.45-6.16,19.55L772,501.71l-24.26,2.77L722.28,520.3l-13.84-29.4-8.57-3-2.37-8.31L683,471"/><path class="cls-2" d="M790.54,471.22l4.87-1.83,11,3.68,5.28,11s25,3.68,25,14.25l-15.05.32-11.84,14.08-13.92,8.16-9.36-6a14.16,14.16,0,0,1-6.12-8.42l-2.6-10.1"/><polyline class="cls-2" points="795.89 520.92 770.75 560.2 755.97 561.2 706.14 535.32 722.28 520.3"/><path class="cls-2" d="M836.7,498.36l8.9,2,16.59-45.95s-10.12-29.56,6.37-47l-9-.67-5.16-8.71,10.41-8.64-1.31-13.95-26.36-1.19"/><polyline class="cls-2" points="862.18 454.44 875.58 449.57 897.29 454.78 897.41 474.38 904.39 489.23 895.48 509.88 872.73 502.42 849.99 506.33 845.6 500.39"/><polyline class="cls-2" points="860.51 504.45 853.62 533.94 861.05 556.39 859.03 573.34 840.71 568.21 823.48 573.52 818.9 587.63 808.98 560.97 785.88 536.14"/><polyline class="cls-2" points="818.9 587.63 823.3 618.46 813.44 645.65 804.43 644.4 799.76 632.59 779.95 626.35 783.64 586.98 770.75 560.2"/><path class="cls-2" d="M780,626.35l-6.63-.44s-8.11-25.8-35.83-38.78l-10.43,1.94"/><path class="cls-2" d="M721.62,598.81l3.45,24.81,4,4.86v12.77l3.37,1.19-1.88,11.28s-50.82-10.08-50.27-31.57l.79-11,9.32,4.23,26.45-20,4.81,3.38s7.81-9,6.9-20c0,0-21.73-15.35-22.38-43.45l-7.57,7.59-61.47-.37-7.44,9.3,4.25,22.4"/><path class="cls-2" d="M732.4,642.44s33.58,8,42.17,19.82l10.64-7.15s4.44-7.23-11.89-29.2"/><polyline class="cls-2" points="730.52 653.72 710.36 698.02 703.66 695.89 697.51 700.39"/><polyline class="cls-2" points="710.36 698.02 734.38 708.44 734.46 714.28"/><polyline class="cls-2" points="754.77 712.51 766.18 679.27 779.62 668.01 774.57 662.26"/><path class="cls-2" d="M821,601.88h14.8v19.56l7.61,6-6.76,11,2.35,4.12,69.73-41a5.7,5.7,0,0,0,1.77-8.19l-25.83-36.59-5.51,9.54-20.08,7"/><line class="cls-2" x1="846.14" y1="638.33" x2="856.57" y2="672.72"/><path class="cls-2" d="M871.45,623.31s-.69,10.43,3.82,15.06,9,8.81,9,8.81"/><line class="cls-2" x1="910.45" y1="593.37" x2="919.64" y2="611.74"/><polyline class="cls-2" points="884.62 556.78 894.17 550.76 914.83 549.52 924.54 586.1 938.23 584.24 948.93 593.57"/><path class="cls-2" d="M914.83,549.52l6.77-12.75a10.19,10.19,0,0,0-3.77-13.53l-22.35-13.36"/><path class="cls-2" d="M565.64,371.75l-9-7.78-10.5,4-27.46,1a6.58,6.58,0,0,1-6.78-5.81l-1.31-10.93L502,352l-2-7.54a28.33,28.33,0,0,1,5.38-25l.79-1-19.9-25.21,10-14.52-.78-7.37-39.9-4.6-14.27-12.2-34.79,4.21"/><path class="cls-2" d="M441.42,254.58l-9.71-25.29,8.62-.77s-1.1-16.13,21-19.89l.79-16"/><path class="cls-2" d="M504.15,188.21l17.61,3.23,30.52,34.33-13.77,33-10-5.31s-7,.34-7,12.45l-26,5.46"/><path class="cls-2" d="M538.51,258.78l.12,7.74,21.08,16.36,35.09-1.19,4.74-3a8.62,8.62,0,0,1,10.14.63l20.06,16.66"/><polyline class="cls-2" points="499.57 331.39 472.72 327.71 464.77 312.32 450.9 304.62"/><polyline class="cls-2" points="670.68 254.97 644.46 247.31 639.82 224.49 605.32 194.07 606.7 186.14 618.16 177.17 613.36 173.62 597.37 175.66 586.09 159.4 576.5 155.14 579.52 148.57"/><path class="cls-2" d="M558.12,160.83l9,6.26,2.44,9.37-5,2.79L567,190a8.56,8.56,0,0,1-8.47,10.47l-14.78-.2-7.66,6.84"/><path class="cls-2" d="M922.43,533.78l7.09-13a5.93,5.93,0,0,1,3.63-2.89h0a6,6,0,0,1,6,1.7l11.11,12.1,10.06-9.09,29,38.52"/><path class="cls-2" d="M960.3,522.56,958,511.9l11-45.62-25.19-5,7.89-18.42-2.13-2a19,19,0,0,0-15.77-5h0l-8.28,18.81-28.19.11"/><path class="cls-2" d="M951.66,442.83l-6.84-12.63,7.63-2.9-3.55-11.71s15.39-2.63,21.45,2.24l15.39,27.24,4.87-2.9,7.37,2.5v11.06l-5.66,12.1L969,466.28"/><path class="cls-2" d="M998,444.67l39.87-10.79-5.53-7.5.4-17.5-7.9-8.68-11.31-2.11-3.16-10.66-33.92.46A2.93,2.93,0,0,0,974,392.3l4.95,8.42.13,6.71-8.68,10.4"/><path class="cls-2" d="M976.43,387.89l-18.06,7.44-5.92-6.19,2.76-8.29-8.16-4.34,3.69-10.66L944,356l-9.48,10.93-.26,18.42-12.1,17.24-6.06-.27.66,16.32a43.13,43.13,0,0,0,28,11.58"/><polyline class="cls-2" points="916.13 402.3 885.08 396.64 868.56 407.45"/><path class="cls-2" d="M840.88,356.61l7.49-.63,43.68-27.63,3.56,3.95,15,5s18.55-6.45,30.79.53,8.68,11.31,8.68,11.31L944,356"/><path class="cls-2" d="M936.5,335.57l13.3-7.31.26-16.23-8.78-.4,15-28.6-21.69-1.46-12,2.93-21-11.31L889.54,282,901,298.46s11.81,17.35-8.93,29.89"/><polyline class="cls-2" points="889.54 281.97 861.16 282.91 850.79 276.56 817.74 277.8"/><path class="cls-2" d="M840.21,277,845,258.07s-11.38-11.27-6.39-29.24l-13.43-4-19.61.43.76,15.6-7,20.87"/><path class="cls-2" d="M805.55,225.25l-9.76-3.84-11.41,3.25s-8.9.41-8.59-11.1l-29.32,1.15L733.59,228l-5.71,21.41"/><path class="cls-2" d="M795.79,221.41l3.23-9.93,5.78-2.84,11.63-34.74a3.77,3.77,0,0,1,6.24-1.46l11.47,11.49,24,.36,9.48-3.67,14.94,31a5.48,5.48,0,0,1-2.72,7.4l-24.78,11-16.5-1.17"/><path class="cls-2" d="M867.65,180.62l31.2-11.22,9.7.7,10.57-6.93s15.76,24.25-3.64,42.61l-8.14,5-12-9.88-12.8,10.7"/><path class="cls-2" d="M915.48,205.78l2.06,6.65s-22.48,12.06-15.89,60.76"/><polyline class="cls-2" points="924.91 187.99 940.11 192.09 939.31 197.75 970.71 232.59 1013.64 227.54 1022.28 212.59 1018.15 200.24 1023.12 174.06 999.12 171.5 999.35 166.91 964.77 147.09 957.51 152.36 945.68 151.32 920.73 165.84"/><path class="cls-2" d="M917.1,164.52s-1.23-20.67-35.5-22.25l.15-15.24,4.89-3.42,1,1a4.79,4.79,0,0,0,7.42-1.13l6.71-11.72,28.42-8.57s42-6.44,30.83,34.19l3.72,9.75"/><path class="cls-2" d="M825.44,101.3l-6.69-4.08-6.41,2.52-13.7-6.55A26.34,26.34,0,0,0,781,91.38l-3.07.75-8.14-9.7"/><path class="cls-2" d="M865.69,116.72l10.7-14.25,8.73-.28-.9-12.57-36.87-4.37a43.59,43.59,0,0,0-14.09-36.86"/><path class="cls-2" d="M867.49,38.45l24.57-1.19a13.47,13.47,0,0,0,12.53-10.7L907,15"/><path class="cls-2" d="M904.26,27.94,903,55.61s8.1,16.17,53.75,13.3L963.16,50a.21.21,0,0,1,.41,0l3.11,16.37,9,5.94-2.56,16.63-1.89,1a20.59,20.59,0,0,1-15.94,1.5l-6.14-1.93-6.05-9.07.11-11.12"/><polyline class="cls-2" points="973.08 88.94 995.67 86.02 1012.71 92.83 1024.32 109.22"/><line class="cls-2" x1="949.11" y1="89.52" x2="948.4" y2="104.56"/><polyline class="cls-2" points="999.35 166.91 1030.19 166.82 1045.43 150.93 1054.3 134.51"/><path class="cls-2" d="M1021.43,182.46l12.23-5.24,6.48,4.66a31.9,31.9,0,0,0,14.16,5.68l20.44,2.9,3.12,10.6a6.61,6.61,0,0,0,5.67,4.7l7,.68,3.6-7"/><path class="cls-2" d="M1078.23,202l-.49,14.49s-16.07-6.51-22.3,13.87c0,0-21.42,16-41.79-2.81"/><path class="cls-2" d="M1033.26,236.42l.44,33.65-6.12,2.08-.39,5.94a5.77,5.77,0,0,1-7.53,5.11l-7.49-2.42-5.79-7.76-5.68-2.62-18.14-.11.11-6.34-7.87-9.61,7.65-3.61,1.75-9.5-3.06-9.95"/><path class="cls-2" d="M1033.7,270.07l28.68,7.69a14.79,14.79,0,0,0,17.44-8.52l7-16.68,25.31-7.7"/><path class="cls-2" d="M956.32,283l1.43-12.8a13,13,0,0,1,6.44-9.81l10.61-6.08"/><polyline class="cls-2" points="950.06 312.03 993.11 323.25 1011.36 319.97 1025.93 281.47"/><path class="cls-2" d="M1011.36,320l14.32,9.7L1014.39,341l-.13,19.15,9.54,5.68a5.89,5.89,0,0,1,.8,9.55l-14.25,12.09"/><polyline class="cls-2" points="1023.8 365.79 1063.45 371.68 1112.32 371.15"/><polyline class="cls-2" points="1097.99 365.81 1079.82 367.2 1049.42 352.17 1040.23 333.68 1025.68 329.67 1042.21 323.52 1047.17 326.21 1083.83 323.41"/><path class="cls-2" d="M1140.27,303.28l-2.11-9.18-13.78-2.68s10.46-39.92-2.94-47.89"/><path class="cls-2" d="M1087.32,298.85l-9.4-14a10.54,10.54,0,0,1-1-9.34l1.19-3.21"/><path class="cls-2" d="M1032.32,426.38l18.61-6.7s.11-13.92,10.44-13.57l37.37-15.32,1.17-19.63"/><polyline class="cls-2" points="1098.74 390.79 1105.38 402.68 1103.07 423.26 1091.38 437.91 1075.81 421.04 1050.93 419.69"/><polyline class="cls-2" points="1091.38 437.91 1090.15 471.37 1069.01 475.65 1059.88 490.37 1043.21 496.05 992.32 467.83"/><path class="cls-2" d="M1043.21,496.05l4.73,5.88-.91,11.82a7,7,0,0,1-7.21,6.41l-39.48-1.6L970.67,536.2"/><path class="cls-2" d="M1047.94,501.93l8.89-.29,19.08,16.54-2,8.12-8.69,6a10.58,10.58,0,0,1-12.43-.3l-6.38-4.87.65-13.37"/><line class="cls-2" x1="1065.19" y1="532.29" x2="1038.21" y2="546.21"/><path class="cls-2" d="M1128.25,521.93l-26.49-3.71a13.34,13.34,0,0,1-11.48-13.15l-.13-33.7,5.06,3.68,36.07-28v-9.21l-2.83-4.67a20.53,20.53,0,0,0-17.53-9.88h-7.85"/><polyline class="cls-2" points="1168.94 520.13 1164.01 498.04 1174.79 461.83 1148.04 449.12 1131.28 447.03"/><polyline class="cls-2" points="1128.45 433.15 1150.04 399.16 1156.45 399.32 1160.66 375.1"/><path class="cls-2" d="M1239,514.16s-26.14-17-20.42-57.78l13.11,6.6,12.91-.46"/><path class="cls-2" d="M682.24,254.2l-11.53-42.58,18.93-40.54-4.54-2.93-8.72.43a6.84,6.84,0,0,1-5.46-2.31l-2.15-2.44,2.79-7.18"/><path class="cls-2" d="M679.83,192.09l-25.15-3.82L648,190.72l-9.33-3.37-.28-4.1a5.47,5.47,0,0,0-5.09-5.08l-15.17-1"/><path class="cls-2" d="M760.83,214s6.94-47-49.48-58.07l-24.86.11"/><path class="cls-2" d="M739.3,131.16,738.16,152a8.45,8.45,0,0,0,7.55,8.87l11.75,1.23,16.32-12.36.65-2.72a4,4,0,0,1,5.52-2.77l30.72,13.18,8.22,14.06,2.54-28.86L835,131.77l-9.13-14.93-.38-15.54,40.25,15.42,2.84,6.18L881.75,127"/><line class="cls-2" x1="743.12" y1="160.2" x2="744.9" y2="171.68"/><path class="cls-2" d="M353.52,709.78l9.52,1.38a5.58,5.58,0,0,0,6-7.37l-6.35-17.93,7.21-5.68,6-17.55-7.38-8.48.6-11.44,7.71-8.48-.85-7.71"/><path class="cls-2" d="M458.08,618.64l-3.44,4.83,2,70.22,9,4.25-.75,6.87,8.5,4.88L504.68,637a9.25,9.25,0,0,0-4.89-12.18l-33-14-8.68,7.77-18.15-6.51-8.55,8.19a24.49,24.49,0,0,0-7.54,18.59l.7,18.79-3.62,6.94-24.34,2.62-3.56-4a9.41,9.41,0,0,0-9.76-2.79L376,662.63"/><path class="cls-2" d="M434.08,714.31,430.6,753.9l11.51,21.36.13,11.13,40,4.22,8.57-9.34L488.5,728.4a10.76,10.76,0,0,0-7.66-9.82l-5.64-1.69-1.82-7.2-3,6.22L363,711.16"/><path class="cls-2" d="M482.27,790.61l21.57,9.62,4.49,8.66,27.21,1.23L548,801.39a20.49,20.49,0,0,1,16.68-3.09l17.71,4.4,12.53-20.88-14.54-26-32.32-21.65-20.1,9.9s-17-13.3-9-33.87l7.3-6.43a2.12,2.12,0,0,0-1.43-3.71l-47.68.52"/><path class="cls-2" d="M548.07,734.19l.89-8.31,14.09-12.13,9.19,2.82,2.35-1.37a7.09,7.09,0,0,0,2.82-9.16l-10.95-23a1.87,1.87,0,0,0-3.54.55l-1.71,12.08L556,698.56,543,694.43a9.45,9.45,0,0,0-9.53,2.27l-7.19,7.09"/><path class="cls-2" d="M594.93,781.82l13.68-.29,10.24-15.84s-9.56-16.1,2.46-29.21L592,726.79l12.69-22.66-29.56-26.88a4.7,4.7,0,0,0-6.63.31l-4.16,3.78-.08-6.71,7.34-5.6.15,7"/><path class="cls-2" d="M571.56,669l-.07-1.43a15.13,15.13,0,0,0-4-9.48L533.18,620.7"/><polyline class="cls-2" points="621.31 736.48 640.52 738.6 646.41 725.23 613.65 716.39 608.67 720.13 599.67 712.68"/><path class="cls-2" d="M646.41,725.23l6.75-.89a6.52,6.52,0,0,0,5.66-6.48l-.07-15"/><path class="cls-2" d="M640.52,738.6l7.62,2a38.76,38.76,0,0,0,35.58,15.31s14.8-13,21.49-5.78l8.64-10.05L679,724.66l-25.87-.32"/><line class="cls-2" x1="709.23" y1="737.98" x2="719.82" y2="714.48"/><line class="cls-2" x1="697.03" y1="732.59" x2="697.3" y2="704.26"/><path class="cls-2" d="M683.72,755.89,670.18,771a8.37,8.37,0,0,0,.17,11.34l4.7,4.95,17.13-8.52,3.86-21.6,9.17-7.08"/><path class="cls-2" d="M675.05,787.31l-18.91,18.18a6.86,6.86,0,0,1-10.64-1.4l-7.65-12.72a11.1,11.1,0,0,0-11.52-5.2l-22.5,4.11,4.78-8.75"/><path class="cls-2" d="M603.83,790.28l-6.62,22.09-29.36,41.86-5.28,16.7,2.81,3.7,19.52-5.81,20.4,7.74,3.17-8.27,18.29-16.53,1.5-18.86a14.22,14.22,0,0,1,10.23-12.53l6.38-1.84,10.81-12.69"/><polyline class="cls-2" points="567.85 854.23 540.83 849.18 531.77 840.4 518.66 840.26 518.38 809.16"/><path class="cls-2" d="M518.66,840.26l-1.55,5.47-24.38,16.08-3.66-1.59a3.51,3.51,0,0,0-4.89,2.91l-1.53,17.77,9,13.91"/><polyline class="cls-2" points="505.74 853.09 463.24 836.69 456.14 849.79"/><path class="cls-2" d="M463.24,836.69l-20.09-21.64a3.75,3.75,0,0,0-5.42-.08l-6.55,6.67"/><path class="cls-2" d="M532.67,933l7.32-8.49,39.12-5.23A17.32,17.32,0,0,0,593,908.36l12.34-31.8"/><path class="cls-2" d="M600.49,982.42,630.91,938l16.18-9.79,11.33,3.87,9.42,14.34-9.22,16.54a17.4,17.4,0,0,0,0,16.9l2.82,5.07L656,1000.8"/><path class="cls-2" d="M647.09,928.19l-5.45-5.26s17.08-13.22,45.63-2.8l3.27-.34a5.3,5.3,0,0,0,3.58-8.59l-10.33-12.91,1.3-3.6a3.79,3.79,0,0,0-3-5l-13.44-2-7.07,6.08L657.11,892,649.79,900l-9.93-1.12-1.86-29-14.27-15.51"/><path class="cls-2" d="M657.11,892l-4.58-7.08s5.53-33.84,27.24-53.31l-8.55-8,25.18-42.89-4.22-1.92"/><path class="cls-2" d="M696.4,780.71l13.32-1a7.37,7.37,0,0,1,6.87,3.6l2.52,4.26,4,.12,9.8-23.18,4-.49a3,3,0,0,0,1.27-5.51L725.11,750l.23-9.11-7.49-4.39-4,3.52"/><path class="cls-2" d="M723.15,787.74l13.4,8,8.81-1.57-12.61,15.08,7.92,15.41-3,8.19-5.25-.53s-4.29,5.69,1.66,11.55l22.23,5.56s25.42,19.23,36.17-6l20,5.27-10-30.6-11.74-12.39L767.09,795.4,735.6,814.83"/><path class="cls-2" d="M762,798.56a9.4,9.4,0,0,1,.89-6.07c1.62-3.08,15-29,15-29l9-4.45-10.23-4.24-14.22,5.82L737,764.07"/><polyline class="cls-2" points="786.85 759.06 799.7 755.2 808.1 762.93 821.17 797.19 817.54 808.35 802.39 818.15"/><path class="cls-2" d="M799.7,755.2l-1.6-15L789,722.63a11,11,0,0,0-9.78-6l-9.72,0"/><path class="cls-2" d="M821.17,797.19l16.55-16.56,8.06-1.69a5.94,5.94,0,0,0,4.42-7.67l-2.29-6.93-16.5-15.54a5.54,5.54,0,0,0-8.35.87l-5.8,8.36-9.16,4.9"/><polyline class="cls-2" points="831.41 748.8 827.08 726.55 817.05 723.54 808.2 710.76"/><polyline class="cls-2" points="827.08 726.55 833.39 718.31 823.67 714.78 821.57 706.11"/><path class="cls-2" d="M833.39,718.31l22.85,1.94a5.18,5.18,0,0,0,5.54-6.08l-6.2-34.73"/><path class="cls-2" d="M856.24,720.25l20.62,1.26a6.07,6.07,0,0,0,6.43-6.52l-1.65-22,5.65-8.41-14-21.89"/><path class="cls-2" d="M876.86,721.51l23.16,4.4a5.41,5.41,0,0,1,3.66,8.05l-13.37,22.76-6.73,3,4.55,13.93-14.69,20.09L866.25,795a11.56,11.56,0,0,1-10.88-4.15l-9.59-11.87"/><path class="cls-2" d="M890.31,756.72l28.92,7.11,5.55,8.2-9.38,12-8,.11-10.56-14.39a3.46,3.46,0,0,0-5.48-.12l-3.24,4"/><path class="cls-2" d="M907.41,784.18l-1.89,31-5,6.79a8.11,8.11,0,0,1-11.73,1.43l-27.72-23.08v-5.75"/><path class="cls-2" d="M685.2,894.16,702,864.88s-23.53-17-22.23-33.31"/><path class="cls-2" d="M667.84,946.4s11.91,15.58,32.34,11.87l1.06-21,9.15-16s.55-3.29-3.91-3.29-19.21,2.15-19.21,2.15"/><path class="cls-2" d="M710.39,921.27l27.74-5.76,7.7,5.81,29.74-8.24,3.78,33.38-6.22,4.73L770,948.07a7.19,7.19,0,0,0-9.33-.63l-5.2,3.89-7.44-.81-3,13.11-36.49-.81-8.35-4.55"/><path class="cls-2" d="M708.53,962.82l-5.09,13.86,5.7,12.1s-14.38,30.74-42.09,33"/><path class="cls-2" d="M709.14,988.78l9-3.75,6,6.77.69,5.18a10.07,10.07,0,0,0,8.32,8.6l9.32,1.55,21.91-20.76,9.24.48,37,19.88"/><path class="cls-2" d="M779.35,946.46l4,7.54.38.07a5,5,0,0,0,5.86-3.91l2.63-13.28,5.18-2.9,9.92,1.23"/><polyline class="cls-2" points="742.5 1007.13 745.24 1028.3 737.88 1057.51"/><polyline class="cls-2" points="775.57 913.08 772.1 884.62 800.76 845.62"/><path class="cls-2" d="M812.42,848.75l9.16,1.77a8,8,0,0,0,8.66-4.26l6.08-12.11a3.88,3.88,0,0,1,5.43-1.6l3.08,1.81L880,816.17"/><path class="cls-2" d="M790.88,858.69s29-2.39,32.59,6.17c5.49,13.21,21.36,14.95,21.36,14.95s-2.9-31.56-14.05-35.11"/><path class="cls-2" d="M856.34,886.67l22.73-10,14.44-23.86a14.18,14.18,0,0,0,1.12-12.41l-6.85-17.93"/><path class="cls-2" d="M885,866.44l30.6,37.12A12.58,12.58,0,0,1,917.27,917l-2.51,5.27-44.69,5.5"/><path class="cls-2" d="M892.1,875.13l18.72-6.07,4.88-9.16L926.8,854a4.38,4.38,0,0,0,1.53-6.38l-22.81-32.42"/><path class="cls-2" d="M915.62,903.56l10.2,11.71a9.2,9.2,0,0,0,7.93,3.11l9.87-1"/><polyline class="cls-2" points="957.55 875.75 953.79 865.33 941.16 863.81 928.33 847.6"/><path class="cls-2" d="M953.79,865.33l8.88-10.54,3.82-17.47,2.31-1.07a5.79,5.79,0,0,0,3-7.26l-.89-2.43-8.45-1.22L943.9,810.4a2.17,2.17,0,0,0-3.53,1.59l-.58,11.69-9.24,1.15-5.42-3.9-13.64,2.89"/><path class="cls-2" d="M966.49,837.32l15.41-4.63a7.11,7.11,0,0,1,7.85,2.69l10.64,14.94"/><path class="cls-2" d="M943.9,810.4,947.51,793a7.5,7.5,0,0,0-3-7.58l-8.18-5.92,2.76-8.33-7.26-4.56-9.53,1.62"/><polyline class="cls-2" points="939.14 771.18 943.93 775.26 958.68 774.84 965.58 783.53 971.39 784.31 974.87 790.3 966.53 805.41 951.01 816.14"/><path class="cls-2" d="M974.87,790.3l10.81-1.22,5.6,5.86,16.11-3.8,2.42,2.74a7.23,7.23,0,0,1,.31,9.21l-16.78,21.75,1.87,7.22-4.56,4.84"/><path class="cls-2" d="M985.68,789.08l-9.45-7.24-.09-9.42L990,765l19.11,1.58,2.8,10,10.91,2.14,8.37-5.38a3.68,3.68,0,0,1,5.08,1.11l1.52,2.37"/><line class="cls-2" x1="1040.3" y1="803.7" x2="1011.65" y2="798.23"/><line class="cls-2" x1="1012.07" y1="833.24" x2="1030.35" y2="818.18"/><polyline class="cls-2" points="1053.95 866.36 1074.72 845.16 1094.87 837.91"/><path class="cls-2" d="M931.88,766.62l7.3-49.86a14.32,14.32,0,0,0-3.85-12l-10.71-11.13-37.33-9.11"/><line class="cls-2" x1="936.13" y1="737.97" x2="900.02" y2="725.91"/><path class="cls-2" d="M919,692.38l-2-17,15.06-5.62,20.62-23.6a6.22,6.22,0,0,0-1.71-9.56l-33.59-18.31"/><polyline class="cls-2" points="952.71 646.19 972.88 646.35 984.03 635.67 990.51 638.82 1011.19 628.43"/><polyline class="cls-2" points="1075.49 683.77 1063.67 687.13 1048.13 675.83 1042.71 662.99"/><polyline class="cls-2" points="1003.42 672.36 1057.23 697.49 1084.39 698.59"/><path class="cls-2" d="M1057.23,697.49l-9.41,10,5,24.49a20.68,20.68,0,0,0,10.37,14l12.17,6.64"/><path class="cls-2" d="M1035.63,687.54l-17,11L1012.92,713l-51.37,9.75-22.14-8.94,6.92-7.67L973,697l22.15-24.42,8.24-.17a17,17,0,0,0,13.28-6.8l12.85-17.14"/><path class="cls-2" d="M961.55,722.75l13.3,13.77a8.28,8.28,0,0,1,1.38,9.6l-5.29,10.08-36.69-5.84"/><line class="cls-2" x1="970.94" y1="756.2" x2="980.95" y2="769.61"/><path class="cls-2" d="M340,791.94l29.87-23.7a8.39,8.39,0,0,0,2.84-8.91l-2.09-7.12,5-3.47,2.09,1.23a8.34,8.34,0,0,0,9.65-.87l26.33-22.63.77-13.2"/><line class="cls-2" x1="369.82" y1="768.24" x2="342.62" y2="748.54"/><polyline class="cls-2" points="300.64 766.96 320.18 783.32 345.44 787.51"/><line class="cls-2" x1="555.31" y1="417.8" x2="537.66" y2="417.97"/><path class="cls-3" d="M533.13,620.66l26.36,28.67s12.31,11.3,11.93,19.82l-7.28,5.55.1,7.1a2.74,2.74,0,0,0-1.47,2.4c-.25,1.95-1.57,11.26-1.57,11.26l-5.33,3-13.59-4.18s-4.65-1.69-10.84,4.43-12.53,11.48-12.53,11.48-8.37,20.37,9,33.8l20-9.91L580.24,756l14.65,25.66,13.76-.11-4.73,8.7-6.69,22.25-29.4,41.84-5.25,16.56,2.8,3.71,19.55-5.88,20.46,8L595.07,903s-3.43,16.4-18.65,16.67L540,924.49,532.67,933"/><path class="cls-3" d="M547.14,616.73s11.55-2.81,16.4-28.66l45.18-27.84L619,563l.08-6.77L589,527.14l1-9.55s-.89-7.86-8-6.58-21.79,5.39-21.79,5.39l-.56-5.47-29.85-3.26,7.27-19.05-4.77-17.87s6.83-13.28-4.91-26.56l4.72-1.2,7.06-10.36-1.44-14.85,17.74,0,25.49-25.23S564.28,368.08,556.61,364l-10.44,4-27.78,1s-5.87.23-6.72-6.82-1.2-10.15-1.2-10.15l-8.53-.1s-4.75-12.72-2.59-20.39L472.6,327.7l-7.9-15.42-13.79-7.75-38.52-10.66-1.73-3.71L398.87,296"/><path class="cls-3" d="M619.11,556.27l10.66-4.57,7.55-9.32,61.24.46,24-22.78,25.34-15.58,23.84-2.54,6.2-5.38a27.28,27.28,0,0,0,17.64,24.06l14.57-7.92,11.58-14,15.62-.3,8.3,2.1,4.33,5.83,10.77-1.8-7,29.22,7.4,22.42-2,16.89,20.27-6.78,5.53-9.77,9.38-5.86,20.83-.95L923,533.46s0-7.23-4.22-9.75-23.48-14-23.48-14l9.14-20.64-7.13-14.85,0-19.47,28.21-.23,8.36-18.78s11.08-1.24,17.64,7L945,430.05s-13.49,1.95-28.32-11.49l-.56-16.5-31.24-5.47-16.68,11-8.62-.75-5.19-9.17,10.66-8.62-1.67-13.72-26.14-1.21,3.7-17.8,7.51-.55,43.6-27.36,3.64,3.92,14.75,4.91s13.47-4.82,26-1.73l13.4-7.49.26-16.23,43.1,11.52,18.41-3.49,15.53-41.53.34-6.31,6.44-2,27.48,7.7s13.21,3.79,18.53-8.7,6.94-16.41,6.94-16.41l25.26-7.72"/></g><g id="Calque_7" data-name="Calque 7"><polygon class="cls-4" points="287.57 363.28 295.53 363.28 302.8 561.23 280.3 561.23 287.57 363.28"/><rect class="cls-4" x="291.99" y="382.94" width="49.1" height="7.54" transform="translate(-135 172.57) rotate(-25.33)"/><rect class="cls-4" x="231.19" y="382.94" width="66.74" height="7.54" transform="translate(334.55 -76.58) rotate(42.97)"/><rect class="cls-4" x="303.27" y="361.17" width="2.71" height="32.51" transform="translate(401 -97.92) rotate(50.37)"/><path class="cls-5" d="M411.77,378a13.65,13.65,0,0,1-2.35,4.89,14,14,0,0,1-18.12,3.55,21.09,21.09,0,0,1-21,3.74,20.85,20.85,0,0,1-10.84-10.41c-.78.52-7.36,4.87-15,2.29A17.45,17.45,0,0,1,333,366.21a10.89,10.89,0,0,1-7.5,2.71,10.56,10.56,0,0,1-6-2.29,13.69,13.69,0,0,1-16.68-7.93,15,15,0,0,1-12.91,7.93c-7.54.09-11.9-5.71-12.3-6.26a20,20,0,0,1-18.12-2.5c-.11.23-2,4.21-6.25,4.79a8.14,8.14,0,0,1-8.13-4.18,11.41,11.41,0,0,1-11.88,10.64c-.37.9-4.45,10.39-14.8,12.7a21.36,21.36,0,0,1-15.83-2.91A20.44,20.44,0,0,1,177,347.52a31.74,31.74,0,0,0,53.4-1.12c10.56,7.89,23.17,9.43,31.68,4a21.08,21.08,0,0,0,7.7-9.16,45,45,0,0,0,46.89,7.09c2.28,2.45,16.63,17.5,37.3,16a41.86,41.86,0,0,0,17.7-5.42c.71,2,5,13.31,17.3,18.56A31.58,31.58,0,0,0,411.77,378Z"/><path class="cls-6" d="M411.77,378a13.65,13.65,0,0,1-2.35,4.89,14,14,0,0,1-18.12,3.55,21.09,21.09,0,0,1-21,3.74,20.85,20.85,0,0,1-10.84-10.41c-.78.52-7.36,4.87-15,2.29A17.45,17.45,0,0,1,333,366.21a10.89,10.89,0,0,1-7.5,2.71,10.56,10.56,0,0,1-6-2.29,13.69,13.69,0,0,1-16.68-7.93,15,15,0,0,1-12.91,7.93c-7.54.09-11.9-5.71-12.3-6.26a20,20,0,0,1-18.12-2.5c-.11.23-2,4.21-6.25,4.79a8.14,8.14,0,0,1-8.13-4.18,11.41,11.41,0,0,1-11.88,10.64c-.37.9-4.45,10.39-14.8,12.7a21.36,21.36,0,0,1-15.83-2.91A20.44,20.44,0,0,1,177,347.52a31.74,31.74,0,0,0,53.4-1.12c10.56,7.89,23.17,9.43,31.68,4a21.08,21.08,0,0,0,7.7-9.16,45,45,0,0,0,46.89,7.09c2.28,2.45,16.63,17.5,37.3,16a41.86,41.86,0,0,0,17.7-5.42c.71,2,5,13.31,17.3,18.56A31.58,31.58,0,0,0,411.77,378Z"/><path class="cls-5" d="M411.77,378a31.58,31.58,0,0,1-22.76-.52c-12.28-5.25-16.59-16.6-17.3-18.56a41.86,41.86,0,0,1-17.7,5.42c-20.67,1.47-35-13.58-37.3-16a45,45,0,0,1-46.89-7.09,21.08,21.08,0,0,1-7.7,9.16c-8.51,5.47-21.12,3.93-31.68-4a31.74,31.74,0,0,1-53.4,1.12c.42-.45.86-.9,1.31-1.32a18.83,18.83,0,0,1,4.16-11.89A19,19,0,0,1,195,327.66a23.51,23.51,0,0,1,38.75-25.43,25.38,25.38,0,0,1,19.17-20.62c11.09-2.48,22.86,3.23,28.13,13.95.84-1,6.91-8.28,16.89-8.34a22.37,22.37,0,0,1,19.79,12.51,23.41,23.41,0,0,1,42.29,0,24.31,24.31,0,0,1,26.46,23.75c9.53-3.13,19.25,1.2,22.52,8.76,2.35,5.45,1.13,12.14-2.92,17.28a9.94,9.94,0,0,1,4,7.09,9.8,9.8,0,0,1-2.71,7.29A14.14,14.14,0,0,1,411.77,378Z"/><g class="cls-7"><path class="cls-8" d="M178.35,346.2a18.83,18.83,0,0,1,4.16-11.89A19,19,0,0,1,195,327.66a23.51,23.51,0,0,1,38.75-25.43,25.38,25.38,0,0,1,19.17-20.62c11.09-2.48,22.86,3.23,28.13,13.95.84-1,6.91-8.28,16.89-8.34a22.37,22.37,0,0,1,19.79,12.51,23.41,23.41,0,0,1,42.29,0,24.31,24.31,0,0,1,26.46,23.75c9.53-3.13,19.25,1.2,22.52,8.76,2.35,5.45,1.13,12.14-2.92,17.28a9.94,9.94,0,0,1,4,7.09,10.66,10.66,0,0,1-2.71,7.29A14.51,14.51,0,0,1,411.77,378s-1.25-9.91-7.83-13.59a13,13,0,0,0-7.5-1.39c6.64-5.92,7.39-15.88,2.22-22.23a16.22,16.22,0,0,0-19.72-3.89,24.68,24.68,0,0,0-8.34-12.5c-8.38-6.57-18.11-5-19.72-4.72a17.23,17.23,0,0,0-31.4-4.17c-4.93-8.27-13.64-13.32-22.78-13.06-9.83.29-16.13,6.62-17.5,8.06-5.85-8.58-16-12.54-25-10-9.67,2.74-13.64,11.78-14.17,13.06-7.57-7.25-18.75-8.75-27.23-3.89a22.75,22.75,0,0,0-11.11,20,30.43,30.43,0,0,0-15.28,6.3A27.08,27.08,0,0,0,178.35,346.2Z"/></g><polygon class="cls-9" points="294.02 368.47 301.29 561.23 291.75 561.23 294.02 368.47"/><polygon class="cls-4" points="324.28 433.89 319.05 433.89 314.27 563.93 329.05 563.93 324.28 433.89"/><rect class="cls-4" x="289.12" y="446.8" width="32.26" height="4.96" transform="translate(388.97 985.96) rotate(-154.67)"/><rect class="cls-4" x="317.47" y="446.8" width="43.84" height="4.96" transform="translate(893.96 546.72) rotate(137.03)"/><rect class="cls-4" x="312.19" y="432.5" width="1.78" height="21.35" transform="translate(854.09 484.75) rotate(129.63)"/><path class="cls-5" d="M242.69,443.55a9.07,9.07,0,0,0,1.54,3.21,9.23,9.23,0,0,0,11.9,2.33A13.89,13.89,0,0,0,270,451.55a13.67,13.67,0,0,0,7.11-6.85c.52.35,4.84,3.2,9.87,1.51a11.47,11.47,0,0,0,7.52-10.4,7.17,7.17,0,0,0,4.93,1.78,6.89,6.89,0,0,0,4-1.51,9,9,0,0,0,11-5.2,9.86,9.86,0,0,0,8.48,5.2,10.34,10.34,0,0,0,8.08-4.1,13.15,13.15,0,0,0,11.91-1.65,5.62,5.62,0,0,0,4.1,3.15,5.35,5.35,0,0,0,5.34-2.74,7.59,7.59,0,0,0,2.47,5.07,7.68,7.68,0,0,0,5.34,1.91c.24.6,2.92,6.83,9.72,8.35a14.06,14.06,0,0,0,10.39-1.91,13.43,13.43,0,0,0,16.74-20.62,20.85,20.85,0,0,1-35.07-.74C354.87,428,346.58,429,341,425.4a13.86,13.86,0,0,1-5.07-6A29.63,29.63,0,0,1,322.11,426a30,30,0,0,1-17-1.91c-1.49,1.61-10.92,11.5-24.5,10.53A27.59,27.59,0,0,1,269,431a21.42,21.42,0,0,1-11.36,12.19A20.77,20.77,0,0,1,242.69,443.55Z"/><path class="cls-6" d="M242.69,443.55a9.07,9.07,0,0,0,1.54,3.21,9.23,9.23,0,0,0,11.9,2.33A13.89,13.89,0,0,0,270,451.55a13.67,13.67,0,0,0,7.11-6.85c.52.35,4.84,3.2,9.87,1.51a11.47,11.47,0,0,0,7.52-10.4,7.17,7.17,0,0,0,4.93,1.78,6.89,6.89,0,0,0,4-1.51,9,9,0,0,0,11-5.2,9.86,9.86,0,0,0,8.48,5.2,10.34,10.34,0,0,0,8.08-4.1,13.15,13.15,0,0,0,11.91-1.65,5.62,5.62,0,0,0,4.1,3.15,5.35,5.35,0,0,0,5.34-2.74,7.59,7.59,0,0,0,2.47,5.07,7.68,7.68,0,0,0,5.34,1.91c.24.6,2.92,6.83,9.72,8.35a14.06,14.06,0,0,0,10.39-1.91,13.43,13.43,0,0,0,16.74-20.62,20.85,20.85,0,0,1-35.07-.74C354.87,428,346.58,429,341,425.4a13.86,13.86,0,0,1-5.07-6A29.63,29.63,0,0,1,322.11,426a30,30,0,0,1-17-1.91c-1.49,1.61-10.92,11.5-24.5,10.53A27.59,27.59,0,0,1,269,431a21.42,21.42,0,0,1-11.36,12.19A20.77,20.77,0,0,1,242.69,443.55Z"/><path class="cls-5" d="M242.69,443.55a20.77,20.77,0,0,0,14.95-.35A21.42,21.42,0,0,0,269,431a27.59,27.59,0,0,0,11.63,3.56c13.58,1,23-8.92,24.5-10.53a30,30,0,0,0,17,1.91,29.63,29.63,0,0,0,13.82-6.57,13.86,13.86,0,0,0,5.07,6c5.58,3.59,13.87,2.58,20.81-2.6a20.85,20.85,0,0,0,35.07.74,11.77,11.77,0,0,0-.86-.87,12.27,12.27,0,0,0-2.73-7.81,12.47,12.47,0,0,0-8.21-4.37,15.45,15.45,0,0,0-25.46-16.71,16.37,16.37,0,0,0-31.08-4.38,15,15,0,0,0-11.09-5.48,14.7,14.7,0,0,0-13,8.22,15.39,15.39,0,0,0-27.78,0,16.54,16.54,0,0,0-12.47,4.38,16.36,16.36,0,0,0-4.91,11.22c-6.26-2.05-12.65.79-14.8,5.76a11.35,11.35,0,0,0,1.92,11.35,6.54,6.54,0,0,0-2.6,4.66,6.41,6.41,0,0,0,1.78,4.78A9.31,9.31,0,0,0,242.69,443.55Z"/><polygon class="cls-9" points="323.15 437.3 327.93 563.93 321.66 563.93 323.15 437.3"/><path class="cls-4" d="M313.44,563.49c-.8-4.78.94-9.17,3.57-10.36s4.84,1,5.15,1.3c-1.35-3.38-.62-7.43,1.4-9.29,2.36-2.18,6.13-1,7.73,3-1-7,1.5-13.37,4.91-15,4.24-2,10.86,2.69,12.1,12.19,2.54-2.23,5.66-2.5,7.81-.63,3,2.65,4,9.48,1.1,14.76a2.79,2.79,0,0,1,4.74-.24,5.65,5.65,0,0,1,.22,6.18Z"/><path class="cls-5" d="M313.45,565.37c-.77-3.65.94-8.29,3.51-9.21,2.41-.86,4.71.76,5,1a5.7,5.7,0,0,1,1.4-7.1,5.2,5.2,0,0,1,7.52,2.25c-.95-5.35,1.5-10.2,4.84-11.47,4.13-1.56,10.57,2,11.75,9.27,2.48-1.71,5.52-1.92,7.61-.5,3,2,3.9,7.22,1,11.25a3.16,3.16,0,0,1,4.62-.19,3.56,3.56,0,0,1,.2,4.72C345.11,564.94,329.28,565.79,313.45,565.37Z"/><path class="cls-4" d="M317,563.73c.9-3.59-.17-7-2.09-8.1s-3.75.48-4,.68c1.23-2.5.91-5.62-.51-7.16-1.67-1.8-4.6-1.17-6.07,1.8,1.18-5.29-.33-10.27-2.83-11.72-3.11-1.81-8.43,1.39-9.94,8.55-1.8-1.85-4.16-2.24-5.91-.95-2.47,1.83-3.64,7-1.73,11.17a2.15,2.15,0,0,0-3.6-.47c-1.07,1.15-1.32,6.39-.53,7.84C292.18,565.87,304.58,563.23,317,563.73Z"/><path class="cls-5" d="M317,565.37c.8-2.73-.3-6.58-2.2-7.43a4.43,4.43,0,0,0-3.87.44,4.36,4.36,0,0,0-.64-5.49,4,4,0,0,0-5.86,1.26c1-4-.53-7.86-3-9-3.06-1.44-8.18.9-9.51,6.35a5.2,5.2,0,0,0-5.76-.84c-2.37,1.35-3.41,5.26-1.47,8.5a2.41,2.41,0,0,0-3.5-.42c-1,.86-1.23,5.52-.43,6.65Z"/><g class="cls-7"><path class="cls-8" d="M396.05,422.68A12.09,12.09,0,0,0,385.1,410.5a15.45,15.45,0,0,0-25.47-16.71,16.37,16.37,0,0,0-31.09-4.38,15,15,0,0,0-11.09-5.49,14.71,14.71,0,0,0-13,8.22,15.39,15.39,0,0,0-27.79,0,16.58,16.58,0,0,0-12.47,4.38,16.38,16.38,0,0,0-4.92,11.23c-6.26-2.05-12.65.79-14.8,5.76a11.37,11.37,0,0,0,1.92,11.36,6.51,6.51,0,0,0-2.6,4.65,7,7,0,0,0,1.78,4.79,9.52,9.52,0,0,0-2.9,9.26s.82-6.52,5.14-8.93a8.46,8.46,0,0,1,4.93-.92,10.38,10.38,0,0,1,11.5-17.16,16.23,16.23,0,0,1,5.48-8.21,16.77,16.77,0,0,1,13-3.11,11.32,11.32,0,0,1,20.63-2.74,16.38,16.38,0,0,1,26.48-3.28c3.84-5.65,10.53-8.25,16.43-6.58,6.35,1.8,9,7.75,9.31,8.58a15.17,15.17,0,0,1,17.89-2.55,15,15,0,0,1,7.31,13.14,20.13,20.13,0,0,1,10,4.14A17.8,17.8,0,0,1,396.05,422.68Z"/></g><path class="cls-8" d="M328.14,911.42H495.37a0,0,0,0,1,0,0v12.85a13.52,13.52,0,0,1-13.52,13.52H341.66a13.52,13.52,0,0,1-13.52-13.52V911.42A0,0,0,0,1,328.14,911.42Z"/><path class="cls-4" d="M495.37,911.42l-25-10.92H388a169.31,169.31,0,0,0-59.82,10.92H495.37Z"/><path class="cls-8" d="M422.18,686.94c0,.09,0,1.16.11,3.07,1,26,8.24,207.42,8.24,207.42h-64.6"/><path class="cls-10" d="M422.29,690,407.44,897.43s21.57,3.36,23.09,0S422.29,690,422.29,690Z"/><path class="cls-8" d="M490.73,903.49,433.17,702.23s15.81,90.08,5.71,131.83-22.41,67.23-22.41,67.23Z"/><rect class="cls-8" x="398.23" y="891.65" width="4.86" height="11.84"/><rect class="cls-8" x="447.97" y="897.57" width="5.63" height="8.39"/><path class="cls-11" d="M439.52,747.21c.73,4.9,36.67,155.85,36.67,155.85l-25.41-1.29Z"/><path class="cls-10" d="M495.37,911.42c-3.1,1.77-12.15,20.55-28.92,20.55H338a26.72,26.72,0,0,0,13.8,5.82H472.17a28.06,28.06,0,0,0,17.08-9.47A25,25,0,0,0,495.37,911.42Z"/><path class="cls-8" d="M883,221s-2.74-9-2-12.64-1.47-9.28-1.23-12a55.26,55.26,0,0,1,2.14-8.37s-2.16-.65-2.56-4.84-1.38-11.49,1-13.21a12.05,12.05,0,0,1,3.36-2l0-2.79s-1-.58-.66-3c.39-2.57.21-5.91,3.37-6.07A3.47,3.47,0,0,1,890,159s-.16,1.6.41,1.77.7,1.8,0,2.7-.7,4.44-.7,4.44a9.2,9.2,0,0,0,2.92.74c1.23,0,1.69,7.57,1.69,7.57l-.5,7.81s.86,11.86.86,13.59-3.51,24.13-3.51,24.13Z"/><path class="cls-11" d="M883,220.94s-2.75-8.94-2-12.64-1.48-9.27-1.23-12a54,54,0,0,1,2.13-8.37s-2.16-.66-2.56-4.84-1.38-11.49,1-13.22a12.36,12.36,0,0,1,3.37-2l0-2.79s-1-.57-.66-2.95c.38-2.58.2-5.91,3.36-6.08A3.49,3.49,0,0,1,890,159s-.17,1.61.41,1.77.69,1.81,0,2.71-.7,4.43-.7,4.43a9.1,9.1,0,0,0,2.91.74c1.23,0,1.69,7.58,1.69,7.58l-.5,7.8s.86,11.87.86,13.59-3.5,24.13-3.5,24.13Z"/><polygon class="cls-4" points="877.59 268.4 873.74 268.4 873.74 51.11 873.74 -9.87 877.59 -9.87 877.59 268.4"/><polygon class="cls-8" points="879.52 268.4 877.59 268.4 877.59 51.11 877.59 -9.87 879.52 -9.87 879.52 268.4"/><polygon class="cls-12" points="857.46 37.58 868.46 5.5 869.27 3.1 873.74 -9.87 873.74 41.02 857.46 37.58"/><polygon class="cls-8" points="858.44 14.76 869.73 1.77 857.46 37.58 842.36 35.93 856.04 25.1 858.44 14.76"/><polygon class="cls-9" points="830.49 29.35 847.61 23.42 858.44 14.76 856.04 25.1 842.36 35.93 830.49 29.35"/><rect class="cls-8" x="875.69" y="258.24" width="65.26" height="8.13"/><rect class="cls-4" x="866.83" y="266.37" width="82.99" height="4.06"/><rect class="cls-8" x="875.66" y="273.02" width="65.26" height="8.13"/><rect class="cls-8" x="856.34" y="270.43" width="103.97" height="8.13"/><rect class="cls-4" x="842.22" y="278.56" width="132.21" height="4.06"/><rect class="cls-8" x="834.08" y="282.62" width="148.5" height="8.13"/><rect class="cls-4" x="813.91" y="290.75" width="188.84" height="4.06"/><rect class="cls-8" x="810.26" y="294.81" width="196.14" height="8.13"/><rect class="cls-4" x="783.62" y="302.93" width="249.41" height="4.06"/><polygon class="cls-10" points="861.71 38.48 873.74 -9.87 873.74 41.02 861.71 38.48"/><rect class="cls-8" x="879.52" y="228.2" width="57.71" height="30.04"/><path class="cls-10" d="M886.26,159.59a.7.7,0,0,0-.63-.66c-.32,0-1.29.34-1.29.66s.38.18.69.18S886.26,159.91,886.26,159.59Z"/><path class="cls-10" d="M887.25,159.46a.7.7,0,0,1,.64-.65c.31,0,1.29.33,1.29.65s-.38.19-.7.19S887.25,159.78,887.25,159.46Z"/><path class="cls-10" d="M887.25,160.46c0,.1-.22.11-.49.11s-.44,0-.44-.1.17-.27.44-.27S887.25,160.36,887.25,160.46Z"/><path class="cls-10" d="M887.61,161.75c0,.08-.37.09-.82.09s-.73,0-.73-.08.28-.2.73-.2S887.61,161.68,887.61,161.75Z"/><path class="cls-4" d="M883.19,161.84s.2,1.56,1.15,1.93a7.43,7.43,0,0,0,3,0,7.62,7.62,0,0,1,2.56.41,6,6,0,0,1-3.37,1.37,6.17,6.17,0,0,1-2.71-.63s-.7-.3-.73-1.88A6.44,6.44,0,0,1,883.19,161.84Z"/><path class="cls-10" d="M880,172.06s0,2.14,1.47,2.14,4.35-.21,4.35-.21a16.6,16.6,0,0,0-4.22,1.36c-.39.26-1.07.84-1.56.63s-.55-1.62-.55-2.23A5.47,5.47,0,0,1,880,172.06Z"/><path class="cls-4" d="M888.21,184.21s3.23-1.15,3.31-2.22-1.32-6.18-.49-6a15.42,15.42,0,0,0,3.48-.15,15.13,15.13,0,0,1-.14,2.09c-.17,1.85-.22,5.29-.55,6.24S888.21,184.21,888.21,184.21Z"/><path class="cls-10" d="M886.26,220.82s-.9-4.76-.41-5.91-.94-3.2-.55-4.27,1.46-.33,2-1.72-1.93-1.65-2-2.47,1.26-2.46,2-3.85a8.74,8.74,0,0,0,.89-3s.48,6.32,0,7-.5,4.1.21,6.24-.81,8.28-.81,8.28Z"/><path class="cls-4" d="M894.31,187.93s-3.61,1.62-2.93,2.6,3.31,2.71,3.16,6.9-2.8,10.4-2.8,11.26-.36,12.87-.36,12.87l2.54-16.72s1.16-7,1-9.14S894.31,187.93,894.31,187.93Z"/><path class="cls-10" d="M886,187.3s-3.94,2.34-5.77-1.57c-1.12-2.4-.7-6.77-.7-6.77s1.52,6.37,3.46,6.62A4.7,4.7,0,0,1,886,187.3Z"/><path class="cls-10" d="M894.2,186.31s-4.45,1.18-6,3.48-3.75,4.6-3.87,7.39-1.69,8.7-1.15,9,2.9,2.46,2,2.62-2.31,2.66-.89,5.42.89,6.69.89,6.69l6.15.62s3.65-22.84,3.52-25S894.2,186.31,894.2,186.31Z"/><path class="cls-10" d="M883.48,159.6s.23-1.31.54-1.53.69-1.09,1.54-1.23a26.33,26.33,0,0,1,2.89-.1s-3.08-.47-3.6,0a4.25,4.25,0,0,0-1,1.33C883.74,158.31,883.48,159.6,883.48,159.6Z"/><path class="cls-8" d="M930.48,220.73s2.75-8.94,2-12.64,1.48-9.27,1.24-12a54.92,54.92,0,0,0-2.14-8.37s2.16-.66,2.56-4.84,3.43-11.08,1.05-12.8a16.44,16.44,0,0,0-5.41-2.39l0-2.79s1-.57.65-2.95c-.38-2.58-.2-5.91-3.36-6.08a3.48,3.48,0,0,0-3.65,2.92s.16,1.6-.41,1.76-.7,1.81,0,2.71.69,4.43.69,4.43a9.1,9.1,0,0,1-2.91.74c-1.23,0-1.69,7.58-1.69,7.58l.5,7.8s-.86,11.87-.86,13.6,3.51,24.13,3.51,24.13Z"/><path class="cls-11" d="M930.44,220.67s2.75-8.94,2-12.64,1.48-9.27,1.23-12a54,54,0,0,0-2.13-8.37s2.16-.66,2.56-4.84,3.43-11.08,1-12.81a16.55,16.55,0,0,0-5.42-2.38l0-2.79s1-.57.66-3c-.38-2.58-.21-5.91-3.37-6.08a3.47,3.47,0,0,0-3.65,2.91s.17,1.61-.41,1.77-.7,1.81,0,2.71.7,4.43.7,4.43a9.1,9.1,0,0,1-2.91.74c-1.24,0-1.69,7.58-1.69,7.58l.49,7.8s-.86,11.87-.86,13.59,3.51,24.13,3.51,24.13Z"/><path class="cls-10" d="M927.41,159.59a.7.7,0,0,1,.63-.66c.32,0,1.29.34,1.29.66s-.38.18-.69.18S927.41,159.91,927.41,159.59Z"/><path class="cls-10" d="M926.42,159.46a.7.7,0,0,0-.64-.65c-.31,0-1.29.33-1.29.65s.38.19.7.19S926.42,159.78,926.42,159.46Z"/><path class="cls-10" d="M926.42,160.46c0,.1.22.11.49.11s.44,0,.44-.1-.16-.27-.44-.27S926.42,160.36,926.42,160.46Z"/><path class="cls-10" d="M926.06,161.75c0,.08.37.09.82.09s.73,0,.73-.08-.28-.2-.73-.2S926.06,161.68,926.06,161.75Z"/><path class="cls-4" d="M930.48,161.84s-.2,1.56-1.15,1.93a7.43,7.43,0,0,1-3,0,7.62,7.62,0,0,0-2.56.41,6,6,0,0,0,3.37,1.37,6.17,6.17,0,0,0,2.71-.63s.7-.3.73-1.88A6.44,6.44,0,0,0,930.48,161.84Z"/><path class="cls-10" d="M936,171.46s-.44,2.13-1.88,2.13-4.35-.2-4.35-.2a16.5,16.5,0,0,1,4.23,1.35c.38.27,1.06.85,1.56.64s.54-1.62.54-2.24S936,171.46,936,171.46Z"/><path class="cls-10" d="M925.46,184.21s-3.23-1.15-3.31-2.22,1.32-6.18.5-6a15.48,15.48,0,0,1-3.49-.15,15.13,15.13,0,0,0,.14,2.09c.17,1.85.22,5.29.55,6.24S925.46,184.21,925.46,184.21Z"/><path class="cls-10" d="M927.41,220.82s.9-4.76.41-5.91.94-3.2.55-4.27-1.46-.33-2-1.72,1.93-1.65,2-2.47-1.26-2.46-2-3.85a8.74,8.74,0,0,1-.89-3s-.48,6.32,0,7,.5,4.1-.21,6.24.81,8.28.81,8.28Z"/><path class="cls-10" d="M919.36,187.93s3.61,1.62,2.94,2.6-3.32,2.71-3.17,6.9,2.8,10.4,2.8,11.26.37,12.87.37,12.87l-2.55-16.72s-1.16-7-1-9.14S919.36,187.93,919.36,187.93Z"/><path class="cls-10" d="M927.68,187.3s3.94,2.34,5.77-1.57c1.12-2.4.7-6.77.7-6.77s-1.52,6.37-3.46,6.62A4.7,4.7,0,0,0,927.68,187.3Z"/><path class="cls-10" d="M919.47,186.31s4.45,1.18,6,3.48,3.75,4.6,3.87,7.39,1.69,8.7,1.15,9-2.9,2.46-2,2.62,2.31,2.66.89,5.42-.89,6.69-.89,6.69l-6.14.62s-3.66-22.84-3.53-25S919.47,186.31,919.47,186.31Z"/><path class="cls-10" d="M930.19,159.6s-.23-1.31-.54-1.53-.69-1.09-1.54-1.23a26.33,26.33,0,0,0-2.89-.1s3.08-.47,3.6,0a4.25,4.25,0,0,1,1,1.33C929.93,158.31,930.19,159.6,930.19,159.6Z"/><path class="cls-8" d="M919.85,222.16s2.94-9.57,2.15-13.52,1.58-9.92,1.32-12.82a59.27,59.27,0,0,0-2.28-8.95s2.31-.71,2.73-5.18,1.48-12.3-1.07-14.14a13.23,13.23,0,0,0-3.6-2.11l0-3s1.08-.62.7-3.16c-.41-2.76-.22-6.32-3.6-6.5a3.72,3.72,0,0,0-3.91,3.11s.18,1.72-.43,1.9-.75,1.93,0,2.89.74,4.74.74,4.74a9.78,9.78,0,0,1-3.12.79c-1.31,0-1.8,8.11-1.8,8.11l.53,8.35s-.92,12.69-.92,14.53S911.09,223,911.09,223Z"/><path class="cls-13" d="M919.85,222.16s2.94-9.57,2.15-13.52,1.58-9.92,1.32-12.82a59.27,59.27,0,0,0-2.28-8.95s2.31-.71,2.73-5.18,1.48-12.3-1.07-14.14a13.23,13.23,0,0,0-3.6-2.11l0-3s1.08-.62.7-3.16c-.41-2.76-.22-6.32-3.6-6.5a3.72,3.72,0,0,0-3.91,3.11s.18,1.72-.43,1.9-.75,1.93,0,2.89.74,4.74.74,4.74a9.78,9.78,0,0,1-3.12.79c-1.31,0-1.8,8.11-1.8,8.11l.53,8.35s-.92,12.69-.92,14.53S911.09,223,911.09,223Z"/><path class="cls-10" d="M916.56,156.75a.75.75,0,0,1,.68-.7c.34,0,1.38.36,1.38.7s-.41.2-.75.2S916.56,157.09,916.56,156.75Z"/><path class="cls-10" d="M915.5,156.62a.76.76,0,0,0-.68-.71c-.34,0-1.38.37-1.38.71s.41.19.75.19S915.5,157,915.5,156.62Z"/><path class="cls-10" d="M915.5,157.68c0,.11.24.13.53.13s.47,0,.47-.11-.18-.29-.47-.29S915.5,157.57,915.5,157.68Z"/><path class="cls-10" d="M915.12,159.07c0,.08.39.09.88.09s.78,0,.78-.08-.3-.22-.78-.22S915.12,159,915.12,159.07Z"/><path class="cls-10" d="M919.85,159.16s-.22,1.67-1.23,2.07a8.08,8.08,0,0,1-3.23,0,8.2,8.2,0,0,0-2.74.45,6.42,6.42,0,0,0,3.6,1.46,6.57,6.57,0,0,0,2.9-.67s.75-.33.78-2A6.42,6.42,0,0,0,919.85,159.16Z"/><path class="cls-10" d="M923.23,170.1s0,2.28-1.58,2.28-4.65-.22-4.65-.22a17.86,17.86,0,0,1,4.52,1.45c.41.28,1.14.9,1.67.68s.58-1.74.58-2.39A5.85,5.85,0,0,0,923.23,170.1Z"/><path class="cls-4" d="M914.47,183.09s-3.44-1.23-3.53-2.37,1.4-6.62.53-6.38a16.89,16.89,0,0,1-3.73-.16,14.32,14.32,0,0,0,.15,2.24c.18,2,.23,5.65.59,6.67S914.47,183.09,914.47,183.09Z"/><path class="cls-4" d="M916.56,222.25s1-5.1.44-6.33,1-3.42.59-4.56-1.56-.35-2.09-1.84,2.07-1.76,2.09-2.64-1.35-2.63-2.16-4.12a9.54,9.54,0,0,1-1-3.16s-.5,6.76,0,7.46.54,4.39-.22,6.67.87,8.87.87,8.87Z"/><path class="cls-4" d="M908,187.07s3.86,1.73,3.14,2.78-3.55,2.9-3.38,7.37,3,11.13,3,12.05.39,13.77.39,13.77l-2.72-17.88s-1.24-7.53-1-9.78S908,187.07,908,187.07Z"/><path class="cls-10" d="M916.85,186.4s4.22,2.5,6.17-1.68c1.2-2.57.75-7.25.75-7.25s-1.62,6.82-3.7,7.09A5,5,0,0,0,916.85,186.4Z"/><path class="cls-10" d="M919.54,156.76s-.25-1.4-.58-1.63-.74-1.17-1.64-1.31a26.63,26.63,0,0,0-3.1-.12s3.29-.5,3.85,0a4.45,4.45,0,0,1,1.11,1.42C919.26,155.38,919.54,156.76,919.54,156.76Z"/><path class="cls-8" d="M906.68,221.11s3.1-10.1,2.27-14.27,1.66-10.46,1.39-13.52-2.41-9.45-2.41-9.45,2.44-.74,2.88-5.46,1.56-13-1.12-14.92a14,14,0,0,0-3.8-2.22l.05-3.15s1.14-.65.74-3.33c-.43-2.91-.23-6.67-3.8-6.86a3.92,3.92,0,0,0-4.12,3.29s.18,1.81-.47,2-.78,2,0,3.06.79,5,.79,5-5.65,2.33-6.6,3.35c-2.56,2.76,1,4.55,1,4.55l1,10.29s-1,13.4-1,15.34,4,27.24,4,27.24Z"/><path class="cls-10" d="M903.2,152.1a.79.79,0,0,1,.72-.74c.36,0,1.46.38,1.46.74s-.43.21-.79.21S903.2,152.46,903.2,152.1Z"/><path class="cls-10" d="M902.09,152a.79.79,0,0,0-.72-.74c-.35,0-1.46.38-1.46.74s.43.21.79.21S902.09,152.31,902.09,152Z"/><path class="cls-10" d="M902.09,153.08c0,.12.25.13.56.13s.49,0,.49-.11-.19-.31-.49-.31S902.09,153,902.09,153.08Z"/><path class="cls-10" d="M901.68,154.54c0,.09.42.1.93.1s.83,0,.83-.09-.32-.22-.83-.22S901.68,154.46,901.68,154.54Z"/><path class="cls-10" d="M906.68,154.64s-.23,1.77-1.3,2.18-2.76,0-3.41,0a8.54,8.54,0,0,0-2.89.47,6.8,6.8,0,0,0,3.8,1.54,6.87,6.87,0,0,0,3.06-.71s.79-.34.82-2.12A7.16,7.16,0,0,0,906.68,154.64Z"/><path class="cls-10" d="M910.24,166.18s0,2.41-1.66,2.41-4.91-.23-4.91-.23,3.57.69,4.77,1.52c.43.31,1.2,1,1.76.72s.61-1.83.61-2.52A6.14,6.14,0,0,0,910.24,166.18Z"/><path class="cls-10" d="M901,179.89s-3.63-1.3-3.73-2.5,1.49-7,.56-6.74a17.44,17.44,0,0,1-3.93-.16,15.72,15.72,0,0,0,.16,2.36c.19,2.08.24,6,.62,7S901,179.89,901,179.89Z"/><path class="cls-10" d="M903.2,221.2s1-5.37.47-6.67,1.06-3.61.62-4.81-1.64-.37-2.2-1.95,2.18-1.85,2.2-2.78-3.61-3.21-2.43-8.14c.42-1.74-1.31-6.65-1.31-6.65s-.08,14.24.45,15,.57,4.63-.23,7,.91,9.35.91,9.35Z"/><path class="cls-10" d="M894.12,184.09s4.08,1.82,3.32,2.93-3.75,3.06-3.57,7.78S897,206.54,897,207.52s.42,14.52.42,14.52l-2.87-18.87s-1.31-7.94-1.09-10.31S894.12,184.09,894.12,184.09Z"/><path class="cls-10" d="M903.51,183.38S908,186,910,181.61c1.27-2.71.79-7.65.79-7.65s-1.71,7.2-3.9,7.48A5.27,5.27,0,0,0,903.51,183.38Z"/><path class="cls-10" d="M894.25,182.26s5,1.33,6.75,3.93,4.24,5.19,4.38,8.33,1.9,9.82,1.3,10.19-3.28,2.78-2.31,3,2.6,3,1,6.11-1,7.55-1,7.55l-6.93.7s-4.13-25.78-4-28.16S894.25,182.26,894.25,182.26Z"/><path class="cls-10" d="M906.35,152.11s-.26-1.48-.61-1.72S905,149.16,904,149a29.4,29.4,0,0,0-3.26-.12s3.47-.53,4.06,0a4.75,4.75,0,0,1,1.17,1.5C906.05,150.65,906.35,152.11,906.35,152.11Z"/><path class="cls-10" d="M891.94,169.11s2,.09,1.16,1,1.13,13.76-.52,14.88-3,2.09-3,2.09l4.65-.76s.52-15-.55-16.71S891.94,169.11,891.94,169.11Z"/><polygon class="cls-11" points="879.52 229.68 937.23 257.75 879.52 257.75 879.52 229.68"/><rect class="cls-8" x="879.52" y="220.32" width="54.63" height="7.88"/><polygon class="cls-13" points="879.52 220.32 934.19 228.2 879.52 228.2 879.52 220.32"/><path class="cls-4" d="M789.8,627.19v19s8.63,20.12,8.9,23.36-2.7,29.52-2.7,29.52h29.91V659.65l-21.8-30.87Z"/><g class="cls-7"><polygon class="cls-8" points="810.8 699.07 807.86 663.6 796 646.19 796 627.88 804.11 628.78 816.94 642.88 825.45 662.54 825.91 699.07 810.8 699.07"/></g><rect class="cls-8" x="675.28" y="491.87" width="139.55" height="6.31"/><rect class="cls-8" x="699.18" y="497.65" width="1.94" height="44.71"/><rect class="cls-8" x="792.06" y="494.22" width="1.94" height="44.71"/><rect class="cls-4" x="675.32" y="495.84" width="139.51" height="2.34"/><path class="cls-4" d="M838.23,587.45l-19.79,16.43-.47,11,.47,12.5,31.69,24.15,7.41,8.31-2.29,4-7.52,11.09v14.84L814.9,673.11,832,658.06l-29.75-14.42L788,624.86,737.3,641.28l-16.65-9.43L723.44,650l-4.75,21.77L729.26,690l-8.61,9.1-21-2.77s1.15-11.21.54-13.75S695,652.81,695,652.81L677.86,675l1.65,20.29-23.75-14.84L661.3,670l15.63-23.55,1.15-12.67-3.19-16.59,17.68-6,40,1.58s60.3,6.06,60.58,4.75,24.89-21.75,25.33-23.45S796,555.33,796,555.33l-1.89-19.9,13.29-5.81,19.76,21.81S882.55,570,882.29,570s27.31,15.44,27.51,16,12.83,12.43,12.83,12.43,33.66-2.81,33.46-4.62,16.69-14.62,16.69-14.62l6.3-10-2,15-1.58,4.55-14.25,12.66-4,3.17L933.55,611l-4.75,1.59-29.24-19.79-46.45-14.41-15,8.86"/><polygon class="cls-8" points="699.62 540.95 802.13 540.95 802.13 614.92 675.32 614.26 699.62 540.95"/><path class="cls-8" d="M700.41,689.73l-3.17-36.81s6.21-7.12,11.36-6.73,14.76,3.57,14.76,3.57l-4.75,21.77,4.75,8.31Z"/><polygon class="cls-8" points="674.89 617.17 689.72 646.19 697.24 640.25 723.37 646.19 720.99 626.01 708.32 620.86 701.4 623.63 674.89 617.17"/><polygon class="cls-8" points="692.49 655.69 681.41 672.71 679.43 683.8 663.99 679.05 661.22 669.75 676.86 646.19 684.97 643.41 692.49 655.69"/><polygon class="cls-8" points="700.06 696 699.62 703.98 732.47 703.98 737.22 698.05 725.74 686.17 718.42 693.3 700.06 696"/><polygon class="cls-8" points="679.43 686.17 679.43 698.84 661.22 692.5 649.74 686.17 655.68 680.23 679.43 686.17"/><path class="cls-8" d="M725.74,611c.4,1.19,11.48,16.23,11.48,16.23v13.86L759,643.41l28.89-16.22H801L816.38,611Z"/><polygon class="cls-8" points="818.18 621.45 804.11 628.78 802.13 643.41 819.95 652.92 829.84 659.65 841.72 654.9 847.65 648.17 818.18 621.45"/><path class="cls-8" d="M847.66,674.69s8.7-10.3,7.52-11.09-15.44-12.26-15.44-12.26L824.89,663.6s8.52,5.16,9.7,5.16S847.66,674.69,847.66,674.69Z"/><path class="cls-8" d="M847.66,695.08c.39-.2,0-14.85,0-14.85L818,669.55l-6.73,7.12,18.29,9.5Z"/><polygon class="cls-8" points="802.13 613.34 817.97 614.92 826.68 599.49 833.01 597.51 838.15 587.21 797.78 538.92 783.13 546.84 791.84 567.42 800.16 588.4 802.13 613.34"/><path class="cls-8" d="M674.89,617.17l-10.31-29.56C666.37,586,676.85,571,676.85,571l26.72-19.8L684,588.8l1.39,26.12Z"/><path class="cls-8" d="M860.72,586c1.18.39,24.93,6.73,24.93,6.73l8.71-6.73L911,589.39l-5.54-15.63-11.09-16.63-5.93-15.83-14.65-7.92-15-10.69-19-3.62-6.38,4.81-.4,15,19.4,12.27,7.87-1.93Z"/><path class="cls-8" d="M858.74,601.46s4-53,1.58-52.64-16.23-6.73-17.41-7.13-9.71-9.88-9.71-9.88l.21-7.93L814,518.34l-21,15L799,544.46l5.94-5.54-2.78,15,14.25,16.63,8.51-9.1v11.87l17.22,13.06,5.72,2.38,3,9.89Z"/><g class="cls-14"><path class="cls-4" d="M858.74,601.46s4-53,1.58-52.64-16.23-6.73-17.41-7.13-9.71-9.88-9.71-9.88l.21-7.93L814,518.34l-21,15L799,544.46l5.94-5.54-2.78,15,14.25,16.63,8.51-9.1v11.87l17.22,13.06,5.72,2.38,3,9.89Z"/></g><path class="cls-8" d="M903.65,587.91s2.59,15.14,20.4,25S972,628.78,972,628.78s-34.44,2.77-54.63-7.92-27.46-31.35-27.46-31.35l4.5-3.48Z"/><path class="cls-8" d="M911,589.39c2,1,19.91,6.14,19.91,6.14l22.84-6.14,13.06-8.11,9.1-14.65,6.73-3-5.54,20.62H972l3.56,4.55-14.25,12.66-4.36-4.75.4,7.92L933.55,611l-2.65-5.54-2.1,7.13L911,609.38l-9.11-16.62Z"/><rect class="cls-4" x="759.78" y="559.9" width="17.53" height="30.49"/><rect class="cls-4" x="701.54" y="563.63" width="13.71" height="26.76"/><g class="cls-15"><rect class="cls-4" x="682.29" y="598.46" width="116.41" height="7.36"/></g><g class="cls-16"><rect class="cls-4" x="682.29" y="593.84" width="116.41" height="6.05"/></g><rect class="cls-4" x="694.09" y="529.38" width="101.8" height="12.97"/><rect class="cls-4" x="670.02" y="537.24" width="29.6" height="10.24"/><polygon class="cls-4" points="784.08 564.11 753.01 564.11 768.54 546.07 784.08 564.11"/><polygon class="cls-4" points="722.69 565.09 694.09 565.09 708.39 547.97 722.69 565.09"/><g class="cls-17"><polygon class="cls-8" points="720.57 565.09 696.21 565.09 708.39 550.51 720.57 565.09"/></g><g class="cls-17"><polygon class="cls-8" points="781.9 564.11 755.18 564.11 768.54 548.12 781.9 564.11"/></g><path class="cls-4" d="M860.11,580.54l22.19,7.55,7.56-3.78,4.5,1.72s-.75,21.16,26.91,33.48S972,628.78,972,628.78s-33.48,6.33-57.42-9.52-23.29-26.5-23.29-26.5l-4.16-1.15-1.51,2.23L860.72,586Z"/><g class="cls-15"><path class="cls-4" d="M874.42,555.8c.59-.88,5.29-10.28,9.11-9.1s7.64,7.47,7.64,7.47l3,3.17s-6.17,5-9.87,2.77-4-5.1-5.82-5.1A18,18,0,0,0,874.42,555.8Z"/></g><path class="cls-4" d="M886.73,559.9c-.6-.5-4.2-2.77-4.6-5.94a25.32,25.32,0,0,1,0-6s-1,3.92-3.4,4.23.62.45,1.6,2.89S886.73,559.9,886.73,559.9Z"/><line class="cls-4" x1="796" y1="538.92" x2="814.83" y2="526.58"/><g class="cls-17"><path class="cls-4" d="M732.47,704,718.42,693.3l-10-22.28V649l-14.3-28.11s-14.85-13.05-14.66-13.3-8.65-27.94-8.65-27.94l-6.2,8,13.81,39.58-1.54,19-15.63,23.55-5.54,10.49-5.94,5.94,11.48,6.33,13.06-23,9.7-18.21,10.11-3.6,3.15,5.18V663.6l3.17,26.13-.8,14.25Z"/></g><g class="cls-17"><path class="cls-4" d="M806.58,627.19c.1-.07,9.66,13.23,9.8,13.07s26.49,19.39,26.49,19.39l-15.81,26.52-15.82-9.5,6.73-7.12,11.87-9.9-27.71-16.24L789.8,627.19Z"/></g><g class="cls-15"><polygon class="cls-4" points="728.35 614.92 763.85 620.86 816.38 602.14 818.44 594.08 835.67 584.25 838.15 587.21 833.01 597.51 826.68 599.49 817.97 614.92 800.95 627.19 787.88 627.19 758.99 643.41 737.22 641.05 728.35 614.92"/></g><g class="cls-15"><path class="cls-4" d="M812.62,614.92l1-34.38L793,557.8l-33.25-7.29-64.85,4.58s-2.12-14.48,1.28-16.17,97.79,0,97.79,0l14.21,3.44,29.95,44.85L833,597.51l-6.33,2L818,614.92Z"/></g><g class="cls-7"><polygon class="cls-4" points="905.69 593.84 910.99 605.82 921.13 611.18 928.8 612.55 930.9 605.42 933.55 610.96 957.3 604.63 956.9 596.71 961.26 601.46 975.51 588.8 971.95 584.25 977.09 584.25 982.63 563.63 971.95 580.54 964.45 586.03 949.03 596.87 924.35 599.89 905.69 593.84"/></g><g class="cls-18"><path class="cls-4" d="M877.84,541c.23.59-13.47-8.9-16.76-3.71s-5.79,3.74-5.79,3.74-10-8.9-16.67-11.6,1.17-10.31,1.17-10.31l19,3.62,15,10.69,14.65,7.92Z"/></g><g class="cls-15"><path class="cls-4" d="M887.08,591.61l-.35-26.52s2.64,13.2-4.44,14.13-21.2-4.07-21.2-4.07L860.72,586Z"/></g><path class="cls-4" d="M664.58,588.33l1.64,31.16s-6.77,29.13-6.6,28.88,10-30,10-30l-.43-17.57Z"/><path class="cls-4" d="M633.08,880.65c-2-11.6,2.29-22.27,8.67-25.15,6-2.72,11.75,2.45,12.5,3.16-3.28-8.23-1.49-18,3.41-22.58,5.74-5.3,14.88-2.55,18.78,7.24-2.41-17.06,3.64-32.47,11.94-36.46,10.29-5,26.37,6.54,29.37,29.61,6.17-5.41,13.75-6.07,19-1.52,7.36,6.42,9.8,23,2.69,35.84,3.06-4.46,8.3-4.65,11.51-.58,3.1,3.92,3.38,10.61.53,15Z"/><path class="cls-5" d="M633.09,885.22c-1.87-8.85,2.3-20.14,8.53-22.36,5.87-2.09,11.44,1.84,12.17,2.37-3.17-6.27-1.4-13.77,3.4-17.24,5.6-4.06,14.51-2,18.28,5.47-2.3-13,3.64-24.79,11.74-27.86,10-3.81,25.69,4.91,28.55,22.51,6-4.15,13.42-4.68,18.49-1.22,7.16,4.88,9.48,17.54,2.52,27.34a7.69,7.69,0,0,1,11.22-.48,8.64,8.64,0,0,1,.46,11.47C710,884.17,671.55,886.26,633.09,885.22Z"/><path class="cls-4" d="M666.62,882.11c1.69-6.77-.31-13.28-4-15.28-3.43-1.9-7.06.9-7.54,1.28,2.33-4.72,1.72-10.61-1-13.52-3.15-3.4-8.69-2.21-11.46,3.41,2.23-10-.63-19.39-5.35-22.14-5.86-3.41-15.91,2.64-18.77,16.15-3.39-3.49-7.85-4.24-11.15-1.79-4.66,3.46-6.88,13.17-3.27,21.08-1.6-2.78-4.69-3.14-6.79-.88s-2.49,12.06-1,14.79C619.78,886.15,643.2,881.17,666.62,882.11Z"/><path class="cls-5" d="M666.54,885.21c1.52-5.15-.56-12.42-4.14-14-3.38-1.52-6.86.55-7.32.83,2.17-3.56,1.47-8.08-1.2-10.36-3.13-2.66-8.49-1.86-11.08,2.38,2-7.59-1-14.84-5.64-17-5.77-2.73-15.43,1.7-17.94,12-3.37-2.74-7.73-3.39-10.89-1.59-4.46,2.56-6.43,9.94-2.77,16.06a4.55,4.55,0,0,0-6.61-.8c-1.93,1.62-2.31,10.43-.82,12.55Z"/><path class="cls-4" d="M628.23,345.17c-2-11.6,2.28-22.27,8.66-25.16,6-2.72,11.75,2.46,12.5,3.16-3.28-8.23-1.49-18.05,3.42-22.57,5.73-5.3,14.87-2.56,18.78,7.24-2.42-17.07,3.63-32.47,11.93-36.47,10.29-4.94,26.37,6.54,29.38,29.62,6.16-5.42,13.75-6.07,19-1.52,7.36,6.42,9.79,23,2.69,35.83,3.05-4.45,8.29-4.65,11.51-.58,3.1,3.92,3.38,10.62.52,15Z"/><path class="cls-5" d="M628.24,349.73c-1.87-8.85,2.29-20.13,8.52-22.35,5.87-2.1,11.44,1.83,12.17,2.37-3.17-6.27-1.39-13.77,3.4-17.24,5.61-4.06,14.51-2,18.29,5.47-2.31-13,3.64-24.79,11.74-27.86,10-3.81,25.68,4.91,28.54,22.51,6-4.15,13.42-4.68,18.49-1.22,7.16,4.88,9.49,17.54,2.52,27.34a7.68,7.68,0,0,1,11.22-.48,8.64,8.64,0,0,1,.47,11.46C705.14,348.69,666.69,350.77,628.24,349.73Z"/><path class="cls-4" d="M661.76,346.63c1.7-6.77-.31-13.28-4-15.29-3.43-1.89-7.07.9-7.55,1.28,2.33-4.71,1.73-10.6-1-13.51-3.15-3.41-8.68-2.21-11.45,3.4,2.23-10-.63-19.38-5.36-22.13-5.85-3.41-15.91,2.63-18.77,16.15-3.39-3.5-7.85-4.24-11.15-1.79-4.65,3.45-6.87,13.16-3.27,21.08-1.6-2.78-4.69-3.14-6.78-.89s-2.5,12.06-1,14.79C614.92,350.67,638.34,345.68,661.76,346.63Z"/><path class="cls-5" d="M661.69,349.72c1.52-5.14-.57-12.41-4.15-14-3.37-1.51-6.85.56-7.31.84,2.17-3.56,1.47-8.08-1.21-10.36-3.12-2.67-8.49-1.86-11.07,2.38,2-7.6-1-14.84-5.64-17-5.77-2.72-15.43,1.71-17.95,12-3.37-2.74-7.72-3.4-10.88-1.59-4.47,2.55-6.44,9.93-2.77,16.06a4.57,4.57,0,0,0-6.62-.81c-1.92,1.63-2.31,10.43-.81,12.55Z"/></g></g><g id="Zoom_2" data-name="Zoom 2"><path class="cls-2" d="M146.58,616.3,124.5,601.44a34.23,34.23,0,0,0-18.19-5.8l-16.37-.41"/><path class="cls-2" d="M88.13,598.08l5.51,6.36a12.09,12.09,0,0,1,2.8,9.8l-.92,5.86"/><path class="cls-2" d="M94.39,585.29l11.85-11.82,23.4-42.54a16.43,16.43,0,0,0,1.2-13.12L128,509.38l-12.71,3.81s-2.55,20.08-20.83,8.88l-15.21,5.5"/><polyline class="cls-2" points="128.03 509.38 144.34 491.12 147.73 472.12"/><path class="cls-2" d="M99.5,482.78s-6.79,13-1.87,27.28l17.69,3.13"/><path class="cls-2" d="M1239,514.16s-26.14-17-20.42-57.78l13.11,6.6,12.91-.46"/><polyline class="cls-2" points="742.5 1007.13 745.24 1028.3 737.88 1057.51"/></g></svg>