<svg id="Calque_1" data-name="Calque 1" xmlns="http://www.w3.org/2000/svg" viewBox="0 0 343.13 343.13"><defs><style>.cls-1,.cls-3{fill:#282246;}.cls-2{fill:#74bf96;}.cls-3{opacity:0.7;}.cls-4{opacity:0.5;}.cls-5{fill:#f0e4d8;}.cls-6{fill:#ed6464;}</style></defs><polygon class="cls-1" points="175.46 130.04 183.43 130.04 190.7 327.99 168.19 327.99 175.46 130.04"/><rect class="cls-1" x="179.88" y="149.7" width="49.1" height="7.54" transform="translate(-46 102.2) rotate(-25.33)"/><rect class="cls-1" x="119.09" y="149.7" width="66.74" height="7.54" transform="translate(145.5 -62.74) rotate(42.97)"/><rect class="cls-1" x="191.16" y="127.93" width="2.71" height="32.51" transform="translate(180.76 -96.05) rotate(50.37)"/><path class="cls-2" d="M299.66,144.74a13.63,13.63,0,0,1-2.34,4.89,14,14,0,0,1-18.12,3.54,21.13,21.13,0,0,1-21.05,3.75,20.83,20.83,0,0,1-10.83-10.42c-.78.53-7.36,4.87-15,2.29A17.42,17.42,0,0,1,220.86,133a10.9,10.9,0,0,1-7.51,2.71,10.45,10.45,0,0,1-6-2.29,13.71,13.71,0,0,1-16.69-7.92,15,15,0,0,1-12.9,7.92c-7.54.09-11.9-5.71-12.3-6.25a20.43,20.43,0,0,1-8.55,1,20.18,20.18,0,0,1-9.57-3.55c-.11.24-2,4.22-6.26,4.8a8.14,8.14,0,0,1-8.12-4.18A11.41,11.41,0,0,1,121,135.87c-.36.91-4.45,10.4-14.79,12.71a21.38,21.38,0,0,1-15.83-2.91,20.44,20.44,0,0,1-25.48-31.39,31.74,31.74,0,0,0,53.4-1.13c10.55,7.89,23.17,9.44,31.67,4a21.15,21.15,0,0,0,7.71-9.16A45,45,0,0,0,204.61,115c2.27,2.46,16.63,17.51,37.29,16a42,42,0,0,0,17.71-5.41c.7,2,5,13.3,17.3,18.55A31.51,31.51,0,0,0,299.66,144.74Z"/><path class="cls-3" d="M299.66,144.74a13.63,13.63,0,0,1-2.34,4.89,14,14,0,0,1-18.12,3.54,21.13,21.13,0,0,1-21.05,3.75,20.83,20.83,0,0,1-10.83-10.42c-.78.53-7.36,4.87-15,2.29A17.42,17.42,0,0,1,220.86,133a10.9,10.9,0,0,1-7.51,2.71,10.45,10.45,0,0,1-6-2.29,13.71,13.71,0,0,1-16.69-7.92,15,15,0,0,1-12.9,7.92c-7.54.09-11.9-5.71-12.3-6.25a20.43,20.43,0,0,1-8.55,1,20.18,20.18,0,0,1-9.57-3.55c-.11.24-2,4.22-6.26,4.8a8.14,8.14,0,0,1-8.12-4.18A11.41,11.41,0,0,1,121,135.87c-.36.91-4.45,10.4-14.79,12.71a21.38,21.38,0,0,1-15.83-2.91,20.44,20.44,0,0,1-25.48-31.39,31.74,31.74,0,0,0,53.4-1.13c10.55,7.89,23.17,9.44,31.67,4a21.15,21.15,0,0,0,7.71-9.16A45,45,0,0,0,204.61,115c2.27,2.46,16.63,17.51,37.29,16a42,42,0,0,0,17.71-5.41c.7,2,5,13.3,17.3,18.55A31.51,31.51,0,0,0,299.66,144.74Z"/><path class="cls-2" d="M299.66,144.74a31.51,31.51,0,0,1-22.75-.53c-12.29-5.25-16.6-16.59-17.3-18.55a42,42,0,0,1-17.71,5.41c-20.66,1.48-35-13.57-37.29-16A45,45,0,0,1,157.72,108a21.15,21.15,0,0,1-7.71,9.16c-8.5,5.47-21.12,3.92-31.67-4a31.74,31.74,0,0,1-53.4,1.13c.42-.45.85-.91,1.31-1.33A18.38,18.38,0,0,1,82.91,94.42,23.51,23.51,0,0,1,121.66,69a25.4,25.4,0,0,1,19.18-20.63c11.08-2.47,22.86,3.24,28.13,14,.84-1,6.91-8.29,16.88-8.34a22.35,22.35,0,0,1,19.8,12.5,23.42,23.42,0,0,1,42.29,0A24.33,24.33,0,0,1,274.4,90.24c9.52-3.13,19.25,1.19,22.52,8.76,2.34,5.45,1.12,12.14-2.93,17.28a9.9,9.9,0,0,1,4,7.09,9.76,9.76,0,0,1-2.7,7.29A14.13,14.13,0,0,1,299.66,144.74Z"/><g class="cls-4"><path class="cls-5" d="M66.25,113A18.38,18.38,0,0,1,82.91,94.42,23.51,23.51,0,0,1,121.66,69a25.4,25.4,0,0,1,19.18-20.63c11.08-2.47,22.86,3.24,28.13,14,.84-1,6.91-8.29,16.88-8.34a22.35,22.35,0,0,1,19.8,12.5,23.42,23.42,0,0,1,42.29,0A24.33,24.33,0,0,1,274.4,90.24c9.52-3.13,19.25,1.19,22.52,8.76,2.34,5.45,1.12,12.14-2.93,17.28a9.9,9.9,0,0,1,4,7.09,10.63,10.63,0,0,1-2.7,7.29,14.46,14.46,0,0,1,4.41,14.08s-1.24-9.92-7.82-13.6a12.93,12.93,0,0,0-7.5-1.38c6.64-5.93,7.38-15.88,2.22-22.23a16.22,16.22,0,0,0-19.73-3.89,24.57,24.57,0,0,0-8.33-12.5c-8.39-6.58-18.11-5-19.73-4.72a17.22,17.22,0,0,0-31.39-4.17C202.44,74,193.73,68.92,184.6,69.19c-9.84.29-16.14,6.62-17.51,8.06-5.84-8.59-16-12.55-25-10C132.42,70,128.46,79,127.92,80.3c-7.56-7.25-18.75-8.74-27.23-3.89a22.77,22.77,0,0,0-11.11,20,30.48,30.48,0,0,0-15.28,6.29A27.14,27.14,0,0,0,66.25,113Z"/></g><polygon class="cls-6" points="181.91 135.22 189.18 327.99 179.64 327.99 181.91 135.22"/><polygon class="cls-1" points="212.17 200.64 206.94 200.64 202.16 330.68 216.95 330.68 212.17 200.64"/><rect class="cls-1" x="177.01" y="213.56" width="32.26" height="4.96" transform="translate(275.31 493.93) rotate(-154.67)"/><rect class="cls-1" x="205.36" y="213.56" width="43.84" height="4.96" transform="translate(540.85 219.21) rotate(137.03)"/><rect class="cls-1" x="200.08" y="199.26" width="1.78" height="21.35" transform="translate(490.85 189.07) rotate(129.63)"/><path class="cls-2" d="M130.59,210.3a8.82,8.82,0,0,0,1.54,3.21,9.2,9.2,0,0,0,11.9,2.33,13.85,13.85,0,0,0,13.82,2.46,13.7,13.7,0,0,0,7.12-6.84,11.67,11.67,0,0,0,9.86,1.5,11.45,11.45,0,0,0,7.52-10.39,7.2,7.2,0,0,0,4.93,1.77,6.91,6.91,0,0,0,4-1.5,9,9,0,0,0,11-5.21,9.86,9.86,0,0,0,8.47,5.21,10.37,10.37,0,0,0,8.09-4.11,13.16,13.16,0,0,0,11.9-1.64,5.67,5.67,0,0,0,4.11,3.15,5.35,5.35,0,0,0,5.33-2.75,7.51,7.51,0,0,0,7.81,7c.24.59,2.93,6.82,9.72,8.34a14,14,0,0,0,10.4-1.91,13.43,13.43,0,0,0,16.74-20.62,20.86,20.86,0,0,1-35.08-.74c-6.94,5.18-15.22,6.2-20.81,2.6a13.87,13.87,0,0,1-5.06-6,29.56,29.56,0,0,1-30.8,4.65c-1.5,1.62-10.93,11.5-24.5,10.53a27.56,27.56,0,0,1-11.63-3.55A21.49,21.49,0,0,1,145.53,210,20.68,20.68,0,0,1,130.59,210.3Z"/><path class="cls-3" d="M130.59,210.3a8.82,8.82,0,0,0,1.54,3.21,9.2,9.2,0,0,0,11.9,2.33,13.85,13.85,0,0,0,13.82,2.46,13.7,13.7,0,0,0,7.12-6.84,11.67,11.67,0,0,0,9.86,1.5,11.45,11.45,0,0,0,7.52-10.39,7.2,7.2,0,0,0,4.93,1.77,6.91,6.91,0,0,0,4-1.5,9,9,0,0,0,11-5.21,9.86,9.86,0,0,0,8.47,5.21,10.37,10.37,0,0,0,8.09-4.11,13.16,13.16,0,0,0,11.9-1.64,5.67,5.67,0,0,0,4.11,3.15,5.35,5.35,0,0,0,5.33-2.75,7.51,7.51,0,0,0,7.81,7c.24.59,2.93,6.82,9.72,8.34a14,14,0,0,0,10.4-1.91,13.43,13.43,0,0,0,16.74-20.62,20.86,20.86,0,0,1-35.08-.74c-6.94,5.18-15.22,6.2-20.81,2.6a13.87,13.87,0,0,1-5.06-6,29.56,29.56,0,0,1-30.8,4.65c-1.5,1.62-10.93,11.5-24.5,10.53a27.56,27.56,0,0,1-11.63-3.55A21.49,21.49,0,0,1,145.53,210,20.68,20.68,0,0,1,130.59,210.3Z"/><path class="cls-2" d="M130.59,210.3a20.68,20.68,0,0,0,14.94-.34,21.49,21.49,0,0,0,11.37-12.19,27.56,27.56,0,0,0,11.63,3.55c13.57,1,23-8.91,24.5-10.53a29.56,29.56,0,0,0,30.8-4.65,13.87,13.87,0,0,0,5.06,6c5.59,3.6,13.87,2.58,20.81-2.6a20.86,20.86,0,0,0,35.08.74c-.28-.3-.56-.59-.86-.87A12.09,12.09,0,0,0,273,177.24a15.44,15.44,0,0,0-25.45-16.7,16.37,16.37,0,0,0-31.08-4.38,15,15,0,0,0-11.09-5.48,14.65,14.65,0,0,0-13,8.21,15.39,15.39,0,0,0-27.79,0,16,16,0,0,0-17.38,15.61c-6.26-2.06-12.64.78-14.79,5.75a11.37,11.37,0,0,0,1.92,11.36,6.47,6.47,0,0,0-2.6,4.65,6.38,6.38,0,0,0,1.78,4.79A9.27,9.27,0,0,0,130.59,210.3Z"/><polygon class="cls-6" points="211.05 204.05 215.82 330.68 209.56 330.68 211.05 204.05"/><path class="cls-1" d="M201.34,330.24c-.81-4.77.94-9.16,3.57-10.35,2.47-1.12,4.83,1,5.14,1.3-1.35-3.39-.61-7.43,1.41-9.3,2.36-2.18,6.12-1.05,7.73,3-1-7,1.49-13.37,4.91-15,4.24-2,10.86,2.69,12.09,12.19,2.54-2.23,5.66-2.5,7.81-.63,3,2.64,4,9.48,1.11,14.75a2.8,2.8,0,0,1,4.74-.24,5.65,5.65,0,0,1,.21,6.18Z"/><path class="cls-2" d="M201.34,332.12c-.77-3.64.95-8.29,3.51-9.2s4.71.76,5,1a5.71,5.71,0,0,1,1.4-7.09,5.21,5.21,0,0,1,7.53,2.25c-.95-5.36,1.5-10.21,4.83-11.47,4.14-1.57,10.58,2,11.75,9.27,2.48-1.71,5.53-1.93,7.61-.51,3,2,3.91,7.23,1,11.26a3.17,3.17,0,0,1,4.62-.2,3.56,3.56,0,0,1,.19,4.72C233,331.69,217.17,332.55,201.34,332.12Z"/><path class="cls-1" d="M204.88,330.48c.9-3.59-.16-7-2.09-8.1s-3.74.48-4,.68c1.23-2.49.91-5.62-.51-7.16-1.67-1.8-4.6-1.17-6.07,1.81,1.18-5.29-.34-10.27-2.84-11.73-3.1-1.8-8.43,1.4-9.94,8.56-1.8-1.85-4.16-2.25-5.91-1-2.46,1.83-3.64,7-1.73,11.16a2.13,2.13,0,0,0-3.59-.46c-1.07,1.15-1.32,6.38-.54,7.83C180.08,332.62,192.48,330,204.88,330.48Z"/><path class="cls-2" d="M204.85,332.12c.8-2.73-.3-6.57-2.2-7.43a4.41,4.41,0,0,0-3.87.45,4.37,4.37,0,0,0-.64-5.49,4,4,0,0,0-5.87,1.26c1-4-.52-7.86-3-9-3.05-1.45-8.17.9-9.5,6.34a5.23,5.23,0,0,0-5.77-.84c-2.36,1.35-3.4,5.27-1.46,8.51a2.43,2.43,0,0,0-3.51-.43c-1,.86-1.22,5.53-.43,6.65Z"/><g class="cls-4"><path class="cls-5" d="M283.94,189.44a12.27,12.27,0,0,0-2.73-7.81,12.49,12.49,0,0,0-8.22-4.38,15.44,15.44,0,0,0-25.46-16.7,16.38,16.38,0,0,0-31.09-4.39,15,15,0,0,0-11.1-5.48,14.69,14.69,0,0,0-13,8.22,15.39,15.39,0,0,0-27.79,0,16,16,0,0,0-17.39,15.61c-6.26-2.06-12.65.79-14.8,5.75a11.37,11.37,0,0,0,1.92,11.36,6.5,6.5,0,0,0-2.6,4.66,7,7,0,0,0,1.78,4.79,9.54,9.54,0,0,0-2.91,9.26s.82-6.52,5.14-8.94a8.54,8.54,0,0,1,4.93-.91,10.38,10.38,0,0,1,11.51-17.16,16.09,16.09,0,0,1,5.47-8.22,16.82,16.82,0,0,1,13-3.1,11.31,11.31,0,0,1,20.63-2.74A16.38,16.38,0,0,1,217.67,166c3.84-5.64,10.53-8.24,16.43-6.57,6.36,1.8,9,7.74,9.32,8.58a15.16,15.16,0,0,1,17.89-2.56,15,15,0,0,1,7.3,13.15,20,20,0,0,1,10,4.14A17.72,17.72,0,0,1,283.94,189.44Z"/></g></svg>