<svg id="Calque_1" data-name="Calque 1" xmlns="http://www.w3.org/2000/svg" viewBox="0 0 343.13 343.13"><defs><style>.cls-1,.cls-6{fill:#282246;}.cls-2{fill:#ed6464;}.cls-3{fill:#74bf96;}.cls-4,.cls-6{opacity:0.5;}.cls-5{fill:#f0e4d8;}</style></defs><polygon class="cls-1" points="180.84 172.67 175.2 172.67 170.06 312.75 185.98 312.75 180.84 172.67"/><polygon class="cls-2" points="179.63 176.34 184.77 312.75 178.02 312.75 179.63 176.34"/><path class="cls-3" d="M98.38,150.48a13,13,0,0,1-4.13-22.7c-9.24-3.35-15.46-10.68-15.13-17.2.43-8.65,12.5-18.33,28.2-15.13a34.81,34.81,0,0,1,24.77-8.94c15.52.83,24.26,12.16,25.45,13.76.65-.45,9.29-6.13,19.26-2.07s12.24,14.4,12.38,15.14c-1.83,6.83-6.72,21-20,31.64C150.58,160,123.06,162,98.38,150.48Z"/><g class="cls-4"><path class="cls-5" d="M94.25,127.78c-9.24-3.35-15.46-10.68-15.13-17.2.43-8.65,12.5-18.33,28.2-15.13a34.81,34.81,0,0,1,24.77-8.94c15.52.83,24.26,12.16,25.45,13.76.65-.45,9.29-6.13,19.26-2.07s12.24,14.4,12.38,15.14c-26.56-15.48-17.62-15.47-22.86-13.15-6.6,2.92-11.35,8.13-13.3,10.25-4.39-11.09-15.11-17.56-25.23-16-10.6,1.59-15.89,11.23-16.51,12.39-5.14-6.39-13.24-6-19.88,1.16C87,112.68,90.28,123,94.25,127.78Z"/></g><path class="cls-3" d="M270.54,148.7c1.69-1,12.88-8,14-19.93,1.2-12.7-9.5-26-26.38-29.89a36.61,36.61,0,0,0-33.79-18.39c-18.65,1-28.17,15.75-28.86,16.86a25.2,25.2,0,0,0-28,0,21.17,21.17,0,0,0-6.6,27.59c0,1.34.39,33.13,25.56,46,19,9.71,39.94,2.38,51.1-1.53A87.88,87.88,0,0,0,270.54,148.7Z"/><path class="cls-3" d="M165.63,182.08a103.82,103.82,0,0,1-24.75-6.52c-9.68,5.68-21.46,4.59-28.88-2.27a23,23,0,0,1-6.34-22.52c3.15-11.57,16.51-20,32-18.14,1.46-1.84,13.84-16.92,33.79-16.47,16.95.38,49.38,14.05,38.79,28.81,14-19.52,58.34-9.28,35.79,25.57C244,173.69,193.39,185.78,165.63,182.08Z"/><g class="cls-4"><path class="cls-5" d="M106.06,150.07c3.13-10.43,15.82-17.89,32-18.14,1.45-1.83,13.83-16.91,33.79-16.46,16.94.37,32.42,11.79,38.78,28.8,9.33-12.89,26.94-13.69,35.55-5.07,7.12,7.13,8,20.57.25,30.65-.13-1.32-1.36-11.9-10.17-17.17s-21.2-3.06-29.35,6c-5.11-15.74-18.75-26.37-33.48-26.6-15.12-.24-25,10.58-26.6,12.38-11.89-2.75-24.18-3.48-30.26,3.21Z"/></g><path class="cls-6" d="M245.32,170.67c-7.4,5.61-52.59,15.24-80.35,11.53a103.37,103.37,0,0,1-24.75-6.51c-9.5,5.84-21.43,4.75-28.88-2.27-9.32-8.79-6.47-22-6.34-22.52.22.63,5,13.42,18.47,16.13,12.61,2.54,21.59-6,22.31-6.72a68.06,68.06,0,0,0,23.55,13.14C187,179,203.76,176,216.6,171.21,230.57,166,245.32,170.67,245.32,170.67Z"/><g class="cls-4"><path class="cls-5" d="M285,128.58a28.15,28.15,0,0,0-6.42-17.66c-7.28-9.09-17.89-11.6-20.37-12a36.56,36.56,0,0,0-33.72-18.39c-19.59,1-28.93,16.86-29,16.79-6.77-5.23-18.71-6.23-28.19,0-1.21,1-2.4,3.42-4.61,4.73,7.42-4.39,11.86-5.82,20.13-5.3s16.2,5.19,19,7.94c0,0,7.44-11,18.79-13.8,12.84-3.15,27.38,2.47,36.06,14.27A38.84,38.84,0,0,1,274.18,112C284.64,119.33,285,128.58,285,128.58Z"/></g></svg>