<svg id="Calque_1" data-name="Calque 1" xmlns="http://www.w3.org/2000/svg" viewBox="0 0 343.13 343.13"><defs><style>.cls-1,.cls-3{fill:#282246;}.cls-2{fill:#74bf96;}.cls-3{opacity:0.7;}.cls-4{fill:#ed6464;}.cls-5{opacity:0.5;}.cls-6{fill:#f0e4d8;}</style></defs><polygon class="cls-1" points="187.61 128.92 180.22 128.92 173.46 312.75 194.36 312.75 187.61 128.92"/><rect class="cls-1" x="137.91" y="147.18" width="45.6" height="7.01" transform="translate(241.51 355.63) rotate(-154.67)"/><rect class="cls-1" x="177.99" y="147.18" width="61.98" height="7.01" transform="matrix(-0.73, 0.68, -0.68, -0.73, 464.6, 118.5)"/><rect class="cls-1" x="170.52" y="126.96" width="2.52" height="30.19" transform="translate(390.75 100.37) rotate(129.63)"/><path class="cls-2" d="M72.27,142.57a12.62,12.62,0,0,0,2.18,4.54,13,13,0,0,0,16.83,3.29,19.58,19.58,0,0,0,19.54,3.48,19.3,19.3,0,0,0,10.06-9.67c.73.49,6.84,4.52,13.94,2.13a16.21,16.21,0,0,0,10.64-14.7,10.13,10.13,0,0,0,7,2.51A9.68,9.68,0,0,0,158,132a12.7,12.7,0,0,0,15.49-7.36,14,14,0,0,0,12,7.36c7,.09,11.05-5.3,11.42-5.8a18.58,18.58,0,0,0,16.83-2.33,8,8,0,0,0,5.81,4.45,7.54,7.54,0,0,0,7.54-3.88,10.6,10.6,0,0,0,11,9.88c.34.84,4.14,9.65,13.74,11.79a19.76,19.76,0,0,0,14.7-2.7,19,19,0,0,0,23.66-29.15,29.47,29.47,0,0,1-49.58-1c-9.81,7.32-21.52,8.76-29.42,3.68a19.59,19.59,0,0,1-7.16-8.51A41.75,41.75,0,0,1,160.55,115c-2.11,2.28-15.45,16.26-34.64,14.89a38.89,38.89,0,0,1-16.44-5c-.66,1.82-4.66,12.36-16.07,17.23A29.29,29.29,0,0,1,72.27,142.57Z"/><path class="cls-3" d="M72.27,142.57a12.62,12.62,0,0,0,2.18,4.54,13,13,0,0,0,16.83,3.29,19.58,19.58,0,0,0,19.54,3.48,19.3,19.3,0,0,0,10.06-9.67c.73.49,6.84,4.52,13.94,2.13a16.21,16.21,0,0,0,10.64-14.7,10.13,10.13,0,0,0,7,2.51A9.68,9.68,0,0,0,158,132a12.7,12.7,0,0,0,15.49-7.36,14,14,0,0,0,12,7.36c7,.09,11.05-5.3,11.42-5.8a18.58,18.58,0,0,0,16.83-2.33,8,8,0,0,0,5.81,4.45,7.54,7.54,0,0,0,7.54-3.88,10.6,10.6,0,0,0,11,9.88c.34.84,4.14,9.65,13.74,11.79a19.76,19.76,0,0,0,14.7-2.7,19,19,0,0,0,23.66-29.15,29.47,29.47,0,0,1-49.58-1c-9.81,7.32-21.52,8.76-29.42,3.68a19.59,19.59,0,0,1-7.16-8.51A41.75,41.75,0,0,1,160.55,115c-2.11,2.28-15.45,16.26-34.64,14.89a38.89,38.89,0,0,1-16.44-5c-.66,1.82-4.66,12.36-16.07,17.23A29.29,29.29,0,0,1,72.27,142.57Z"/><path class="cls-2" d="M72.27,142.57a29.29,29.29,0,0,0,21.13-.49c11.41-4.87,15.41-15.41,16.07-17.23a38.89,38.89,0,0,0,16.44,5c19.19,1.37,32.53-12.61,34.64-14.89a41.75,41.75,0,0,0,43.54-6.58,19.59,19.59,0,0,0,7.16,8.51c7.9,5.08,19.61,3.64,29.42-3.68a29.47,29.47,0,0,0,49.58,1c-.38-.42-.79-.84-1.21-1.23a17.07,17.07,0,0,0-15.48-17.21,21.83,21.83,0,0,0-36-23.62,23.59,23.59,0,0,0-17.81-19.15c-10.29-2.3-21.23,3-26.13,13-.77-1-6.41-7.7-15.68-7.75A20.77,20.77,0,0,0,159.58,69.9a21.74,21.74,0,0,0-39.27,0A22.59,22.59,0,0,0,95.73,92c-8.84-2.91-17.87,1.11-20.91,8.13-2.18,5.06-1,11.27,2.72,16a9.19,9.19,0,0,0-3.68,6.58,9.09,9.09,0,0,0,2.51,6.77A13.14,13.14,0,0,0,72.27,142.57Z"/><polygon class="cls-4" points="186.02 133.74 192.77 312.75 183.91 312.75 186.02 133.74"/><g class="cls-5"><path class="cls-6" d="M289.08,113.08a17.08,17.08,0,0,0-15.49-17.23,21.84,21.84,0,0,0-36-23.62,23.56,23.56,0,0,0-17.81-19.16c-10.3-2.3-21.24,3-26.14,13-.77-1-6.41-7.7-15.68-7.75A20.76,20.76,0,0,0,159.57,69.9a21.76,21.76,0,0,0-39.29,0A22.59,22.59,0,0,0,95.7,92c-8.85-2.9-17.88,1.11-20.92,8.14-2.18,5.06-1,11.28,2.72,16.06a9.16,9.16,0,0,0-3.68,6.58,9.85,9.85,0,0,0,2.51,6.77,13.46,13.46,0,0,0-4.1,13.09s1.15-9.22,7.27-12.63a11.92,11.92,0,0,1,7-1.29C80.3,123.18,79.6,113.93,84.4,108a15.07,15.07,0,0,1,18.33-3.62,22.83,22.83,0,0,1,7.74-11.61c7.79-6.11,16.83-4.66,18.32-4.39A16,16,0,0,1,158,84.55a23.16,23.16,0,0,1,37.43-4.65c5.43-8,14.89-11.65,23.23-9.29,9,2.54,12.66,11,13.16,12.13,7-6.73,17.42-8.12,25.29-3.61A21.15,21.15,0,0,1,267.4,97.71a28.35,28.35,0,0,1,14.19,5.85A25.32,25.32,0,0,1,289.08,113.08Z"/></g></svg>