<svg id="Calque_1" data-name="Calque 1" xmlns="http://www.w3.org/2000/svg" viewBox="0 0 343.13 343.13"><defs><style>.cls-1{fill:#f0e4d8;}.cls-2,.cls-6{fill:#282246;}.cls-3,.cls-4,.cls-5{fill:none;stroke:#282246;stroke-miterlimit:10;}.cls-4{stroke-dasharray:2.96 2.96;}.cls-5{stroke-dasharray:2;}.cls-6{opacity:0.7;}</style></defs><path class="cls-1" d="M327.54,133.15h0a35.05,35.05,0,0,0-24.88,1.07c-34.59,14.9-133,57.32-169,73.37l-49.25,8.2L40.58,188.66,26.3,195.23l36.36,48.61L55,247.72l4,6.11,80.16-13.92L326.74,158l14-16.37a4.27,4.27,0,0,0-2.67-7Z"/><polygon class="cls-2" points="24.23 247.07 34.55 242.75 77.44 239.09 60.66 246.31 24.23 247.07"/><polygon class="cls-2" points="180.34 215.59 121.8 205.9 137.42 200.28 219.11 198.3 180.34 215.59"/><line class="cls-3" x1="115.85" y1="225.59" x2="117.22" y2="224.97"/><line class="cls-4" x1="119.91" y1="223.76" x2="285.62" y2="148.84"/><line class="cls-3" x1="286.97" y1="148.23" x2="288.33" y2="147.62"/><line class="cls-5" x1="312.27" y1="138.35" x2="325.37" y2="132.52"/><path class="cls-6" d="M57.66,246.37s7,2.19,8.78,1.88,72.84-14.34,72.84-14.34l182.5-81.4,19-10.9-14,16.37L139.19,239.91,59,253.83l-4-6.11Z"/></svg>