<svg id="Calque_1" data-name="Calque 1" xmlns="http://www.w3.org/2000/svg" viewBox="0 0 343.13 343.13"><defs><style>.cls-1{fill:#282246;}.cls-2{fill:#74bf96;}</style></defs><path class="cls-1" d="M155.15,198.79c-1.52-9,1.77-17.31,6.73-19.55,4.68-2.11,9.13,1.91,9.72,2.45-2.55-6.39-1.16-14,2.65-17.54,4.46-4.12,11.56-2,14.6,5.63-1.88-13.27,2.82-25.24,9.27-28.34,8-3.85,20.5,5.08,22.83,23,4.79-4.21,10.69-4.73,14.74-1.19,5.72,5,7.62,17.89,2.1,27.85,2.37-3.46,6.44-3.61,8.94-.45a10.66,10.66,0,0,1,.41,11.67Z"/><path class="cls-2" d="M155.16,202.34c-1.46-6.88,1.78-15.65,6.62-17.38,4.56-1.62,8.89,1.43,9.46,1.85-2.46-4.88-1.08-10.7,2.64-13.4,4.36-3.16,11.28-1.55,14.21,4.25-1.79-10.12,2.83-19.27,9.13-21.66,7.8-3,20,3.82,22.18,17.5,4.68-3.23,10.43-3.64,14.37-.95,5.56,3.79,7.37,13.63,2,21.25a6,6,0,0,1,8.72-.37,6.71,6.71,0,0,1,.36,8.91C214.93,201.53,185,203.15,155.16,202.34Z"/><path class="cls-1" d="M161.84,199.24c1.7-6.77-.31-13.28-4-15.29-3.43-1.89-7.07.91-7.54,1.29,2.32-4.72,1.72-10.61-1-13.52-3.14-3.41-8.68-2.21-11.45,3.4,2.23-10-.63-19.38-5.35-22.13-5.86-3.41-15.92,2.63-18.77,16.15-3.4-3.49-7.86-4.24-11.16-1.79-4.65,3.45-6.87,13.16-3.27,21.08-1.59-2.78-4.69-3.14-6.78-.88s-2.5,12-1,14.79C115,203.28,138.42,198.3,161.84,199.24Z"/><path class="cls-2" d="M161.77,202.34c1.52-5.15-.56-12.42-4.15-14-3.37-1.51-6.85.56-7.31.84,2.17-3.56,1.47-8.08-1.2-10.36-3.13-2.67-8.5-1.86-11.08,2.38,2-7.59-1-14.84-5.64-17-5.77-2.72-15.43,1.71-17.95,12-3.37-2.74-7.72-3.4-10.88-1.59-4.47,2.55-6.43,9.94-2.77,16.06a4.57,4.57,0,0,0-6.62-.81c-1.92,1.63-2.31,10.44-.81,12.56Z"/></svg>