<svg id="Calque_1" data-name="Calque 1" xmlns="http://www.w3.org/2000/svg" viewBox="0 0 343.13 343.13"><defs><style>.cls-1{fill:#f0e4d8;}.cls-2,.cls-3,.cls-6,.cls-7{fill:#282246;}.cls-2{opacity:0.2;}.cls-4{fill:#5b6c9a;}.cls-5{fill:#ed6464;}.cls-6{opacity:0.5;}.cls-7{opacity:0.1;}</style></defs><path class="cls-1" d="M149.31,241.28s-2.74-8.94-2-12.64-1.47-9.27-1.23-12a54.92,54.92,0,0,1,2.14-8.37s-2.16-.66-2.56-4.84-1.38-11.49,1-13.22a12.44,12.44,0,0,1,3.36-2l0-2.79s-1-.57-.66-2.95c.39-2.58.21-5.91,3.37-6.08a3.47,3.47,0,0,1,3.65,2.91s-.16,1.61.41,1.77.7,1.81,0,2.71-.7,4.43-.7,4.43A9.2,9.2,0,0,0,159,189c1.23,0,1.69,7.58,1.69,7.58l-.5,7.8S161,216.25,161,218s-3.51,24.13-3.51,24.13Z"/><path class="cls-2" d="M149.31,241.27s-2.75-9-2-12.64-1.48-9.28-1.23-12a54.27,54.27,0,0,1,2.13-8.38s-2.16-.65-2.56-4.84-1.38-11.49,1-13.21a12,12,0,0,1,3.37-2l0-2.79s-1-.58-.66-3c.38-2.57.2-5.91,3.36-6.07a3.48,3.48,0,0,1,3.66,2.91s-.17,1.6.41,1.77.69,1.8,0,2.71-.7,4.43-.7,4.43A9.1,9.1,0,0,0,159,189c1.23,0,1.69,7.57,1.69,7.57l-.5,7.81S161,216.24,161,218s-3.5,24.13-3.5,24.13Z"/><polygon class="cls-3" points="143.92 288.73 140.06 288.73 140.06 71.44 140.06 10.46 143.92 10.46 143.92 288.73"/><polygon class="cls-1" points="145.85 288.73 143.92 288.73 143.92 71.44 143.92 10.46 145.85 10.46 145.85 288.73"/><polygon class="cls-4" points="123.79 57.9 134.78 25.82 135.6 23.43 140.06 10.46 140.06 61.35 123.79 57.9"/><polygon class="cls-1" points="124.77 35.08 136.06 22.1 123.79 57.9 108.69 56.26 122.37 45.42 124.77 35.08"/><polygon class="cls-5" points="96.81 49.67 113.94 43.75 124.77 35.08 122.37 45.42 108.69 56.26 96.81 49.67"/><rect class="cls-1" x="142.02" y="278.57" width="65.26" height="8.13"/><rect class="cls-3" x="133.16" y="286.69" width="82.99" height="4.06"/><rect class="cls-1" x="141.99" y="293.34" width="65.26" height="8.13"/><rect class="cls-1" x="122.67" y="290.76" width="103.97" height="8.13"/><rect class="cls-3" x="108.55" y="298.88" width="132.21" height="4.06"/><rect class="cls-1" x="100.41" y="302.95" width="148.5" height="8.13"/><rect class="cls-3" x="80.24" y="311.07" width="188.84" height="4.06"/><rect class="cls-1" x="76.59" y="315.13" width="196.14" height="8.13"/><rect class="cls-3" x="49.95" y="323.26" width="249.41" height="4.06"/><polygon class="cls-6" points="128.04 58.8 140.06 10.46 140.06 61.35 128.04 58.8"/><rect class="cls-1" x="145.85" y="248.53" width="57.71" height="30.04"/><path class="cls-6" d="M152.6,179.91a.71.71,0,0,0-.64-.65c-.32,0-1.29.34-1.29.65s.38.19.69.19S152.6,180.23,152.6,179.91Z"/><path class="cls-6" d="M153.58,179.79a.71.71,0,0,1,.64-.66c.31,0,1.29.34,1.29.66s-.38.18-.7.18S153.58,180.1,153.58,179.79Z"/><path class="cls-6" d="M153.58,180.78c0,.11-.22.12-.49.12s-.44,0-.44-.1.17-.27.44-.27S153.58,180.68,153.58,180.78Z"/><path class="cls-6" d="M153.94,182.08c0,.07-.37.08-.82.08s-.73,0-.73-.07.28-.2.73-.2S153.94,182,153.94,182.08Z"/><path class="cls-3" d="M149.52,182.16s.2,1.57,1.15,1.94a7.41,7.41,0,0,0,3,0,7.79,7.79,0,0,1,2.56.42,6.07,6.07,0,0,1-3.37,1.37,6.17,6.17,0,0,1-2.71-.63s-.7-.31-.73-1.88A6.62,6.62,0,0,1,149.52,182.16Z"/><path class="cls-6" d="M146.36,192.39s0,2.13,1.47,2.13,4.35-.2,4.35-.2a16.47,16.47,0,0,0-4.22,1.35c-.39.27-1.07.85-1.56.64s-.55-1.62-.55-2.24A5.48,5.48,0,0,1,146.36,192.39Z"/><path class="cls-3" d="M154.54,204.54s3.23-1.15,3.31-2.22-1.32-6.19-.49-6a15,15,0,0,0,3.48-.14,15.18,15.18,0,0,1-.14,2.09c-.17,1.85-.22,5.28-.55,6.24S154.54,204.54,154.54,204.54Z"/><path class="cls-6" d="M152.6,241.14s-.91-4.76-.42-5.91-.94-3.2-.55-4.27,1.46-.32,2-1.72-1.93-1.64-2-2.46,1.26-2.46,2-3.86a8.66,8.66,0,0,0,.89-2.95s.48,6.32,0,7-.5,4.11.21,6.24-.81,8.29-.81,8.29Z"/><path class="cls-3" d="M160.64,208.26s-3.61,1.61-2.93,2.6,3.31,2.71,3.16,6.89-2.8,10.4-2.8,11.27-.36,12.86-.36,12.86l2.54-16.71s1.16-7,1-9.14S160.64,208.26,160.64,208.26Z"/><path class="cls-6" d="M152.32,207.63s-3.94,2.33-5.77-1.57c-1.12-2.4-.7-6.78-.7-6.78s1.52,6.38,3.46,6.63A4.66,4.66,0,0,1,152.32,207.63Z"/><path class="cls-6" d="M160.53,206.64s-4.45,1.18-6,3.48-3.75,4.59-3.87,7.38-1.69,8.7-1.15,9,2.9,2.46,2,2.63-2.31,2.65-.89,5.42.89,6.69.89,6.69l6.15.61s3.65-22.84,3.52-24.95S160.53,206.64,160.53,206.64Z"/><path class="cls-6" d="M149.81,179.92s.23-1.3.54-1.52.69-1.09,1.54-1.23a24.61,24.61,0,0,1,2.89-.11s-3.08-.47-3.6,0a4.14,4.14,0,0,0-1,1.33C150.07,178.63,149.81,179.92,149.81,179.92Z"/><path class="cls-1" d="M196.81,241.06s2.75-8.95,2-12.64,1.48-9.27,1.24-12a54.92,54.92,0,0,0-2.14-8.37s2.16-.66,2.56-4.85,3.43-11.07,1.05-12.8a16.54,16.54,0,0,0-5.41-2.38l0-2.79s1-.58.65-3c-.38-2.57-.2-5.91-3.36-6.07a3.47,3.47,0,0,0-3.65,2.91s.16,1.6-.41,1.77-.7,1.8,0,2.71.69,4.43.69,4.43a9.1,9.1,0,0,1-2.91.74c-1.23,0-1.69,7.57-1.69,7.57l.5,7.81s-.86,11.87-.86,13.59,3.51,24.13,3.51,24.13Z"/><path class="cls-2" d="M196.77,241s2.75-8.95,2-12.64,1.48-9.28,1.23-12a54.27,54.27,0,0,0-2.13-8.38s2.16-.65,2.56-4.84,3.43-11.08,1.05-12.8a16.55,16.55,0,0,0-5.42-2.38l0-2.79s1-.58.66-3c-.38-2.57-.21-5.91-3.37-6.07a3.47,3.47,0,0,0-3.65,2.91s.17,1.6-.41,1.77-.7,1.8,0,2.71.7,4.43.7,4.43a9.1,9.1,0,0,1-2.91.74c-1.24,0-1.69,7.57-1.69,7.57l.49,7.81s-.86,11.87-.86,13.59,3.51,24.13,3.51,24.13Z"/><path class="cls-6" d="M193.74,179.91a.7.7,0,0,1,.63-.65c.32,0,1.29.34,1.29.65s-.38.19-.69.19S193.74,180.23,193.74,179.91Z"/><path class="cls-6" d="M192.75,179.79a.71.71,0,0,0-.64-.66c-.31,0-1.29.34-1.29.66s.38.18.7.18S192.75,180.1,192.75,179.79Z"/><path class="cls-6" d="M192.75,180.78c0,.11.22.12.49.12s.44,0,.44-.1-.16-.27-.44-.27S192.75,180.68,192.75,180.78Z"/><path class="cls-6" d="M192.39,182.08c0,.07.37.08.82.08s.73,0,.73-.07-.28-.2-.73-.2S192.39,182,192.39,182.08Z"/><path class="cls-3" d="M196.81,182.16s-.2,1.57-1.15,1.94a7.41,7.41,0,0,1-3,0,7.79,7.79,0,0,0-2.56.42,6.07,6.07,0,0,0,3.37,1.37,6.17,6.17,0,0,0,2.71-.63s.7-.31.73-1.88A6.62,6.62,0,0,0,196.81,182.16Z"/><path class="cls-6" d="M202.33,191.79s-.44,2.13-1.88,2.13-4.35-.21-4.35-.21a16.64,16.64,0,0,1,4.23,1.36c.38.27,1.06.84,1.56.64s.54-1.63.54-2.24S202.33,191.79,202.33,191.79Z"/><path class="cls-6" d="M191.79,204.54s-3.23-1.15-3.31-2.22,1.32-6.19.5-6a15,15,0,0,1-3.49-.14,15.18,15.18,0,0,0,.14,2.09c.17,1.85.22,5.28.55,6.24S191.79,204.54,191.79,204.54Z"/><path class="cls-6" d="M193.74,241.14s.9-4.76.41-5.91.94-3.2.55-4.27-1.46-.32-1.95-1.72,1.93-1.64,1.95-2.46-1.26-2.46-2-3.86a8.66,8.66,0,0,1-.89-2.95s-.48,6.32,0,7,.5,4.11-.21,6.24.81,8.29.81,8.29Z"/><path class="cls-6" d="M185.69,208.26s3.61,1.61,2.94,2.6-3.32,2.71-3.17,6.89,2.8,10.4,2.8,11.27.37,12.86.37,12.86l-2.55-16.71s-1.16-7-1-9.14S185.69,208.26,185.69,208.26Z"/><path class="cls-6" d="M194,207.63s3.94,2.33,5.77-1.57c1.12-2.4.7-6.78.7-6.78s-1.52,6.38-3.46,6.63A4.66,4.66,0,0,0,194,207.63Z"/><path class="cls-6" d="M185.8,206.64s4.45,1.18,6,3.48,3.75,4.59,3.87,7.38,1.69,8.7,1.15,9-2.9,2.46-2,2.63,2.31,2.65.89,5.42-.89,6.69-.89,6.69l-6.14.61S185,219,185.1,216.93,185.8,206.64,185.8,206.64Z"/><path class="cls-6" d="M196.52,179.92s-.23-1.3-.54-1.52-.69-1.09-1.54-1.23a24.61,24.61,0,0,0-2.89-.11s3.08-.47,3.6,0a4.14,4.14,0,0,1,1,1.33C196.26,178.63,196.52,179.92,196.52,179.92Z"/><path class="cls-1" d="M186.18,242.48s2.94-9.57,2.15-13.52,1.58-9.92,1.32-12.81a59.5,59.5,0,0,0-2.28-9s2.31-.7,2.73-5.18,1.48-12.29-1.07-14.13a12.85,12.85,0,0,0-3.6-2.11l0-3s1.08-.62.7-3.17c-.41-2.75-.22-6.32-3.6-6.49a3.71,3.71,0,0,0-3.91,3.11s.18,1.72-.43,1.89-.75,1.93,0,2.9.74,4.74.74,4.74a9.78,9.78,0,0,1-3.12.79c-1.31,0-1.8,8.1-1.8,8.1l.53,8.35s-.92,12.7-.92,14.54,3.75,25.81,3.75,25.81Z"/><path class="cls-7" d="M186.18,242.48s2.94-9.57,2.15-13.52,1.58-9.92,1.32-12.81a59.5,59.5,0,0,0-2.28-9s2.31-.7,2.73-5.18,1.48-12.29-1.07-14.13a12.85,12.85,0,0,0-3.6-2.11l0-3s1.08-.62.7-3.17c-.41-2.75-.22-6.32-3.6-6.49a3.71,3.71,0,0,0-3.91,3.11s.18,1.72-.43,1.89-.75,1.93,0,2.9.74,4.74.74,4.74a9.78,9.78,0,0,1-3.12.79c-1.31,0-1.8,8.1-1.8,8.1l.53,8.35s-.92,12.7-.92,14.54,3.75,25.81,3.75,25.81Z"/><path class="cls-6" d="M182.89,177.08a.75.75,0,0,1,.68-.7c.34,0,1.38.36,1.38.7s-.41.19-.75.19S182.89,177.42,182.89,177.08Z"/><path class="cls-6" d="M181.83,176.94a.75.75,0,0,0-.68-.7c-.34,0-1.38.36-1.38.7s.41.2.75.2S181.83,177.28,181.83,176.94Z"/><path class="cls-6" d="M181.83,178c0,.11.24.12.53.12s.47,0,.47-.11-.18-.28-.47-.28S181.83,177.9,181.83,178Z"/><path class="cls-6" d="M181.45,179.39c0,.08.39.09.88.09s.78,0,.78-.08-.3-.21-.78-.21S181.45,179.31,181.45,179.39Z"/><path class="cls-6" d="M186.18,179.48s-.22,1.68-1.23,2.07a7.92,7.92,0,0,1-3.23,0A8.32,8.32,0,0,0,179,182a6.48,6.48,0,0,0,3.6,1.47,6.74,6.74,0,0,0,2.9-.67s.75-.33.78-2A6.42,6.42,0,0,0,186.18,179.48Z"/><path class="cls-6" d="M189.56,190.42s0,2.28-1.58,2.28-4.65-.21-4.65-.21a17.72,17.72,0,0,1,4.52,1.44c.41.29,1.14.91,1.67.69s.58-1.74.58-2.4A5.85,5.85,0,0,0,189.56,190.42Z"/><path class="cls-3" d="M180.8,203.42s-3.44-1.23-3.53-2.38,1.4-6.61.53-6.38a16.42,16.42,0,0,1-3.73-.15,14.19,14.19,0,0,0,.15,2.23c.18,2,.23,5.66.59,6.68S180.8,203.42,180.8,203.42Z"/><path class="cls-3" d="M182.89,242.57s1-5.09.44-6.32,1-3.42.59-4.57-1.56-.35-2.09-1.84,2.07-1.75,2.09-2.63-1.35-2.64-2.16-4.13a9.47,9.47,0,0,1-1-3.16s-.5,6.76,0,7.46.54,4.39-.22,6.68.87,8.86.87,8.86Z"/><path class="cls-3" d="M174.28,207.4s3.86,1.72,3.14,2.78-3.55,2.89-3.38,7.37,3,11.13,3,12,.39,13.76.39,13.76l-2.72-17.88s-1.24-7.53-1-9.77S174.28,207.4,174.28,207.4Z"/><path class="cls-6" d="M183.18,206.72s4.22,2.5,6.17-1.67c1.2-2.57.75-7.25.75-7.25s-1.62,6.82-3.7,7.08A5,5,0,0,0,183.18,206.72Z"/><path class="cls-6" d="M185.87,177.09s-.25-1.4-.58-1.63-.74-1.17-1.64-1.32a26,26,0,0,0-3.1-.11s3.29-.5,3.85,0a4.57,4.57,0,0,1,1.11,1.43C185.59,175.71,185.87,177.09,185.87,177.09Z"/><path class="cls-1" d="M173,241.44s3.1-10.1,2.27-14.27,1.66-10.47,1.39-13.52-2.41-9.45-2.41-9.45,2.44-.74,2.88-5.47,1.56-13-1.12-14.91a13.6,13.6,0,0,0-3.8-2.22l.05-3.15s1.14-.65.74-3.34c-.43-2.9-.23-6.67-3.8-6.85a3.91,3.91,0,0,0-4.12,3.28s.18,1.81-.47,2-.78,2,0,3.05.79,5,.79,5-5.65,2.32-6.6,3.34c-2.56,2.77,1,4.56,1,4.56l1,10.29s-1,13.39-1,15.34,4,27.23,4,27.23Z"/><path class="cls-6" d="M169.53,172.43a.8.8,0,0,1,.72-.75c.36,0,1.46.39,1.46.75s-.43.2-.79.2S169.53,172.78,169.53,172.43Z"/><path class="cls-6" d="M168.42,172.28a.79.79,0,0,0-.72-.74c-.35,0-1.46.38-1.46.74s.43.21.79.21S168.42,172.64,168.42,172.28Z"/><path class="cls-6" d="M168.42,173.41c0,.11.25.13.56.13s.49,0,.49-.12-.19-.3-.49-.3S168.42,173.29,168.42,173.41Z"/><path class="cls-6" d="M168,174.87c0,.08.42.09.93.09s.83,0,.83-.08-.32-.23-.83-.23S168,174.78,168,174.87Z"/><path class="cls-6" d="M173,175s-.23,1.77-1.3,2.19a8.25,8.25,0,0,1-3.41,0,8.82,8.82,0,0,0-2.89.47,6.86,6.86,0,0,0,3.8,1.55,7,7,0,0,0,3.06-.71s.79-.35.82-2.13A7.16,7.16,0,0,0,173,175Z"/><path class="cls-6" d="M176.57,186.51s0,2.4-1.66,2.4-4.91-.23-4.91-.23,3.57.7,4.77,1.53c.43.3,1.2.95,1.76.72s.61-1.83.61-2.53A6.15,6.15,0,0,0,176.57,186.51Z"/><path class="cls-6" d="M167.33,200.21s-3.63-1.29-3.73-2.5,1.49-7,.56-6.73a17.44,17.44,0,0,1-3.93-.16,15.59,15.59,0,0,0,.16,2.35c.19,2.09.24,6,.62,7S167.33,200.21,167.33,200.21Z"/><path class="cls-6" d="M169.53,241.53s1-5.37.47-6.67,1.06-3.61.62-4.82-1.64-.37-2.2-1.94,2.18-1.86,2.2-2.78-3.61-3.22-2.43-8.14c.42-1.74-1.31-6.65-1.31-6.65s-.08,14.23.45,15,.57,4.63-.23,7,.91,9.36.91,9.36Z"/><path class="cls-6" d="M160.45,204.42s4.08,1.82,3.32,2.93-3.75,3.06-3.57,7.78,3.15,11.74,3.15,12.71.42,14.52.42,14.52L160.9,223.5s-1.31-7.95-1.09-10.32S160.45,204.42,160.45,204.42Z"/><path class="cls-6" d="M169.84,203.71s4.45,2.63,6.51-1.78c1.27-2.71.79-7.64.79-7.64s-1.71,7.19-3.9,7.47A5.31,5.31,0,0,0,169.84,203.71Z"/><path class="cls-6" d="M160.58,202.59s5,1.33,6.75,3.92,4.24,5.19,4.38,8.34,1.9,9.82,1.3,10.19-3.28,2.78-2.31,3,2.6,3,1,6.12-1,7.55-1,7.55l-6.93.69s-4.13-25.77-4-28.16S160.58,202.59,160.58,202.59Z"/><path class="cls-6" d="M172.68,172.44s-.26-1.48-.61-1.72-.78-1.24-1.74-1.39a27,27,0,0,0-3.26-.12s3.47-.53,4.06,0a5,5,0,0,1,1.17,1.5C172.38,171,172.68,172.44,172.68,172.44Z"/><path class="cls-6" d="M158.27,189.43s2,.09,1.16,1,1.13,13.77-.52,14.89-3,2.09-3,2.09l4.65-.76s.52-15-.55-16.71S158.27,189.43,158.27,189.43Z"/><polygon class="cls-2" points="145.85 250.01 203.56 278.08 145.85 278.08 145.85 250.01"/><rect class="cls-1" x="145.85" y="240.65" width="54.63" height="7.88"/><polygon class="cls-7" points="145.85 240.65 200.52 248.53 145.85 248.53 145.85 240.65"/></svg>