<?xml version="1.0" encoding="iso-8859-1"?>
<!-- Generator: Adobe Illustrator 25.4.1, SVG Export Plug-In . SVG Version: 6.00 Build 0)  -->
<svg version="1.1" id="Calque_1" xmlns="http://www.w3.org/2000/svg" xmlns:xlink="http://www.w3.org/1999/xlink" x="0px" y="0px"
	 width="1080px" height="1080px" viewBox="0 0 1080 1080" enable-background="new 0 0 1080 1080" xml:space="preserve">
<g>
	<g>
		<path fill="#414870" d="M570.865,922.762c0,0-132.444,22.197-149.092-76.211s41.435-89.529,41.435-124.675
			c0-35.146-40.325-32.556-40.325-85.09s38.475-75.841,60.673-75.841l5.919,24.787l61.413,26.267c0,0,26.082,8.879,23.585-27.192
			c0,0-1.387-10.266,9.434-9.295c10.821,0.971,43.562,44.626,33.943,84.581s-0.74,46.984,33.666,59.933s49.944,52.534,54.013,86.94
			C709.598,841.372,677.782,905.744,570.865,922.762z"/>
	</g>
	<g>
		<polygon fill="#ED6463" points="570.402,667.446 453.589,267.941 420.616,272.056 505.475,664.949 		"/>
	</g>
	<g>
		<polygon fill="#5C6C9A" points="486.977,555.119 485.775,549.662 524.528,542.91 526.1,548.644 		"/>
	</g>
	<g>
		<polygon fill="#5C6C9A" points="481.983,532.783 480.781,527.326 519.533,520.574 521.106,526.308 		"/>
	</g>
	<g>
		<polygon fill="#5C6C9A" points="472.688,494.492 471.485,489.035 510.238,482.284 511.811,488.018 		"/>
	</g>
	<g>
		<polygon fill="#5C6C9A" points="462.699,449.404 461.497,443.947 500.249,437.195 501.822,442.93 		"/>
	</g>
	<g>
		<polygon fill="#5C6C9A" points="456.04,416.663 454.837,411.206 489.313,404.963 490.885,410.697 		"/>
	</g>
	<g>
		<polygon fill="#5C6C9A" points="446.837,378.095 445.635,372.638 477.728,366.672 479.301,372.407 		"/>
	</g>
	<g>
		<polygon fill="#5C6C9A" points="437.23,333.353 436.027,327.897 465.242,322.139 466.815,327.873 		"/>
	</g>
	<g>
		<path fill="#282246" d="M502.053,921.467c0,0-78.523-12.301-88.512-76.673s30.244-92.165,30.244-92.165
			s-34.617,28.057-21.92,91.98C435.276,912.126,502.053,921.467,502.053,921.467z"/>
	</g>
	<g>
		<path fill="#282246" d="M454.074,742.686c0,0,5.387-24.833-6.821-34.961C435.045,697.598,415.9,683.031,415.9,655.7
			c0-27.33,8.324-44.95,14.428-55.632c0,0-13.087,29.596-4.856,56.603c8.232,27.007,23.4,31.492,29.226,40.094
			C460.525,705.367,472.26,724.026,454.074,742.686z"/>
	</g>
	<g>
		<path fill="#5C6C9A" d="M524.608,778.832l68.711-16.225c1.259-0.297,2.039-1.559,1.742-2.819l-1.941-8.222
			c-0.297-1.259-1.559-2.039-2.819-1.742l-68.71,16.225c-1.259,0.297-2.039,1.559-1.742,2.819l1.941,8.222
			C522.087,778.35,523.348,779.129,524.608,778.832z"/>
	</g>
	<g>
		<path fill="#5C6C9A" d="M530.527,806.209l68.71-16.225c1.259-0.297,2.039-1.559,1.742-2.819l-1.941-8.222
			c-0.297-1.259-1.559-2.039-2.819-1.742l-68.711,16.225c-1.259,0.297-2.039,1.559-1.742,2.819l1.941,8.222
			C528.006,805.726,529.268,806.506,530.527,806.209z"/>
	</g>
	<g>
		<path fill="#5C6C9A" d="M420.524,271.825c0,0-20.995-50.36-46.383-70.338c0,0,16.787-4.578,33.435-4.301
			c0,0,23.862,49.944,27.469,60.765l-1.249-61.043c0,0,15.677-1.11,25.666,3.885c0,0-6.983,53.274-5.873,67.147L420.524,271.825z"/>
	</g>
	<g>
		<path fill="#282246" d="M420.524,271.825l-19.33-9.018c0,0-4.023-30.799-27.608-49.944l0.555-11.376
			C374.141,201.487,399.714,221.881,420.524,271.825z"/>
	</g>
	<g>
		<path fill="#282246" d="M575.119,579.351l-11.561,12.578c0,0,5.272,14.336-4.162,21.18c0,0,17.434-0.555,15.076-28.302
			C574.472,584.808,573.963,581.247,575.119,579.351z"/>
	</g>
	<g>
		<path fill="#773C51" d="M473.844,562.217l-3.052-15.122c0,0,1.249-14.428,0.277-18.174c-2.22-9.295-56.004-259.61-56.004-259.61
			l5.458,2.514l62.518,289.159C483.042,560.985,478.132,561.024,473.844,562.217z"/>
	</g>
	<g>
		<circle fill="#ED6463" cx="662.799" cy="763.311" r="7.954"/>
	</g>
	<g>
		<circle fill="#F0E4D8" cx="663.833" cy="762.372" r="3.702"/>
	</g>
	<g>
		<circle fill="#ED6463" cx="627.653" cy="788.561" r="7.954"/>
	</g>
	<g>
		<circle fill="#F0E4D8" cx="628.687" cy="787.621" r="3.702"/>
	</g>
	<g>
		<circle fill="#ED6463" cx="637.827" cy="838.597" r="7.954"/>
	</g>
	<g>
		<circle fill="#F0E4D8" cx="638.861" cy="837.658" r="3.702"/>
	</g>
	<g>
		<circle fill="#ED6463" cx="464.547" cy="610.934" r="7.954"/>
	</g>
	<g>
		<circle fill="#F0E4D8" cx="465.582" cy="609.995" r="3.702"/>
	</g>
	<g>
		<circle fill="#ED6463" cx="671.493" cy="814.365" r="7.954"/>
	</g>
	<g>
		<circle fill="#F0E4D8" cx="672.527" cy="813.426" r="3.702"/>
	</g>
	<g>
		<path fill="#F0E4D8" d="M391.759,235.308l-16.313,5.415l-4.994-4.509l2.983-6.59l15.351,0.55
			C389.913,231.904,390.912,233.616,391.759,235.308z"/>
	</g>
	<g>
		<path fill="#F0E4D8" d="M400.113,257.344l-9.761,3.24l-2.988-2.698l1.785-3.943l10.17,0.316
			C399.71,255.469,399.918,256.343,400.113,257.344z"/>
	</g>
	<g>
		<path fill="#F0E4D8" d="M396.528,245.752l-14.016,4.652l-4.291-3.874l2.422-4.783l14.032-0.492
			C395.631,243.09,396.03,244.185,396.528,245.752z"/>
	</g>
	<g>
		<polygon fill="#F0E4D8" points="454.884,241.604 465.289,242.414 468.618,237.558 463.901,232.633 455.6,233.951 		"/>
	</g>
	<g>
		<polygon fill="#F0E4D8" points="453.963,252.394 460.778,252.696 463.147,249.688 459.993,246.395 454.388,247.305 		"/>
	</g>
	<g>
		<path fill="#282246" d="M433.796,196.909l-12.278,12.278c0,0,11.307,28.232,13.527,48.765L433.796,196.909z"/>
	</g>
	<g>
		<path fill="#F0E4D8" d="M387.089,220.401l35.516-2.22l-15.723-34.591c0,0,2.59-2.22,23.492-2.312c0,0,1.341,2.867-0.046,35.608
			l35.238-1.804c0,0-11.099-17.48-16.093-34.267c0,0,20.949-0.832,34.128,4.578l-8.047-37.735c0,0-9.573,5.411-31.076,9.711
			c0,0-1.526-10.128,0.277-32.464l-33.573,1.942c0,0,9.573,13.873,14.844,33.157c0,0-6.937,2.358-23.862,1.526
			c0,0-3.468-18.452,0-33.851c0,0-22.475,1.526-33.851,2.358c0,0,10.128,14.844,14.012,31.77c0,0-22.614,0.555-33.99-3.885
			c0,0,2.081,22.059,6.937,38.29c0,0,19.7-8.463,32.325-9.85C387.598,186.365,389.217,196.724,387.089,220.401z"/>
	</g>
	<g>
		
			<rect x="511.513" y="260.048" transform="matrix(0.9655 -0.2602 0.2602 0.9655 -115.9196 151.0249)" fill="#F0E4D8" width="1.705" height="506.438"/>
	</g>
	<g>
		
			<rect x="503.836" y="261.365" transform="matrix(0.9682 -0.2501 0.2501 0.9682 -112.7265 142.5691)" fill="#F0E4D8" width="1.704" height="507.065"/>
	</g>
	<g>
		
			<rect x="495.744" y="262.743" transform="matrix(0.9711 -0.2385 0.2385 0.9711 -108.8687 133.3514)" fill="#F0E4D8" width="1.704" height="507.593"/>
	</g>
	<g>
		
			<rect x="488.218" y="263.989" transform="matrix(0.9737 -0.2278 0.2278 0.9737 -105.147 125.0532)" fill="#F0E4D8" width="1.704" height="507.921"/>
	</g>
	<g>
		
			<rect x="480.391" y="265.359" transform="matrix(0.9767 -0.2145 0.2145 0.9767 -100.195 115.3159)" fill="#F0E4D8" width="1.703" height="507.934"/>
	</g>
	<g>
		<path fill="#ED6463" d="M276.75,937.745c0,0,114.316-20.533,129.854-42.175l13.041-10.266c0,0,8.601,0.555,9.156,7.214
			c0.555,6.659,5.549-1.942,8.601-0.555s15.538,1.387,15.538-3.885c0,0,2.775,3.052,8.047,1.665
			c5.272-1.387,26.822,0.092,30.336-4.162c3.515-4.255,6.104-6.104,7.399-5.734c0,0-0.74,4.994,0.74,6.844
			c1.48,1.85,1.295,10.544,3.515,10.914c2.22,0.37,38.105,11.469,43.84,5.549s5.919-8.139,5.919-8.139s10.544,1.295,12.024,0.37
			c1.48-0.925,1.11-13.318,1.11-13.318s11.839,3.33,12.209,5.364c0.37,2.035,1.665,7.029,3.145,8.139s11.284,3.885,11.284,3.885
			s-0.832,4.717,1.942,4.301l4.023,0.832c0,0,0,4.856,0.832,4.578s18.868-6.243,17.619-8.879c-0.139-0.293-0.372-0.639-0.676-1.023
			c-3.988-5.025-2.151-12.504,3.489-15.56l3.707-2.008c0,0,5.272,4.439,5.688,10.128s1.665,10.128,4.023,8.463
			c2.358-1.665,14.29,0.416,14.706,1.804s32.464,3.885,33.851,2.358s16.232-12.763,18.868-21.226
			c2.636-8.463,9.434-15.122,9.434-15.122s-4.162,10.682-0.555,12.347c3.607,1.665,6.382,4.717,7.908,3.052
			c1.526-1.665,19.284,27.053,20.116,32.464c0.832,5.411,54.245,34.175,69.043,35.654c0,0-18.498,36.256-110.987,21.457
			c-92.489-14.798-136.144-12.578-190.897-7.399c-54.753,5.179-138.363,16.278-160.561-3.7S276.75,937.745,276.75,937.745z"/>
	</g>
	<g>
		<path fill="#8E613E" d="M419.645,885.304c0,0,9.087-0.416,11.723,0.832c2.636,1.249,3.746,3.226,5.203,3.052l3.468,3.33
			c0,0-1.942-0.139-2.636-0.555s-2.428,0.104-4.509,1.734c-2.081,1.63-3.572,1.908-3.954,0.173
			C428.559,892.137,429.045,886.518,419.645,885.304z"/>
	</g>
	<g opacity="0.5">
		<path fill="#F0E4D8" d="M648.555,946.069c0,0-75.471-9.434-98.223-4.994c-22.752,4.439-15.538-13.318-9.989-18.313l15.538-9.989
			l15.538-5.549l8.324,2.22c0,0-1.665,7.769,1.665,9.434c3.33,1.665,24.417,9.434,31.076,6.659
			c6.659-2.775,42.175,3.885,46.06,9.989C662.429,941.63,663.539,949.399,648.555,946.069z"/>
	</g>
	<g opacity="0.5">
		<path fill="#F0E4D8" d="M454.699,937.56c0,0,14.798-2.59,25.897-3.33c11.099-0.74,5.549-9.619,4.439-11.469
			c-1.11-1.85-13.318-9.249-11.469-15.168c0,0-1.85,2.96-12.209,3.7c-10.359,0.74-14.058-7.029-14.058-7.029
			s-1.85,6.289-5.919,6.659c-4.07,0.37-7.399-4.069-7.399-4.069s-6.289,6.659-13.688,8.139c-7.399,1.48-12.209,7.399-18.128,8.139
			c0,0-7.029,2.96,1.11,5.179C411.414,930.531,438.791,940.89,454.699,937.56z"/>
	</g>
</g>
<path opacity="0.7" fill="#282246" d="M368.314,130.04l8.313-0.562c0,0,18.13,30.105,16.977,90.496l-6.515,0.428
	C387.089,220.401,393.03,165.249,368.314,130.04z"/>
<path opacity="0.7" fill="#282246" d="M411.183,126.849l5.458-0.33c0,0,22.694,27.334,19.399,90.059l-6.068,0.326
	C429.972,216.903,436.314,162.443,411.183,126.849z"/>
<g>
</g>
<g>
</g>
<g>
</g>
<g>
</g>
<g>
</g>
<g>
</g>
</svg>
