<svg id="Calque_1" data-name="Calque 1" xmlns="http://www.w3.org/2000/svg" viewBox="0 0 343.13 343.13"><defs><style>.cls-1,.cls-4{fill:#282246;}.cls-2{fill:#f0e4d8;}.cls-3{fill:#ed6464;}.cls-4{opacity:0.6;}.cls-5{opacity:0.5;}.cls-6{opacity:0.7;}</style></defs><rect class="cls-1" x="205.26" y="262.1" width="93.26" height="59.15"/><polygon class="cls-2" points="77.47 300.39 52.81 300.39 57.8 239.76 57.8 85.32 71.24 85.32 71.24 240.33 77.47 300.39"/><rect class="cls-3" x="57.8" y="146.23" width="13.44" height="30.89"/><rect class="cls-3" x="57.8" y="84.95" width="13.44" height="30.89"/><rect class="cls-3" x="57.8" y="206.29" width="13.44" height="30.89"/><polygon class="cls-3" points="77.47 300.39 52.81 300.39 55.35 269.5 74.27 269.5 77.47 300.39"/><polygon class="cls-4" points="59.53 300.39 52.81 300.39 57.8 239.83 57.8 84.18 64.52 84.18 64.51 239.96 59.53 300.39"/><g class="cls-5"><polygon class="cls-2" points="74.81 300.39 77.47 300.39 71.24 239.83 71.24 84.18 67.23 84.18 68.09 240.33 74.81 300.39"/></g><polygon class="cls-2" points="210.17 300.39 189.34 300.39 193.55 249.2 193.55 118.81 204.9 118.81 204.9 249.68 210.17 300.39"/><rect class="cls-3" x="193.55" y="170.24" width="11.35" height="26.08"/><rect class="cls-3" x="193.55" y="117.85" width="11.35" height="26.08"/><rect class="cls-3" x="193.55" y="220.94" width="11.35" height="26.08"/><polygon class="cls-3" points="210.17 300.39 189.34 300.39 191.49 274.31 207.46 274.31 210.17 300.39"/><polygon class="cls-4" points="195.02 300.39 189.34 300.39 193.55 249.26 193.55 117.85 199.23 117.85 199.22 249.37 195.02 300.39"/><g class="cls-5"><polygon class="cls-2" points="207.92 300.39 210.17 300.39 204.9 249.26 204.9 117.85 201.52 117.85 202.25 249.68 207.92 300.39"/></g><rect class="cls-2" x="278.2" y="192.86" width="11.35" height="107.53"/><rect class="cls-3" x="278.2" y="192.86" width="11.35" height="16.75"/><rect class="cls-3" x="278.2" y="222.81" width="11.35" height="13.04"/><rect class="cls-3" x="278.2" y="249.06" width="11.35" height="13.04"/><rect class="cls-3" x="278.2" y="275.31" width="11.35" height="25.07"/><rect class="cls-4" x="278.2" y="192.86" width="4.38" height="107.53"/><g class="cls-5"><rect class="cls-2" x="286.72" y="192.86" width="2.82" height="107.53"/></g><polygon class="cls-1" points="103.57 304.03 90.99 304.03 90.99 229.33 103.57 226.84 103.57 304.03"/><rect class="cls-1" x="103.57" y="226.84" width="88.37" height="77.2"/><g class="cls-5"><rect class="cls-2" x="103.19" y="226.84" width="1.78" height="77.2"/></g><g class="cls-5"><rect class="cls-2" x="108.32" y="226.84" width="1.78" height="77.2"/></g><g class="cls-5"><rect class="cls-2" x="113.44" y="226.84" width="1.78" height="77.2"/></g><g class="cls-5"><rect class="cls-2" x="118.57" y="226.84" width="1.78" height="77.2"/></g><g class="cls-5"><rect class="cls-2" x="123.7" y="226.84" width="1.78" height="77.2"/></g><g class="cls-5"><rect class="cls-2" x="128.83" y="226.84" width="1.78" height="77.2"/></g><g class="cls-6"><rect class="cls-2" x="133.96" y="226.84" width="1.78" height="77.2"/></g><g class="cls-6"><rect class="cls-2" x="139.08" y="226.84" width="1.78" height="77.2"/></g><g class="cls-6"><rect class="cls-2" x="144.21" y="226.84" width="1.78" height="77.2"/></g><g class="cls-6"><rect class="cls-2" x="149.34" y="226.84" width="1.78" height="77.2"/></g><g class="cls-6"><rect class="cls-2" x="154.47" y="226.84" width="1.78" height="77.2"/></g><g class="cls-6"><rect class="cls-2" x="159.59" y="226.84" width="1.78" height="77.2"/></g><rect class="cls-2" x="164.72" y="226.84" width="1.78" height="77.2"/><rect class="cls-2" x="169.85" y="226.84" width="1.78" height="77.2"/><rect class="cls-2" x="174.98" y="226.84" width="1.78" height="77.2"/><rect class="cls-2" x="180.11" y="226.84" width="1.78" height="77.2"/><rect class="cls-2" x="185.23" y="226.84" width="1.78" height="77.2"/><rect class="cls-2" x="190.36" y="226.84" width="1.78" height="77.2"/><rect class="cls-1" x="14.59" y="300.39" width="316.54" height="20.87"/></svg>