<svg id="Calque_1" data-name="Calque 1" xmlns="http://www.w3.org/2000/svg" viewBox="0 0 343.13 343.13"><defs><style>.cls-1{fill:#ed6464;}.cls-2,.cls-3{fill:#282246;}.cls-3,.cls-5{opacity:0.5;}.cls-4{fill:#f0e4d8;}.cls-6{opacity:0.3;}</style></defs><rect class="cls-1" x="212.29" y="64.38" width="12.84" height="21.63"/><rect class="cls-2" x="209.96" y="60.15" width="17.5" height="4.23"/><rect class="cls-3" x="212.29" y="62.27" width="5.17" height="25.02"/><rect class="cls-4" x="126.55" y="121.61" width="80.53" height="172.11"/><rect class="cls-1" x="126.55" y="109.24" width="80.53" height="12.37"/><g class="cls-5"><rect class="cls-1" x="126.55" y="167.59" width="80.53" height="9.86"/></g><g class="cls-6"><rect class="cls-1" x="126.55" y="119.01" width="80.53" height="174.72"/></g><rect class="cls-4" x="43.75" y="138.35" width="100.24" height="165.87"/><rect class="cls-1" x="43.75" y="138.35" width="32" height="165.87"/><rect class="cls-4" x="32.07" y="96.86" width="123.62" height="49.5"/><rect class="cls-1" x="32.07" y="96.86" width="39.46" height="49.5"/><polygon class="cls-4" points="146.5 98.6 43.75 98.6 93.88 49.1 146.5 98.6"/><polygon class="cls-1" points="77.59 98.6 43.75 98.6 93.88 49.1 77.59 98.6"/><rect class="cls-1" x="92.66" y="43.8" width="2.43" height="6.48"/><rect class="cls-4" x="93.62" y="43.8" width="1.47" height="6.48"/><rect class="cls-3" x="43.75" y="146.43" width="100.24" height="9.2"/><rect class="cls-2" x="71.1" y="136.57" width="6.5" height="9.86"/><rect class="cls-2" x="84.12" y="136.57" width="6.5" height="9.86"/><rect class="cls-2" x="97.13" y="136.57" width="6.5" height="9.86"/><rect class="cls-2" x="110.14" y="136.57" width="6.5" height="9.86"/><rect class="cls-2" x="123.16" y="136.57" width="6.5" height="9.86"/><rect class="cls-2" x="136.17" y="136.57" width="6.5" height="9.86"/><rect class="cls-2" x="149.18" y="136.57" width="6.5" height="9.86"/><rect class="cls-2" x="32.07" y="136.57" width="6.5" height="9.86"/><rect class="cls-2" x="45.08" y="136.57" width="6.5" height="9.86"/><rect class="cls-2" x="58.09" y="136.57" width="6.5" height="9.86"/><rect class="cls-2" x="71.53" y="136.57" width="6.5" height="9.86"/><rect class="cls-1" x="148.76" y="157.74" width="6.5" height="9.86"/><rect class="cls-1" x="161.7" y="157.74" width="6.5" height="9.86"/><rect class="cls-1" x="174.64" y="157.74" width="6.5" height="9.86"/><rect class="cls-1" x="187.58" y="157.74" width="6.5" height="9.86"/><rect class="cls-1" x="200.53" y="157.74" width="6.5" height="9.86"/><rect class="cls-2" x="28.28" y="96.86" width="130.45" height="3.23"/><rect class="cls-4" x="118.78" y="64.38" width="12.84" height="21.63"/><rect class="cls-2" x="116.45" y="60.15" width="17.5" height="4.23"/><rect class="cls-2" x="116.45" y="180.75" width="13.35" height="24.88"/><rect class="cls-2" x="93.99" y="228.99" width="13.35" height="24.88"/><rect class="cls-4" x="199.87" y="138.35" width="100.24" height="165.87"/><rect class="cls-1" x="199.87" y="138.35" width="32" height="165.87"/><rect class="cls-4" x="188.18" y="96.86" width="123.62" height="49.5"/><rect class="cls-1" x="188.18" y="96.86" width="39.46" height="49.5"/><polygon class="cls-4" points="302.62 98.6 199.87 98.6 249.99 49.1 302.62 98.6"/><polygon class="cls-1" points="233.7 98.6 199.87 98.6 249.99 49.1 233.7 98.6"/><rect class="cls-1" x="248.77" y="43.8" width="2.43" height="6.48"/><rect class="cls-4" x="249.74" y="43.8" width="1.47" height="6.48"/><rect class="cls-3" x="199.87" y="146.43" width="100.24" height="9.2"/><rect class="cls-2" x="184.4" y="96.86" width="130.45" height="3.23"/><rect class="cls-2" x="250.1" y="180.75" width="13.35" height="24.88" transform="translate(513.55 386.37) rotate(-180)"/><rect class="cls-2" x="272.56" y="228.99" width="13.35" height="24.88" transform="translate(558.47 482.85) rotate(-180)"/><rect class="cls-2" x="227.22" y="136.57" width="6.5" height="9.86"/><rect class="cls-2" x="240.23" y="136.57" width="6.5" height="9.86"/><rect class="cls-2" x="253.24" y="136.57" width="6.5" height="9.86"/><rect class="cls-2" x="266.26" y="136.57" width="6.5" height="9.86"/><rect class="cls-2" x="279.27" y="136.57" width="6.5" height="9.86"/><rect class="cls-2" x="292.28" y="136.57" width="6.5" height="9.86"/><rect class="cls-2" x="305.29" y="136.57" width="6.5" height="9.86"/><rect class="cls-2" x="188.18" y="136.57" width="6.5" height="9.86"/><rect class="cls-2" x="201.19" y="136.57" width="6.5" height="9.86"/><rect class="cls-2" x="214.21" y="136.57" width="6.5" height="9.86"/><rect class="cls-3" x="43.75" y="155.63" width="11.74" height="148.3"/><rect class="cls-3" x="32.07" y="99.29" width="13.01" height="47.14"/><polygon class="cls-3" points="58.09 97.86 93.88 49.1 43.75 98.6 58.09 97.86"/><rect class="cls-3" x="199.91" y="155.63" width="11.74" height="148.3"/><rect class="cls-3" x="188.22" y="99.29" width="13.01" height="47.14"/><polygon class="cls-3" points="214.24 97.86 250.03 49.1 199.91 98.6 214.24 97.86"/></svg>