<svg id="Calque_1" data-name="Calque 1" xmlns="http://www.w3.org/2000/svg" xmlns:xlink="http://www.w3.org/1999/xlink" viewBox="0 0 343.13 343.13"><defs><style>.cls-1{fill:none;}.cls-2{clip-path:url(#clip-path);}.cls-3{fill:#f0e4d8;}.cls-4{fill:#5b6c9a;}.cls-5{opacity:0.5;}.cls-6{fill:#282246;}.cls-7{clip-path:url(#clip-path-2);}.cls-8{clip-path:url(#clip-path-3);}</style><clipPath id="clip-path"><polygon class="cls-1" points="211.92 242.12 128.99 242.12 128.99 156.63 170.45 127.83 211.92 156.63 211.92 242.12"/></clipPath><clipPath id="clip-path-2"><polygon class="cls-1" points="97.8 242.12 14.87 242.12 14.87 156.63 56.34 127.83 97.8 156.63 97.8 242.12"/></clipPath><clipPath id="clip-path-3"><polygon class="cls-1" points="326.03 242.12 243.1 242.12 243.1 156.63 284.56 127.83 326.03 156.63 326.03 242.12"/></clipPath></defs><g class="cls-2"><polygon class="cls-3" points="211.92 242.37 128.99 242.37 128.99 156.88 170.45 128.08 211.92 156.88 211.92 242.37"/><rect class="cls-4" x="135.88" y="134.66" width="7.62" height="107.46"/><rect class="cls-4" x="151.77" y="134.66" width="7.62" height="107.46"/><rect class="cls-4" x="166.64" y="126.11" width="7.62" height="116.02"/><rect class="cls-4" x="182.53" y="134.66" width="7.62" height="107.46"/><rect class="cls-4" x="197.55" y="134.66" width="7.62" height="107.46"/><g class="cls-5"><polygon class="cls-6" points="125.36 174.5 170.45 142.23 219.17 176.96 216.34 140.76 170.45 116.6 122.31 136.19 125.36 174.5"/></g></g><polygon class="cls-3" points="221.29 163.11 170.45 127.81 119.62 163.11 116.01 157.91 170.45 120.1 224.9 157.91 221.29 163.11"/><g class="cls-7"><polygon class="cls-3" points="97.8 242.37 14.87 242.37 14.87 156.88 56.34 128.08 97.8 156.88 97.8 242.37"/><rect class="cls-4" x="21.76" y="134.66" width="7.62" height="107.46"/><rect class="cls-4" x="37.65" y="134.66" width="7.62" height="107.46"/><rect class="cls-4" x="52.53" y="126.11" width="7.62" height="116.02"/><rect class="cls-4" x="68.42" y="134.66" width="7.62" height="107.46"/><rect class="cls-4" x="83.44" y="134.66" width="7.62" height="107.46"/><g class="cls-5"><polygon class="cls-6" points="11.24 174.5 56.34 142.23 105.06 176.96 102.23 140.76 56.34 116.6 8.2 136.19 11.24 174.5"/></g></g><polygon class="cls-3" points="107.17 163.11 56.34 127.81 5.5 163.11 1.89 157.91 56.34 120.1 110.78 157.91 107.17 163.11"/><g class="cls-8"><polygon class="cls-3" points="326.03 242.37 243.1 242.37 243.1 156.88 284.56 128.08 326.03 156.88 326.03 242.37"/><rect class="cls-4" x="249.99" y="134.66" width="7.62" height="107.46"/><rect class="cls-4" x="265.88" y="134.66" width="7.62" height="107.46"/><rect class="cls-4" x="280.76" y="126.11" width="7.62" height="116.02"/><rect class="cls-4" x="296.65" y="134.66" width="7.62" height="107.46"/><rect class="cls-4" x="311.67" y="134.66" width="7.62" height="107.46"/><g class="cls-5"><polygon class="cls-6" points="239.47 174.5 284.56 142.23 333.29 176.96 330.46 140.76 284.56 116.6 236.42 136.19 239.47 174.5"/></g></g><polygon class="cls-3" points="335.4 163.11 284.56 127.81 233.73 163.11 230.12 157.91 284.56 120.1 339.01 157.91 335.4 163.11"/></svg>