<svg id="Calque_1" data-name="Calque 1" xmlns="http://www.w3.org/2000/svg" viewBox="0 0 343.13 343.13"><defs><style>.cls-1{fill:#f0e4d8;}.cls-2,.cls-3{fill:#282246;}.cls-2{opacity:0.5;}</style></defs><path class="cls-1" d="M271.19,273.26l-4.78-14.85-10.32-21.65-19.64-35.5-8.06,3-34.74,55.64s2.77,27.95,2,26.94-7.3,0-7.3,0l-3.52-28.23L208,198.49c-1.51,0-29.46,1.51-40.54-2.27s-24.17-11.33-24.17-10.57-13.09,12.08-17.62,13.84-12.34,9.32-12.34,9.32L105,237.26l2.77,28.45,4.53,8.06,3.53,6.29L96,276.54l-4-30.22L80.85,205S98,197,98.48,190.68s-7.81-24.42-9.07-30.46-1-22.41-1-22.41-9.57,8.31-10.83,15.36-11.82,21-16.1,29.57-15.62,40.92-15.62,40.92S62.22,179.86,66,171.8s7.45-14.82,9-20.36,12.51-35.3,34.92-40.09c2.62-.56,4.94-.25,7.66-.42,20.51-1.23,43.6,6.26,53,8,10.82,2,36,3.27,41.79,2s22.41-1,22.41-1,0-5.79,4.53-8.81S269.94,98.53,273,95.51a12.86,12.86,0,0,1,7.55-3.27s-2.52-9.57,4-11.58,7.8,4.78,7.8,4.78l3.78-4,6,9.32s4.53-5.79,5.79-8.31,7.05-7.81,9.32-4.53S317,94,314.75,94.76s-5.79,5-5.79,5,6.29,9.57,7.05,11.83-.25,26.69-.25,26.69l4.53,11.33,2.52,3.53v3.27L317,167l-9.32-1.25-5-11.84s-12.59-9.82-11.84-9.82-23.16,24.17-23.16,24.17-5.79,20.4-7.3,23.17-3.78,7.55-3.78,7.55l18.63,58.66L280,274.27Z"/><path class="cls-2" d="M272.48,95.49A12.86,12.86,0,0,1,280,92.22s-2.52-9.57,4-11.58,7.8,4.78,7.8,4.78l3.78-4,6,9.32s4.53-5.79,5.79-8.31,7-7.81,9.32-4.53-.25,16.11-2.52,16.87-5.79,5-5.79,5,6.3,9.57,7,11.84-.25,26.68-.25,26.68S312,139,306,133.37c-10.54-9.81-.85-15.79-10.93-22.14S272.48,95.49,272.48,95.49Z"/><path class="cls-3" d="M91.38,135.41s20-4,37.5,4.05,38.4,23.8,34.36,31.66a60.83,60.83,0,0,0-5.16,12.8s19.31-8.08,10.1-23.36S146.64,137.43,131,131.37s-32.68-5.61-33.8-4S91.38,135.41,91.38,135.41Z"/><path class="cls-3" d="M99.24,121.94l15.05-7a59.85,59.85,0,0,1,39.07,8.53c19.31,12.13,29.42,24.48,29.19,29.87s-1.34,18.86-8.31,26.05-12.35,12.57-12.35,11.9,22.46-20.44,13.7-34.81-27.84-31.21-41.09-34.13S99.24,121.94,99.24,121.94Z"/><path class="cls-3" d="M150.75,183.92s11.64-15.72-14.19-22.7-45.18-12.49-45.18-12.49v-4.66s29.73-2.54,52.38,12.7S150.75,183.92,150.75,183.92Z"/><path class="cls-3" d="M145.45,179.21s-3.06-7.19-21.75-10-26.94-5.35-26.94-5.35l-1.91-4s23.29,4,31.55,5.71,19.48,5.3,20.75,7.41S145.45,179.21,145.45,179.21Z"/><path class="cls-3" d="M140.76,187.89s-6.53-8.68-13.3-8.68-24.35-2.54-24.35-2.54l-1.27-4.23s21.38,4,25.62,4.44,11.79,3.39,13.3,5.08S140.76,187.89,140.76,187.89Z"/><path class="cls-3" d="M133.13,194.32s-6.2-.71-9.43-2.93S105.44,182,105.44,182v3.82s10.55,3.81,12.79,5.61,10.62,6.08,10.62,6.08"/><path class="cls-3" d="M101,192.31s8.9,5.23,10.8,6.06,9,3.81,9,3.81l1.86-1.26a63.75,63.75,0,0,1-9.16-4.33c-2.85-1.9-10.57-6.88-10.57-6.88Z"/><path class="cls-3" d="M117,111.86c.92.19,19.3-3.34,43.24,11.14s30.81,23.94,26.91,34-16.34,38-16.52,37.86,13.55-13.4,16.7-22.38,5.39-32.18,5.39-32.18S182,127.6,175.68,126.32s-33.77-15-41.19-15.81S117,111.86,117,111.86Z"/><path class="cls-3" d="M196.28,136.36c.93,0,0-7.84-5.75-10S161.89,117,161.89,117l-7-2s23.58,8.33,27.66,11.32S189.6,136.36,196.28,136.36Z"/><path class="cls-3" d="M204.82,124.11s1.86,18.3-1.86,28.82-9.28,28.41-14.47,35-9.65,8.06-9.65,8.06,14.73-22.81,17.75-36,5.07-27.67,3-30.08-5.56-5.76-5.56-5.76,5.19,3.11,6.31,2.21S201.85,122.81,204.82,124.11Z"/><path class="cls-3" d="M207.42,123.76s8,16.31,1.11,34.5-19.86,39.21-19.86,39.21,3.9-2.46,4.09-2.65,19.67-32.1,21.52-47.14-.37-23.91-2-23.92S207.42,123.76,207.42,123.76Z"/><path class="cls-3" d="M216.47,120.44s6.35,20.56,2.83,30-21.16,47-21.16,47h3.69s11.53-28.36,17.28-38.52,6.12-18.32,4.08-24.63-3.71-12.43-3.71-12.43Z"/><path class="cls-3" d="M222.27,121.7s6.49,15.22,5.75,20.6S216,173.67,216,173.67s5.19-9.65,7.6-12.07,8.91-12.43,7.8-22.27A68.55,68.55,0,0,0,226,120.44Z"/><path class="cls-3" d="M231.49,122.71s7.35,12,6.22,19.45S230,169.71,226.4,172.44,214,180.17,214,180.17,229.79,166,231.49,159s6.67-15.72,4.18-22.59S231.49,122.71,231.49,122.71Z"/><path class="cls-3" d="M302.63,155.12l4.57,10.73,9.31,1.26,5.79-10.57v-5.1l-3.59-4.39-4.57-10.69s-5.43-4.15-5.43,1.28.91,11.55-.68,13.8S302.63,155.12,302.63,155.12Z"/><path class="cls-3" d="M289.94,116.83s0,2.26,2,2.49a13.24,13.24,0,0,1,3.84,1.12s-2-3.61-2.94-3.61Z"/><path class="cls-3" d="M258.51,186.25s-6.33,1.85-6.78-6.08-14.93-59.73-14.93-59.73,4.53,18.21,3.85,23.47-2.26,13.67-3.85,16.7,6.79,18,6.79,21.35.22,14,.22,14a30.37,30.37,0,0,0,1.59-6.24c.9-4.81-.23-10.8-2.94-20.13s0-14.46,0-14.46,2.26,8.42,4.07,14.46.67,17.24,3.84,18.31a13.68,13.68,0,0,0,7,0Z"/><path class="cls-3" d="M237.83,116.83c.1.45,6.89,16.73,7.79,23.52s4.52,24.54,7.69,29.23,10.18,4.09,10.18,4.09-1.59-.38-5-6.56-7.92-16.07-8.14-20.06.29-13.49.29-13.49,5.59,18.32,7.85,22.84,5.65,7.92,6.11,9.27,2.26,1.44,2.26,1.44a43.7,43.7,0,0,0,0-13c-1.13-6.1-7.46-31.67-10.18-35.51s-10.45-11-10.45-11a58.18,58.18,0,0,1,8,12.85c2.72,6.57,7,29.41,7,28.73s-3.84-6.56-6.1-11.76-10.63-24-10.63-24a70.29,70.29,0,0,1,3.07,10.31c1,5.07.8,16.31,0,12.61S237.83,116.83,237.83,116.83Z"/><path class="cls-3" d="M255.12,106.66s7,13.62,8.82,19,13.5,32.23,13.5,32.23,1.3-2.64,0-6.93-5.59-16.74-7.62-22.62S255.12,106.66,255.12,106.66Z"/><path class="cls-3" d="M263,105.07c.23.68,5.88,11.76,7.69,16.28s5.65,16.42,5.65,19.29a8.9,8.9,0,0,0,1.65,5l3.33,7s-.23-10.81-2.26-17.74-5-16-5.65-19.84-1.1-10.15-4.08-13.09-2,2.71-2,2.71,2.21,1,3.34,5.71a25.57,25.57,0,0,1,.68,8.3Z"/><path class="cls-3" d="M287.91,143.91a18.15,18.15,0,0,1-4.53-9.07c-.67-5.12-3.39-22.19-4.07-24.51a28.3,28.3,0,0,0-3.16-5.94,24.68,24.68,0,0,0,0,11.54c1.58,5.65,4.52,15,5.2,18.91s1.58,7.88,3.84,9.07S287.91,143.91,287.91,143.91Z"/><path class="cls-3" d="M234.54,163.91c-1.36,4.25.06,7.42,2.06,11.49s1.34,4.29,1.23.9-1.92-7.15-1.23-9.19S234.54,163.91,234.54,163.91Z"/><path class="cls-3" d="M72.41,157.91a51.85,51.85,0,0,1,1.36,11.67c0,7.17-7.69,27-10.86,32.6S57,219.49,57,219.49l5.66-30.79s-8.09,6.78-8.8,12.45S47,219.49,47,219.49s11-31.8,12.12-35.57-4.3,5-8.82,10.9-14.47,13.37-14.47,13.37,21.71-22.87,25.1-29.53S72.41,157.91,72.41,157.91Z"/><path class="cls-3" d="M91.38,126.32v6s2.29-4.29,1.83-5.46S91.38,126.32,91.38,126.32Z"/><path class="cls-3" d="M89.8,128.74c-.11,0,1.13-.77,1.55.26s-1.53,4.93-1.5,5S89.88,128.76,89.8,128.74Z"/><path class="cls-3" d="M88.3,131.19c-.23,0,.87-.88,1.26,0s-1.23,4.39-1.18,4.45A27,27,0,0,0,88.3,131.19Z"/><path class="cls-3" d="M86.77,133.64c-.34-.06.62-1,1-.23.42.92-.92,3.86-.84,4A12.79,12.79,0,0,0,86.77,133.64Z"/><path class="cls-3" d="M85.24,136.1c-.45-.09.38-1.1.69-.47.41.83-.61,3.31-.51,3.43S85.55,136.15,85.24,136.1Z"/><path class="cls-3" d="M83.73,138.56c-.57-.1.13-1.2.4-.71.4.75-.31,2.77-.19,2.92S84.11,138.63,83.73,138.56Z"/><path class="cls-3" d="M82.14,141c-.68-.13-.1-1.32.11-1,.4.68,0,2.24.15,2.42C82.69,142.85,82.6,141.11,82.14,141Z"/><path class="cls-3" d="M80.47,143.49c-.8-.14-.27-1.45-.17-1.2.51.51.3,1.71.47,1.92C81.12,144.62,81,143.59,80.47,143.49Z"/><path class="cls-3" d="M78.83,145.91c-.92-.17-.51-1.57-.46-1.44.52.41.6,1.16.8,1.4C79.56,146.35,79.43,146,78.83,145.91Z"/><path class="cls-3" d="M76.45,146.45c1.59.94,1.78,1.87.75,1.68S76.45,146.45,76.45,146.45Z"/><path class="cls-3" d="M84.73,204.89a23.62,23.62,0,0,0,10.12,5.31c6.34,1.46,9.09,4.21,9.09,4.21a1.71,1.71,0,0,0,0-3.11c-2.38-1.65-4.25-2.38-9.08-3.67s-7.21-7-8.31-5.45S84.73,204.89,84.73,204.89Z"/><path class="cls-3" d="M94.86,198.64c.72.36,3.79,3.84,10.13,5.31s9.08,4.21,9.08,4.21a1.71,1.71,0,0,0,0-3.12c-2.38-1.64-4.24-2.38-9.08-3.66s-7.21-7-8.31-5.45S94.86,198.64,94.86,198.64Z"/><path class="cls-3" d="M89.11,201.93a23.5,23.5,0,0,0,10.12,5.31c6.34,1.46,9.09,4.21,9.09,4.21a1.71,1.71,0,0,0,0-3.11c-2.38-1.65-4.25-2.38-9.08-3.66s-7.21-7.06-8.31-5.45S89.11,201.93,89.11,201.93Z"/><path class="cls-3" d="M82.13,213.25a18.77,18.77,0,0,0,9.11,2c5.24-.29,8,1.31,8,1.31a1.49,1.49,0,0,0-.77-2.54c-2.24-.79-3.86-.95-7.9-.86s-7.3-4.07-7.74-2.5S82.13,213.25,82.13,213.25Z"/><path class="cls-3" d="M85,220.23c.64.13.45,1.37,5.69,1.08s8,1.31,8,1.31a1.49,1.49,0,0,0-.77-2.54c-2.24-.78-3.86-1-7.9-.86s-7.3-4.07-7.74-2.5S85,220.23,85,220.23Z"/><path class="cls-3" d="M85.58,225.77c.65.13,1.81.4,7,.12s8,1.3,8,1.3a1.48,1.48,0,0,0-.77-2.53c-2.24-.79-3.85-.95-7.89-.86s-7.3-4.07-7.75-2.5S85.58,225.77,85.58,225.77Z"/><path class="cls-3" d="M86.3,230.88a16.12,16.12,0,0,0,7.7,1.53c4.43-.29,6.78,1,6.78,1a1.19,1.19,0,0,0-.63-2.07c-1.88-.63-3.25-.75-6.67-.64s-6.14-3.27-6.53-2S86.3,230.88,86.3,230.88Z"/><path class="cls-3" d="M89.11,237.18a16,16,0,0,0,7.69,1.53c4.44-.29,6.79,1,6.79,1a1.19,1.19,0,0,0-.63-2.07c-1.89-.63-3.26-.75-6.68-.64s-6.14-3.27-6.53-2S89.11,237.18,89.11,237.18Z"/><path class="cls-3" d="M235.17,200.22s7.32-6.8,4.31-11.77-9-13.47-9-13.47-3.93,1-2,2.74a29.13,29.13,0,0,1,3.79,4.24s-6.41-2.43-10.86,0S209.8,192.5,209.8,192.5s11-10.72,17-7.71,11.64,1.48,10.59,4.92S235.17,200.22,235.17,200.22Z"/><path class="cls-3" d="M229.8,202.83s2.88-5.55-1.17-8-13.21-3.49-15.57-2.19a42.74,42.74,0,0,0-4.57,3s10.85-1.51,12.81-.83-.16,1.82-1.58,1.71S209.14,199,209.14,199s4.3-.4,10.58-.82S229.8,202.83,229.8,202.83Z"/><path class="cls-3" d="M225.89,207.57c.27-.43-2.36-.81-4.72-2.91s-7.32-4.57-8.76-4.44a20.27,20.27,0,0,1-3,0s6.18.93,8.26,3.67a42.64,42.64,0,0,0,6.66,6.19l1.59-1.92"/><path class="cls-3" d="M223.44,211.29c.22-.35-2.08-1-4.26-3a19.45,19.45,0,0,0-4.07-2.77,12.28,12.28,0,0,0-4.26-1.54,20.24,20.24,0,0,1-2.85-.1s1.55.47,3.51,1.29a10.73,10.73,0,0,1,4,2.39,33.73,33.73,0,0,0,2.94,2.83c1.76,1.52,3.4,2.76,3.5,2.83s1.51-1.42,1.51-1.42"/><path class="cls-3" d="M221,215c.18-.28-1.8-1.16-3.8-3.14a15.82,15.82,0,0,0-3.83-2.7,12.74,12.74,0,0,0-4.07-1.47,21.32,21.32,0,0,1-2.69-.21s1.13.65,3,1.53a14.06,14.06,0,0,1,3.81,2.16c.76.73,1.77,1.62,2.87,2.51,1.67,1.36,3.14,2.47,3.33,2.61.35.28,1.43-.9,1.43-.9"/><path class="cls-3" d="M218.54,218.7c.13-.21-1.52-1.33-3.35-3.25a13.13,13.13,0,0,0-3.58-2.63,14.21,14.21,0,0,0-3.87-1.41,24.34,24.34,0,0,1-2.55-.3,9.89,9.89,0,0,0,2.43,1.76,23.67,23.67,0,0,1,3.61,1.93c.74.6,1.7,1.37,2.79,2.2l3.17,2.39c.53.4,1.36-.39,1.36-.39"/><path class="cls-3" d="M216.08,222.35A25.56,25.56,0,0,0,213.2,219a10.85,10.85,0,0,0-3.35-2.55,15.64,15.64,0,0,0-3.67-1.35,19.42,19.42,0,0,1-2.39-.41,4.35,4.35,0,0,0,1.88,2c1.15.74,2.14.87,3.41,1.7.72.47,1.63,1.11,2.73,1.88,1.48,1,2.63,1.88,3,2.17a1.05,1.05,0,0,0,1.27.12"/><path class="cls-3" d="M213.63,225.91a17.69,17.69,0,0,0-2.42-3.49,9.09,9.09,0,0,0-3.11-2.48,19.17,19.17,0,0,0-3.48-1.29,18.51,18.51,0,0,1-2.23-.51,2.73,2.73,0,0,0,1.34,2.25c1,.78,1.82.77,3.21,1.47.68.35,1.56.86,2.66,1.56,1.38.88,2.38,1.59,2.84,2,.89.68,1.2.63,1.2.63"/><path class="cls-3" d="M201,221.54a46.28,46.28,0,0,1,5.36,1.83c3.27,1.43,4.84,6,4.84,6s-.13-.78-3.79-2.88-4.29-1.3-5.61-2.48A2.28,2.28,0,0,1,201,221.54Z"/><path class="cls-3" d="M205.15,232.15c-3.13-1.75-4.07-1.35-5.43-2.54s-1-2.36-.82-2.28a39.3,39.3,0,0,1,4.82,1.73c2.9,1.33,4.36,5.29,4.49,5.35s-.06-.13-.65-.79A14.47,14.47,0,0,0,205.15,232.15Z"/><path class="cls-3" d="M202.85,237.8c-2.59-1.42-3.85-1.4-5.26-2.6s-1.14-2.22-.83-2.07a38.54,38.54,0,0,1,4.27,1.64c2.54,1.2,3.89,4.55,4.16,4.67.06,0,.09-.15-.42-.6C204.85,238.58,203.82,238.34,202.85,237.8Z"/><path class="cls-3" d="M200.54,243.45c-2-1.08-3.63-1.45-5.07-2.66-1.25-1-1.33-2.08-.86-1.86a36.85,36.85,0,0,1,3.73,1.54c2.17,1.09,3.42,3.83,3.82,4,.09,0,.16-.07-.18-.41C202.38,243.9,201.27,243.84,200.54,243.45Z"/><path class="cls-3" d="M198.14,249.1a25.17,25.17,0,0,1-4.89-2.72c-1.22-1-1.5-1.93-.88-1.66a31.59,31.59,0,0,1,3.19,1.45c1.81,1,2.95,3.1,3.48,3.33.13.06.23,0,.07-.22C199.82,249.22,198.64,249.35,198.14,249.1Z"/><path class="cls-3" d="M195.65,254.65a23.31,23.31,0,0,1-4.71-2.78c-1.2-1-1.69-1.78-.9-1.45a19.57,19.57,0,0,1,2.64,1.35c1.44.88,2.48,2.37,3.14,2.66.16.07.31.07.31,0C197.16,254.43,195.9,254.76,195.65,254.65Z"/><path class="cls-3" d="M193.14,260c-.87.1-7.67-5-5.45-4.08s4.11,3.27,5.45,3.4S193.14,260,193.14,260Z"/><path class="cls-3" d="M300.51,151.42c.5,1,4.19-1.61,6.3-.45s.68-.95.68-.95a5.77,5.77,0,0,0-4.53-1.16,14.8,14.8,0,0,0-4.2,1.29Z"/><path class="cls-3" d="M297.26,149.18c.06-.06,1.06-3.22,2.71-3.69.48-.14,1,.28,2,.12,2.81-.49,5.23,2.49,5.23,2.49s1,1.12-1.18-.17a2.75,2.75,0,0,0-1.25-.4,10.78,10.78,0,0,0-3.26.1c-1.12.33-2.35,2.07-2.57,1.62Z"/><path class="cls-3" d="M295.71,147.76c.13-.11,1-5.9,2.41-6.33.6-.19,1.27.35,2.75.48,3,.27,5.93,3.83,5.93,3.83s.56.11-1.69-1.3a3.2,3.2,0,0,0-1.53-.51,22.9,22.9,0,0,0-4-.18c-.9.27-2.18,3.25-2.36,2.9Z"/><path class="cls-3" d="M294.11,146.26c.2-.16,1-8.6,2.11-9,.71-.24,1.52.55,3.53.85,3.09.45,6.63,5.15,6.63,5.15s.14-.89-2.19-2.42a3.62,3.62,0,0,0-1.8-.61c-2.64-.14-4.29-.58-4.71-.46-.68.2-2,4.43-2.14,4.16Z"/><path class="cls-3" d="M292.48,144.77c.27-.22,1-11.31,1.81-11.61s1.79.72,4.31,1.2c3.23.62,7.34,6.49,7.34,6.49a5.83,5.83,0,0,0-2.7-3.54,4,4,0,0,0-2.07-.73,50.23,50.23,0,0,1-5.44-.73c-.45.13-1.84,5.61-1.93,5.43Z"/><path class="cls-3" d="M290.85,143.27c.34-.26,1-14,1.5-14.24.95-.38,2.06.86,5.1,1.56,3.38.78,8,7.83,8,7.83a8.8,8.8,0,0,0-3.2-4.68,4.44,4.44,0,0,0-2.35-.83,25.86,25.86,0,0,1-6.16-1c-.23.07-1.68,6.79-1.72,6.7Z"/><path class="cls-3" d="M289.22,141.79c.41-.32.93-16.76,1.2-16.89,1-.49,2.34,1,5.88,1.92s8.75,9.17,8.75,9.17-1.86-6.55-6.33-6.74a20.27,20.27,0,0,1-6.9-1.29Z"/><path class="cls-3" d="M302.63,105.68c-.23.64,2.81,12.31,5.94,20.64,1.57,4.18,3.9,11.88,3.9,11.88s-.81-4.63-1.45-7.71S302.63,105.68,302.63,105.68Z"/><path class="cls-3" d="M305.05,126.32c-.2-.46-4.13-2.95-4.8-5.88s1.38-17.71,1.38-17.71-4.75,14-3.47,16.7S305.05,126.32,305.05,126.32Z"/><path class="cls-3" d="M302.63,105.68s5.43,7.83,7.1,9.32,1.54,7.71,1.54,7.71,2.14-3.4,1.2-5.2-4.15-5.23-5.57-7.18A43.63,43.63,0,0,0,302.63,105.68Z"/><path class="cls-3" d="M294.31,115l5.94-13.94s-.73,8.86-2.31,10.92A11,11,0,0,1,294.31,115Z"/><path class="cls-3" d="M292.88,112.37c.14-.39,1.63-3.47,2.94-6.69a26.36,26.36,0,0,1,4.43-6.55s-1.06,4.9-3.12,7.53S292.88,112.37,292.88,112.37Z"/><path class="cls-3" d="M290.58,111s-1.67-1.8.77-5.2,8.1-11.64,8.1-11.64-1.73,5.92-3.63,8.42S290.58,111,290.58,111Z"/><path class="cls-3" d="M281.68,101.06a48,48,0,0,1,1.32,9.27c.25,5.12-.1,15.14-.66,14.47s-.76-14.4-1.53-17.21S281.68,101.06,281.68,101.06Z"/><path class="cls-3" d="M236,112.37c.19.12,18.57-8.87,22.49-10.67s21.07-12,21.13-11.48,3.44,7.88,3.44,7.88l-5.61-4s-5.66.13-3.6,2.57a16.79,16.79,0,0,1,2.83,4.6s-5.79-5.62-7.33-4-6.17,2.83-4.63,4.5.78,4.83.78,4.83-2.19-4.83-4.37-4.13-6.17-.07-4,1.86a6.5,6.5,0,0,1,2.39,3.64s-1.72-3.38-4.43-2.35-4,.71-2.52,2.35.61-.87-2.23,0-4.13-.12-5.93,2.3S236,112.37,236,112.37Z"/><path class="cls-3" d="M303.36,98.23s5.73,8.32,7.4,9.36,6,4.27,5.53,6.06a23.13,23.13,0,0,0-.51,5,4.34,4.34,0,0,0-.78-5.11c-2.31-2.7-4.83-3.76-7-5.93S303.36,98.23,303.36,98.23Z"/><path class="cls-3" d="M285.31,98.23c-.26-.77-6.65-5.66-4-11.57s5.56-6,6.56-5,3.7,6.42,3.7,6.42,1.58-2.38,0-4.52-4.85-6.13-7.73-4-4.94,4.21-5,7.23,1.1,8.43,3.75,10.38S285.31,98.23,285.31,98.23Z"/><path class="cls-3" d="M306.26,84.26s2.83-3.61,5.27-5,3.51-1,4.8.5,1,7.08,1,7.08,1.43-9.36-1.7-10.2-5.4,1.46-6.86,3.12A17,17,0,0,0,306.26,84.26Z"/><path class="cls-3" d="M256.45,200.22l-1,1-1,1-1,1-1,1a1.73,1.73,0,0,1,.81-.43,3.09,3.09,0,0,1,1.09-.05,5.54,5.54,0,0,1,1.61.48c.63.29,1,.19,1.12-.12a2.56,2.56,0,0,0,0-1.41,12.46,12.46,0,0,0-.48-1.62C256.58,200.54,256.45,200.22,256.45,200.22Z"/><path class="cls-3" d="M256.53,207.06c-.2.11-1.14,1-1.35,1.17s-1,1-1.19,1.16l-.09.09c-.31.31-1.26,1.31-1.26,1.31a3.39,3.39,0,0,1,.94-.76l.53-.25a4.1,4.1,0,0,1,.77-.22,3.61,3.61,0,0,1,2.06.12l.1,0a2,2,0,0,0,1.56.12c.59-.06.86-.31.78-.74s-.35-1.22-.47-1.57l-.29-.77A5.16,5.16,0,0,0,256.53,207.06Z"/><path class="cls-3" d="M257.54,213.16a15.55,15.55,0,0,0-1.75,1.35c-.37.31-1.17,1.1-1.48,1.4l-.11.11c-.63.63-1.55,1.65-1.55,1.65a6.08,6.08,0,0,1,1.06-1.09c.19-.14.39-.29.61-.43a7.06,7.06,0,0,1,.91-.47,3.61,3.61,0,0,1,2.59-.2l.12,0a17.29,17.29,0,0,0,2,.38c1,.28,1.61.21,1.55-.08s-.38-1.29-.46-1.52-.27-.77-.27-.77A3.49,3.49,0,0,0,257.54,213.16Z"/><path class="cls-3" d="M258.55,219.31a13.49,13.49,0,0,0-2.15,1.54c-.55.46-1.31,1.18-1.77,1.64l-.13.13c-.95.94-1.85,2-1.85,2a9.13,9.13,0,0,1,1.19-1.41c.21-.21.44-.41.69-.62a8.64,8.64,0,0,1,1-.71,4,4,0,0,1,3.11-.53l.14,0c1,.28,1.79.47,2.45.64a11.34,11.34,0,0,0,2.33.58c0-.14-.42-1.36-.46-1.47l-.25-.77S260.85,218.15,258.55,219.31Z"/><path class="cls-3" d="M265,227.19s-2.39-3.27-5.47-1.73a20.63,20.63,0,0,0-4.61,3.61c-1.34,1.33-2.3,2.46-2.3,2.46a14.34,14.34,0,0,1,2.1-2.53c1.27-1.2,3-2.29,4.81-1.81a39,39,0,0,1,6.16,2.19Z"/><path class="cls-3" d="M273.82,259.38l-3.7,1.95s3.65,0,4.29-1.58-.33-3.93-.33-3.93Z"/><path class="cls-3" d="M269.05,257.61c-.16,0,2.86-1.61,2.66-1.49s-.21-2.82-.21-2.82a13.61,13.61,0,0,1,.87,1.06c.38.5.82.93.58,1.49a2.15,2.15,0,0,1-1.12,1.16A9.35,9.35,0,0,1,269.05,257.61Z"/><path class="cls-3" d="M267.92,253.9c-.31,0,2-1.27,1.63-1s-.69-2.08-.69-2.08a2.51,2.51,0,0,1,1.27.3c.7.32,1.52.38,1.32.86s-.43,1.05-.89,1.24A7.69,7.69,0,0,1,267.92,253.9Z"/><path class="cls-3" d="M267,250.41c-.46,0,1.18-.92.59-.56s-1.16-1.34-1.16-1.34a2.11,2.11,0,0,1,1.66-.46c1.05.09,2.22-.17,2.06.23s-.27,1.15-.65,1.33A5.32,5.32,0,0,1,267,250.41Z"/><path class="cls-3" d="M266.64,247.28c-.61,0,.34-.57-.45-.1-.95.56-1.62-.59-1.62-.59a2.91,2.91,0,0,1,2.05-1.23c1.38-.14,2.92-.71,2.79-.39s-.11,1.25-.41,1.41A3.56,3.56,0,0,1,266.64,247.28Z"/><path class="cls-3" d="M266.24,243.9c-.77,0-.5-.23-1.49.36a2.09,2.09,0,0,1-2.09.15,3.94,3.94,0,0,1,2.45-2c1.69-.39,3.62-1.26,3.52-1s.07,1.4-.17,1.49A2.17,2.17,0,0,1,266.24,243.9Z"/><path class="cls-3" d="M265.78,240.36a3.88,3.88,0,0,0-2.52.83,6,6,0,0,1-2.57.88,5.1,5.1,0,0,1,2.84-2.74c2-.64,4.33-1.81,4.26-1.65s.23,1.51.08,1.57C267.62,239.61,267.8,240.41,265.78,240.36Z"/><path class="cls-3" d="M265.28,236.73a6.9,6.9,0,0,0-3.56,1.29c-1.66,1-3,1.62-3,1.62a6.33,6.33,0,0,1,3.23-3.5c2.32-.89,5-2.36,5-2.28s.39,1.63.31,1.66C267.15,235.86,267.64,236.79,265.28,236.73Z"/><path class="cls-3" d="M266.47,231.78c.11.33.9,1.39-1.8,1.32s-8.1,4.12-8.1,4.12a7.56,7.56,0,0,1,3.62-4.27c2.63-1.13,5.73-2.9,5.73-2.9Z"/><path class="cls-3" d="M102.55,184.51s-1.62-.75-2.37,0l-1.75,1.75v-5.63s-.73.16,1.32,1.33A7.49,7.49,0,0,1,102.55,184.51Z"/><path class="cls-3" d="M89.8,160c0-.2-.17-.8,1-1s-1-2.07-1-2.07-1.48-1.11-1.36,0A10.45,10.45,0,0,0,89.8,160Z"/><path class="cls-3" d="M86.92,148.16s1.07-2.13.19-3.26-.15-4.52-.15-4.52-1.82,2.73-.93,5.25Z"/><path class="cls-2" d="M283.79,96.46l8.53,6.27s.56-9,4.24-6.27,4.42,17,6.8,22.17,7.26,13.65,7.26,13.65-1.6-9-2.66-15.45,1.23-10.19,0-14.3.38-4.1,2.66-8.42-.78-14.64-.78-14.64l-8.16,11.24-6-9.32-3.49,5.41s-3.3-10.2-8.36-5.19C276.64,88.69,283.79,96.46,283.79,96.46Z"/><path class="cls-3" d="M72,162.35a6.27,6.27,0,0,0,.49-1.74c1.07-5.35,3.3-21.31,15-31.4A132,132,0,0,1,115.13,111a33.54,33.54,0,0,0-19.51,5.88c-9.16,6.52-20.64,26.66-22.2,32s-3.71,17.07-3.71,17.07"/><path class="cls-2" d="M100.43,258.58c-4.15-14.7-14.18-48.44-14.13-50.42s-6-3.13-6-3.13,8.76,32.15,10.43,40.37c1.34,6.6,4.68,31.14,4.68,31.14l18.35,3.25L101,260"/><polygon class="cls-2" points="193.74 286.44 188.67 258.58 218.51 198.21 207.32 198.95 184.33 258.66 187.86 286.88 193.74 286.44"/><path class="cls-2" d="M105.84,250.78c-.24-.48-9.49-31.5-7.14-32.45s14.13-9.52,14.13-9.52l-8.31,28.45Z"/><path class="cls-2" d="M235.17,200.22s10.27,3.21,13.82,0a24.34,24.34,0,0,1,7.58-4.57s-9.19,8.49-6.28,14.62,11.75,35.5,15.42,38.44,13.79,25.56,13.79,25.56l-8.81-1s-5.31-16.52-8.08-22.46C255.62,235.84,234.44,198.56,235.17,200.22Z"/><path class="cls-1" d="M100.66,268.17c.17.52-3.29,8.57-3.29,8.57l-.39-6.3-2,4.16-1.86-6.43-.43,7.46-2.29-4.49-.64,5.4-1.94-4.09-1.18,2.89-3.26-8v10.14l-2-3.15v3.85l-2.25-2.62v4l-1.47-1.22.86,5.65c7.33,3.19,14.69,4.74,22.16-.55l1.11-8.43-1.35,1.75Z"/><path class="cls-1" d="M120.26,268.17c.16.52-3.29,8.57-3.29,8.57l-.39-6.3-2,4.16-1.85-6.43-.43,7.46-2.3-4.49-.64,5.4-1.94-4.09-1.18,2.89-3.25-8v10.14l-2-3.15v3.85l-2.24-2.62v4l-1.47-1.22.86,5.65c7.33,3.19,14.69,4.74,22.16-.55l1.11-8.43-1.35,1.75Z"/><path class="cls-1" d="M135.39,282.32c-12,.75-12.2-5-16.1-4.25s-39.17-.25-41.29,2.12-4.62,4.13-6.62,3.88.44,5,13.35,5,34,1.5,39,0S135.39,282.32,135.39,282.32Z"/><path class="cls-1" d="M190.34,270.51c.17.52-3.29,8.56-3.29,8.56l-.39-6.29-2,4.16-1.86-6.43L182.4,278l-2.3-4.49-.64,5.4-1.94-4.09-1.18,2.89-3.26-8.05v10.15l-2-3.15v3.85l-2.25-2.62v4l-1.46-1.22.85,5.64c7.33,3.2,14.69,4.75,22.17-.54l1.1-8.43-1.35,1.74Z"/><path class="cls-1" d="M209.94,270.51c.17.52-3.29,8.56-3.29,8.56l-.39-6.29-2,4.16-1.85-6.43L202,278l-2.3-4.49-.64,5.4-1.94-4.09-1.18,2.89-3.25-8.05v10.15l-2-3.15v3.85l-2.24-2.62v4L187,280.66l.86,5.64c7.33,3.2,14.69,4.75,22.16-.54l1.11-8.43-1.35,1.74Z"/><path class="cls-1" d="M225.07,284.66c-12,.75-12.2-5-16.1-4.25s-39.17-.25-41.29,2.12-4.62,4.13-6.62,3.88.44,5,13.35,5,34,1.5,39,0S225.07,284.66,225.07,284.66Z"/><path class="cls-1" d="M271.08,260.89c.17.53-3.29,8.57-3.29,8.57l-.39-6.29-2,4.15-1.86-6.43-.42,7.46-2.3-4.48-.64,5.39-1.94-4.09-1.18,2.89-3.25-8v10.14l-2-3.15v3.85l-2.24-2.62v4L248.14,271l.86,5.65c7.33,3.19,14.68,4.74,22.16-.54l1.1-8.44-1.35,1.75Z"/><path class="cls-1" d="M290.68,260.89c.17.53-3.29,8.57-3.29,8.57l-.39-6.29-2,4.15-1.85-6.43-.43,7.46-2.3-4.48-.63,5.39-1.94-4.09-1.18,2.89-3.26-8v10.14l-2-3.15v3.85l-2.25-2.62v4L267.73,271l.86,5.65c7.33,3.19,14.69,4.74,22.16-.54l1.11-8.44-1.35,1.75Z"/><path class="cls-1" d="M305.81,275c-12,.75-12.2-5-16.1-4.25s-39.17-.25-41.29,2.13-4.62,4.12-6.62,3.87.44,5,13.35,5,34,1.5,39,0S305.81,275,305.81,275Z"/><path class="cls-1" d="M316.33,274.27c-14.63.76-61.89,6.81-71.09,6.07s-11.68-.41-23.58,3.53-37.14,8-51,5.35-8.8-13.39-39.65-5.35-66.65-8.82-76.25-4.08-57.61,17.46,9.7,18.69,88.55,7.8,108.3,6.16,87.92-3.7,102.68-8.21,50-13.07,47.36-17A13.75,13.75,0,0,0,316.33,274.27Z"/></svg>