<svg id="Calque_1" data-name="Calque 1" xmlns="http://www.w3.org/2000/svg" viewBox="0 0 343.13 343.13"><defs><style>.cls-1,.cls-3{fill:#282246;}.cls-2{fill:#5b6c9a;}.cls-3,.cls-6,.cls-8{opacity:0.5;}.cls-4{fill:#ed6464;}.cls-5{fill:#f0e4d8;}.cls-7,.cls-8{fill:none;stroke-miterlimit:10;}.cls-7{stroke:#282246;}.cls-8{stroke:#f0e4d8;}</style></defs><path class="cls-1" d="M124.09,245.61s61.6,32.3,102.22,14.69c31.68-13.73,38.74-30.76,38.74-30.76l-14-7.9Z"/><path class="cls-2" d="M250.88,222c-15.68,33.91-76.5,42.68-138.15,19.32C53.56,218.88,19,163.2,21.87,137.4c.2-1.77,5-1.13,5.53-2.6s-2.92-5.43-1.79-7c12-16.69,52.92-31.51,98.4-26.43a31.78,31.78,0,0,0-7.28,9c-14.3,26.33,12,68.24,58.67,93.62C202,218.42,229.49,224.39,250.88,222Z"/><path class="cls-3" d="M38.15,142.93c3.85,1.46,15.38,0,18.26-3.71S60.3,129,60.3,129s26.52-10.88,28.52-13.23l.06-.07a7.79,7.79,0,0,1,8.68-2.34l22.53,8.36,3.92-20.3s-40.26-1.63-45.58,1.73-5.51,8.86-11.8,9.16-7.27,2.77-11.95,4.48-14.55-2.25-18.19.58,4.06,7.24,2.7,11.62C36.25,138.47,34.3,141.48,38.15,142.93Z"/><path class="cls-2" d="M127.2,126.47v1h0c8.42,0,21.46,4.48,34,11.69,21,12.06,31.81,26,28.67,31.52-1.34,2.34-4.91,2.83-7.66,2.83-8.43,0-21.47-4.48-34-11.69-21-12.08-31.82-26-28.69-31.52,1.35-2.34,4.92-2.83,7.67-2.83v-1m0,0c-4.2,0-7.23,1.07-8.53,3.33-3.86,6.74,9.15,21.46,29.05,32.89,13.23,7.6,26.18,11.82,34.52,11.82,4.2,0,7.23-1.08,8.53-3.34,3.87-6.74-9.13-21.46-29-32.88-13.23-7.6-26.18-11.82-34.52-11.82Z"/><path class="cls-2" d="M253.36,199A41.83,41.83,0,0,1,251.08,219c-.14.37-.27.7-.4,1l-21.54-19a205.75,205.75,0,0,1,24.22-2m.88-1a210,210,0,0,0-27.39,2.34L251,221.64c.36-.76.67-1.54,1-2.33A43.1,43.1,0,0,0,254.24,198Z"/><path class="cls-2" d="M127.2,126.47v1h0c8.42,0,21.46,4.48,34,11.69,21,12.06,31.81,26,28.67,31.52-1.34,2.34-4.91,2.83-7.66,2.83-8.43,0-21.47-4.48-34-11.69-21-12.08-31.82-26-28.69-31.52,1.35-2.34,4.92-2.83,7.67-2.83v-1m0,0c-4.2,0-7.23,1.07-8.53,3.33-3.86,6.74,9.15,21.46,29.05,32.89,13.23,7.6,26.18,11.82,34.52,11.82,4.2,0,7.23-1.08,8.53-3.34,3.87-6.74-9.13-21.46-29-32.88-13.23-7.6-26.18-11.82-34.52-11.82Z"/><circle class="cls-1" cx="71.11" cy="120.38" r="7.92"/><path class="cls-4" d="M232.61,202.08a199.82,199.82,0,0,1,21.66-1.58l2.58,0a127,127,0,0,1,29,3.13A83.71,83.71,0,0,1,316,217.11l-22.08,39Z"/><path class="cls-1" d="M256.84,203A124.31,124.31,0,0,1,285.28,206a82.07,82.07,0,0,1,27.45,11.81l-19.45,34.32-38.6-34-.34-.3L238.5,203.93c5.5-.55,10.79-.86,15.82-.93l2.52,0m0-5-2.6,0a210,210,0,0,0-27.39,2.34L251,221.64l.33.29L294.6,260l24.68-43.57a85,85,0,0,0-32.85-15.25,128.32,128.32,0,0,0-29.59-3.2Z"/><path class="cls-1" d="M84.51,168.42c2.19-5.79,17.14-16.77,22.41-13.53,1.18.73-11.54,2.85-3.06,16.87,3.2,5.29-7.06,13.29-12.84,11.1A11.2,11.2,0,0,1,84.51,168.42Z"/><circle class="cls-5" cx="75.78" cy="119.98" r="1.35"/><path class="cls-1" d="M226.85,200.34A210,210,0,0,1,254.24,198c-4.37-32.13-40.54-68-92-87.45A157.55,157.55,0,0,0,124,101.37a31.78,31.78,0,0,0-7.28,9c-14.3,26.33,12,68.24,58.67,93.62,26.61,14.46,54.09,20.43,75.48,18a1.5,1.5,0,0,0,.16-.34Zm-36.09-29.17c-3.86,6.74-23.15,3-43-8.48s-32.91-26.15-29.05-32.89,23.15-2.94,43.05,8.49S194.63,164.43,190.76,171.17Z"/><path class="cls-2" d="M190.76,171.17c-3.86,6.74-23.15,3-43-8.48s-32.91-26.15-29.05-32.89,23.15-2.94,43.05,8.49S194.63,164.43,190.76,171.17Z"/><g class="cls-6"><circle class="cls-5" cx="110.04" cy="163.3" r="7.02"/></g><path class="cls-7" d="M88,131.42c6.52,9.67.76,25-12.87,34.14s-29.95,8.79-36.47-.88"/><path class="cls-8" d="M86.82,129.19c6.52,9.68.76,25-12.86,34.15s-30,8.79-36.48-.88"/><path class="cls-7" d="M26.31,126.88a2.26,2.26,0,0,0-.67,2.91,48.16,48.16,0,0,1,1.76,5s-5,1.53-5.27,2.06a13.7,13.7,0,0,0-.53,1.37"/><path class="cls-3" d="M232.83,251.33s-29.37,17.92-108.74-5.72S25.2,157.92,25.2,157.92s50.31,46.16,111.73,71.89c55,23,103.72-3.57,113.36-9.41,1.13-.69,7.58,1.13,7.58,1.13Z"/><g class="cls-6"><ellipse class="cls-5" cx="158.47" cy="145.01" rx="5.47" ry="33.56" transform="translate(-46.75 208.44) rotate(-59.63)"/></g><g class="cls-6"><path class="cls-5" d="M226.85,200.34s43.58,14.68,53.87,15.92S310.45,232,310.45,232l8.83-15.59S290.57,189.78,226.85,200.34Z"/></g><path class="cls-3" d="M226.85,200.34s30.48,16.12,44.33,19.32S304.79,242,304.79,242L294.6,260,226,202.55"/><g class="cls-6"><circle class="cls-5" cx="40.59" cy="97.57" r="11.72"/></g><g class="cls-6"><circle class="cls-5" cx="64.62" cy="94.42" r="6.15"/></g><circle class="cls-5" cx="43.87" cy="95.61" r="3.28"/><circle class="cls-5" cx="59.32" cy="79.53" r="1.96"/></svg>