<svg id="Calque_1" data-name="Calque 1" xmlns="http://www.w3.org/2000/svg" viewBox="0 0 343.13 343.13"><defs><style>.cls-1{fill:#5b6c9a;}.cls-1,.cls-2,.cls-3{stroke:#f0e4d8;stroke-miterlimit:10;}.cls-2{fill:#ed6464;}.cls-3{fill:#74bf96;}</style></defs><path class="cls-1" d="M33.43,162.13c11,0,20,11.66,20,26s-9,26-20,26-20-11.67-20-26,9-26,20-26m0-3.64c-13,0-23.64,13.27-23.64,29.64s10.59,29.63,23.64,29.63,23.65-13.27,23.65-29.63-10.59-29.64-23.65-29.64Z"/><path class="cls-1" d="M175.6,171.87c8.78,0,15.93,9.12,15.93,20.34s-7.15,20.33-15.93,20.33-15.92-9.12-15.92-20.33,7.14-20.34,15.92-20.34m0-3.63c-10.8,0-19.55,10.73-19.55,24s8.75,24,19.55,24,19.56-10.74,19.56-24-8.76-24-19.56-24Z"/><path class="cls-2" d="M211.38,174c7.79,0,14.12,8.19,14.12,18.27s-6.33,18.27-14.12,18.27-14.11-8.2-14.11-18.27S203.6,174,211.38,174m0-3.63c-9.8,0-17.74,9.8-17.74,21.9s7.94,21.9,17.74,21.9,17.75-9.81,17.75-21.9-7.94-21.9-17.75-21.9Z"/><path class="cls-3" d="M243,177.88c6.79,0,12.32,6.9,12.32,15.39s-5.53,15.4-12.32,15.4-12.33-6.91-12.33-15.4,5.53-15.39,12.33-15.39m0-3.64c-8.81,0-16,8.52-16,19s7.15,19,16,19,16-8.52,16-19-7.14-19-16-19Z"/><path class="cls-1" d="M271.28,177.88c6.8,0,12.33,6.9,12.33,15.39s-5.53,15.4-12.33,15.4S259,201.76,259,193.27s5.53-15.39,12.32-15.39m0-3.64c-8.81,0-15.95,8.52-15.95,19s7.14,19,15.95,19,16-8.52,16-19-7.14-19-16-19Z"/><path class="cls-2" d="M295.11,179.44c6.09,0,11,6.55,11,14.61s-4.95,14.62-11,14.62-11.05-6.56-11.05-14.62,5-14.61,11.05-14.61m0-3.63c-8.11,0-14.68,8.17-14.68,18.24S287,212.3,295.11,212.3s14.68-8.17,14.68-18.25-6.58-18.24-14.68-18.24Z"/><path class="cls-3" d="M319.34,182.3c5.37,0,9.74,5.92,9.74,13.19s-4.37,13.18-9.74,13.18-9.74-5.92-9.74-13.18,4.37-13.19,9.74-13.19m0-3.63c-7.39,0-13.38,7.53-13.38,16.82s6,16.81,13.38,16.81,13.37-7.53,13.37-16.81-6-16.82-13.37-16.82Z"/><path class="cls-2" d="M89.69,167.8c9.38,0,17,10,17,22.37s-7.63,22.37-17,22.37-17-10-17-22.37,7.63-22.37,17-22.37m0-3.63c-11.39,0-20.64,11.64-20.64,26s9.25,26,20.64,26,20.64-11.65,20.64-26-9.24-26-20.64-26Z"/><path class="cls-3" d="M138.53,170.06c9,0,16.26,9.12,16.26,20.34s-7.29,20.33-16.26,20.33-16.27-9.12-16.27-20.33,7.3-20.34,16.27-20.34m0-3.63c-11,0-19.9,10.73-19.9,24s8.91,24,19.9,24,19.89-10.73,19.89-24-8.9-24-19.89-24Z"/></svg>