<svg id="Calque_1" data-name="Calque 1" xmlns="http://www.w3.org/2000/svg" viewBox="0 0 343.13 343.13"><defs><style>.cls-1{fill:#282246;}.cls-2{opacity:0.5;}.cls-3{fill:#f0e4d8;}.cls-4{opacity:0.8;}.cls-5{opacity:0.4;}.cls-6{opacity:0.1;}.cls-7{opacity:0.6;}.cls-8{opacity:0.3;}</style></defs><path class="cls-1" d="M145.75,213.47v19s8.64,20.12,8.9,23.36-2.7,29.52-2.7,29.52h29.92V245.93l-21.8-30.87Z"/><g class="cls-2"><polygon class="cls-3" points="166.75 285.35 163.81 249.88 151.95 232.47 151.95 214.16 160.07 215.06 172.89 229.16 181.4 248.82 181.87 285.35 166.75 285.35"/></g><rect class="cls-3" x="31.23" y="78.15" width="139.55" height="6.31"/><rect class="cls-3" x="55.14" y="83.93" width="1.94" height="44.71"/><rect class="cls-3" x="148.01" y="80.5" width="1.94" height="44.71"/><rect class="cls-1" x="31.27" y="82.12" width="139.51" height="2.34"/><path class="cls-1" d="M194.19,173.73l-19.8,16.44-.47,11,.47,12.5,31.7,24.15,7.4,8.31-2.28,4-7.52,11.09v14.84l-32.83-16.66,17-15-29.74-14.43L144,211.14,93.25,227.56,76.6,218.13l2.8,18.14L74.65,258l10.56,18.21-8.61,9.1-20.95-2.77s1.14-11.2.54-13.75-5.29-29.74-5.29-29.74L33.82,261.3l1.64,20.29L11.71,266.75l5.54-10.49,15.64-23.55L34,220l-3.19-16.59,17.67-6,40,1.58s60.3,6.06,60.58,4.75,24.89-21.75,25.33-23.45-22.47-38.75-22.47-38.75L150,121.71l13.29-5.81,19.77,21.81s55.41,18.6,55.15,18.6,27.31,15.44,27.51,16,12.83,12.43,12.83,12.43,33.66-2.81,33.47-4.62,16.68-14.62,16.68-14.62l6.31-10-2,15-1.58,4.55-14.25,12.66-4,3.17-23.75,6.33-4.75,1.59L255.52,179l-46.46-14.41-14.95,8.86"/><polygon class="cls-3" points="55.57 127.23 158.09 127.23 158.09 201.2 31.27 200.54 55.57 127.23"/><path class="cls-3" d="M56.36,276,53.19,239.2s6.22-7.12,11.36-6.73S79.32,236,79.32,236l-4.75,21.77,4.75,8.31Z"/><polygon class="cls-3" points="30.85 203.45 45.67 232.47 53.19 226.54 79.32 232.47 76.94 212.29 64.28 207.14 57.35 209.91 30.85 203.45"/><polygon class="cls-3" points="48.44 241.97 37.36 258.99 35.38 270.08 19.94 265.33 17.17 256.02 32.81 232.47 40.92 229.69 48.44 241.97"/><polygon class="cls-3" points="56.01 282.28 55.57 290.26 88.42 290.26 93.17 284.33 81.69 272.45 74.37 279.58 56.01 282.28"/><polygon class="cls-3" points="35.38 272.45 35.38 285.12 17.17 278.79 5.69 272.45 11.63 266.51 35.38 272.45"/><path class="cls-3" d="M81.69,197.24c.4,1.19,11.48,16.23,11.48,16.23v13.86l21.77,2.36,28.9-16.22H156.9l15.44-16.23Z"/><polygon class="cls-3" points="174.13 207.73 160.07 215.06 158.09 229.69 175.9 239.2 185.8 245.93 197.67 241.18 203.61 234.45 174.13 207.73"/><path class="cls-3" d="M203.61,261s8.71-10.3,7.52-11.09-15.44-12.26-15.44-12.26l-14.84,12.26s8.51,5.16,9.7,5.16S203.61,261,203.61,261Z"/><path class="cls-3" d="M203.61,281.36c.39-.2,0-14.85,0-14.85l-29.69-10.68L167.19,263l18.3,9.5Z"/><polygon class="cls-3" points="158.09 199.62 173.92 201.2 182.63 185.77 188.96 183.79 194.11 173.5 153.73 125.2 139.09 133.12 147.8 153.7 156.11 174.68 158.09 199.62"/><path class="cls-3" d="M30.85,203.45,20.54,173.89c1.78-1.58,12.27-16.62,12.27-16.62l26.72-19.8L39.94,175.08l1.38,26.12Z"/><path class="cls-3" d="M216.67,172.31c1.19.39,24.94,6.73,24.94,6.73l8.71-6.73,16.62,3.36L261.4,160l-11.08-16.63-5.94-15.83-14.65-7.92-15-10.69-18.94-3.61-6.39,4.8-.4,15,19.4,12.27,7.87-1.92Z"/><path class="cls-3" d="M214.69,187.74s4-53,1.58-52.64-16.22-6.73-17.41-7.13-9.71-9.88-9.71-9.88l.21-7.93L170,104.62l-21,15,5.94,11.09,5.94-5.55-2.77,15,14.25,16.62,8.51-9.1v11.87l17.22,13.06,5.71,2.38,3,9.89Z"/><g class="cls-4"><path class="cls-1" d="M214.69,187.74s4-53,1.58-52.64-16.22-6.73-17.41-7.13-9.71-9.88-9.71-9.88l.21-7.93L170,104.62l-21,15,5.94,11.09,5.94-5.55-2.77,15,14.25,16.62,8.51-9.1v11.87l17.22,13.06,5.71,2.38,3,9.89Z"/></g><path class="cls-3" d="M259.6,174.19s2.59,15.14,20.4,25,47.9,15.84,47.9,15.84-34.44,2.77-54.63-7.92-27.46-31.35-27.46-31.35l4.51-3.48Z"/><path class="cls-3" d="M266.94,175.67c2,1,19.91,6.14,19.91,6.14l22.84-6.14,13.06-8.11,9.11-14.65,6.73-3L333,170.53H327.9l3.56,4.55-14.25,12.66L312.86,183l.39,7.92-23.75,6.33-2.65-5.54-2.1,7.13-17.81-3.17L257.84,179Z"/><rect class="cls-1" x="115.73" y="146.18" width="17.53" height="30.49"/><rect class="cls-1" x="57.49" y="149.91" width="13.71" height="26.76"/><g class="cls-5"><rect class="cls-1" x="38.24" y="184.74" width="116.41" height="7.36"/></g><g class="cls-6"><rect class="cls-1" x="38.24" y="180.12" width="116.41" height="6.05"/></g><rect class="cls-1" x="50.05" y="115.66" width="101.8" height="12.97"/><rect class="cls-1" x="25.97" y="123.52" width="29.6" height="10.24"/><polygon class="cls-1" points="140.03 150.39 108.96 150.39 124.5 132.35 140.03 150.39"/><polygon class="cls-1" points="78.64 151.37 50.05 151.37 64.35 134.25 78.64 151.37"/><g class="cls-7"><polygon class="cls-3" points="76.53 151.37 52.17 151.37 64.35 136.79 76.53 151.37"/></g><g class="cls-7"><polygon class="cls-3" points="137.86 150.39 111.13 150.39 124.5 134.4 137.86 150.39"/></g><path class="cls-1" d="M216.07,166.82l22.19,7.55,7.55-3.78,4.51,1.72s-.75,21.16,26.9,33.48,50.68,9.27,50.68,9.27-33.48,6.33-57.41-9.51S247.19,179,247.19,179L243,177.89l-1.51,2.23-24.85-7.81Z"/><g class="cls-5"><path class="cls-1" d="M230.37,142.08c.59-.88,5.29-10.28,9.11-9.1s7.64,7.47,7.64,7.47l3,3.17s-6.17,5-9.87,2.77-4-5.1-5.82-5.1A18.13,18.13,0,0,0,230.37,142.08Z"/></g><path class="cls-1" d="M242.68,146.18c-.6-.5-4.2-2.77-4.6-5.93a25.39,25.39,0,0,1,0-6s-1,3.92-3.4,4.23.62.45,1.6,2.89S242.68,146.18,242.68,146.18Z"/><line class="cls-1" x1="151.95" y1="125.2" x2="170.78" y2="112.86"/><g class="cls-7"><path class="cls-1" d="M88.42,290.26l-14-10.68-10-22.28V235.25l-14.3-28.11s-14.86-13-14.67-13.3-8.65-27.94-8.65-27.94l-6.19,8,13.8,39.58-1.53,19L17.17,256l-5.54,10.48-5.94,5.94,11.48,6.34,13.06-23,9.71-18.21L50.05,234l3.14,5.18v10.68L56.36,276l-.79,14.25Z"/></g><g class="cls-7"><path class="cls-1" d="M162.53,213.47c.1-.07,9.66,13.24,9.81,13.07s26.48,19.39,26.48,19.39L183,272.45,167.19,263l6.73-7.12,11.88-9.9-27.71-16.24-12.34-16.22Z"/></g><g class="cls-5"><polygon class="cls-1" points="84.3 201.2 119.8 207.14 172.34 188.42 174.39 180.36 191.63 170.53 194.11 173.5 188.96 183.79 182.63 185.77 173.92 201.2 156.9 213.47 143.84 213.47 114.94 229.69 93.17 227.33 84.3 201.2"/></g><g class="cls-5"><path class="cls-1" d="M168.57,201.2l1-34.38L149,144.08l-33.25-7.29-64.85,4.58s-2.12-14.48,1.29-16.17,97.79,0,97.79,0l14.2,3.44,30,44.85L189,183.79l-6.33,2-8.71,15.43Z"/></g><g class="cls-2"><polygon class="cls-1" points="261.64 180.13 266.94 192.1 277.08 197.46 284.75 198.83 286.85 191.7 289.5 197.25 313.25 190.91 312.86 183 317.21 187.75 331.46 175.08 327.9 170.53 333.04 170.53 338.59 149.91 327.9 166.82 320.4 172.31 304.98 183.15 280.3 186.17 261.64 180.13"/></g><g class="cls-8"><path class="cls-1" d="M233.79,127.23c.23.6-13.47-8.9-16.76-3.71s-5.79,3.74-5.79,3.74-10-8.9-16.67-11.6,1.18-10.3,1.18-10.3L214.69,109l15,10.69,14.65,7.92Z"/></g><g class="cls-5"><path class="cls-1" d="M243,177.89l-.35-26.52s2.64,13.2-4.44,14.13-21.2-4.07-21.2-4.07l-.37,10.88Z"/></g><path class="cls-1" d="M20.54,174.62l1.63,31.15s-6.77,29.13-6.6,28.88,10-30,10-30l-.43-17.57Z"/></svg>