<svg id="Calque_1" data-name="Calque 1" xmlns="http://www.w3.org/2000/svg" viewBox="0 0 343.13 343.13"><defs><style>.cls-1{fill:#74bf96;}.cls-2{fill:#f0e4d8;}.cls-3,.cls-5,.cls-7{fill:#282246;}.cls-4,.cls-6{fill:#ed6464;}.cls-4,.cls-7{opacity:0.5;}.cls-5,.cls-6{opacity:0.2;}</style></defs><path class="cls-1" d="M325,272.13s2.16,8.43-23.49,10.27-157.2,15.16-173.4,13.32c-167.09-19-51-28.21-48.83-28.68a8.13,8.13,0,0,1,4.29.4s65.73-12.82,72.87-11.06,28.1-7.37,33.29-2.13,19.55,11.36,29,13.19,33.9,5.83,43.37,3.52,26.57-3.83,34.81-3.52S325,272.13,325,272.13Z"/><path class="cls-2" d="M111,207.92,107.32,236a8.36,8.36,0,0,0,3,7.58l21.73,17.77,3.13-26.73L122,209.86Z"/><path class="cls-2" d="M316.29,262.77l-12.89,2.32.19-22.27a26.18,26.18,0,0,0-5.88-16.74L289.49,216A52.44,52.44,0,0,1,283,205.72l-6.22-12.87a1.48,1.48,0,0,0-2.58-.14l-7.86,12.6h0a30,30,0,0,1-4.85,18L232.8,267.15l-13.66-1.55,13.18-20.4a71.66,71.66,0,0,0,11.43-36.57h0c.62-3.3-5.85-6.33-5.85-6.33l-20.37,7.87a38.16,38.16,0,0,1-18,2.38c-12.36-1.34-32.67-3.62-33.2-4.15l-17.16,3.47-4.45,64.19-18.49-.85-.55-7.55a53.31,53.31,0,0,1,0-8.19c.62-8,1.94-24.78,2.08-25.18s-2.57-18.83-2.57-18.14-40.75-24.48-40.75-24.48l-3.08-8.39H69.9c-2.21-3.93-3.14-6.89-3.24-9.11l.94-3.31L57.35,137.52l-5.12-1A26,26,0,0,1,39,129.39l-1.48-1.48a2.34,2.34,0,0,1,.84-3.85l20.29-9.72,1.91-6,10.84-2a35.74,35.74,0,0,1,11.9-.17l12.14,1.88,22.47-.53a62.81,62.81,0,0,1,8.23.36l40.07,4.5a113.88,113.88,0,0,0,34.22-1.34l42.41-8.17c16-3.08,36.29-3.28,46,9.85,16.62,22.51,20.57,75.08,20.57,75.08Z"/><polygon class="cls-3" points="93.65 114.34 113.23 113.06 122 92.7 110.11 107.54 95.41 108.08 93.65 114.34"/><path class="cls-3" d="M58.61,114.34c-1,.26-14.43-1.8-14.43-1.8s-6.19-7.19-6.45-7.72-4.64-16.76-4.64-16.76l9.28,15.46,18.15,4.85Z"/><path class="cls-4" d="M86.29,183.11,87.62,181c1.82-2.8,1.55-7.24,1.07-9.26l-.33-1.9,13-29.7-3.86-8.76,3.6.45a12.59,12.59,0,0,0,11.11-4.28l2.36-2.74a1.64,1.64,0,0,0-.35-2.44l-20.1-8s-1.68-7.36,27.17-6.8c1.06,0,.69,28.16.69,28.16h0c13.05,23.29,1.73,32.89-2.58,41.08L102.8,202.93,84.45,191.67l-3.08-8.39Z"/><polygon class="cls-3" points="96.44 135.26 93.65 140.72 90.73 141.83 92.84 136.75 96.44 135.26"/><polygon class="cls-3" points="64.92 142.72 62.94 138.63 58.6 136.15 61.76 141.6 64.92 142.72"/><path class="cls-3" d="M86.13,170.3l1.67,1.85.25,4.14-2.35,5.64h-15l-2.49-5.62s-.35-3.74,0-4.09a11,11,0,0,0,1.49-2l1.86,1.24,11.81.34Z"/><path class="cls-5" d="M70.46,135.26c.51,1.13,2.24,29.57,2.24,29.57s-4.34,6.16-5.1,6L60,146.21l6.59-1Z"/><path class="cls-5" d="M85.79,135.26c-.52,1.13-2.24,29.57-2.24,29.57s5.52,4.77,4.75,4.78c-.13,0,9.62-21.67,9.62-21.67l-8.28-2.76Z"/><path class="cls-6" d="M309.35,187.83l-18.43-3.51a177.38,177.38,0,0,0-34.2-2.39l-8.88-17.64A87,87,0,0,0,215,128.85L211.91,127l19.32-7.63a35,35,0,0,1,33.86,4.56l8.3,6.22a44.11,44.11,0,0,0,15.12,7.35l4.05,1.08-2.64,1.3a20.2,20.2,0,0,0-11.17,20h0c.57,6,12.3,14.62,12.3,14.62,14.14,8.08,16.17-4.46,16.17-4.46Z"/><path class="cls-3" d="M149.28,211.23l-.12.64L162.5,210l42.23,2.75-42.26-7A8.5,8.5,0,0,0,149.28,211.23Z"/><path class="cls-4" d="M111,207.92l5.94,3.45a18.82,18.82,0,0,1,9.27,14.24l1.26,11.51-1.56,19.26-15.4-44.76"/><path class="cls-3" d="M268.1,202.35c.78-.81-4.26,6.34-4.45,8.68s-1,7.34-2.29,6.17-2.1-6.53-2.1-6.53-.57,6.2-2.48,6-1.91-4.22-3-6a7.62,7.62,0,0,0-3.25-2.64s-1.14,7.17-2.86,8.17-.76-4.34-1.33-6.84-8.39-7.06-8.39-7.06a42,42,0,0,0,9.15,1.67c4.58.22,5.34,3.72,8.58,4.39S265.24,205.29,268.1,202.35Z"/><path class="cls-5" d="M273.91,192c-1.08.14-18.6,7.72-15.53,11.73,4.39,5.74,12.21-5.3,12.21-5.3s-2.62,4.91-4.92,6.49-5.8,6.34-9.22,4.79-10.26-4-10.26-4l-8.29-3.4Z"/><path class="cls-6" d="M143.7,141.83s2.09,19.5-2.51,27.79S122,195.07,122,195.07s20.49,11,27.16,5.93S176.54,206,176.54,206s-14.42-9.21-20.7-22.19S143.7,141.83,143.7,141.83Z"/><path class="cls-1" d="M107.1,246.29c-.33,1,6.61,16.59,6.61,16.59l.78-12.18,4,8,3.73-12.45.85,14.45,4.62-8.69L129,262.5l3.9-7.91,2.37,5.6,6.54-15.59v19.65l4-6.1v7.46l4.51-5.09v7.8l2.95-2.37-1.73,10.93c-14.72,6.19-29.49,9.19-44.5-1l-2.23-16.33,2.71,3.37Z"/><path class="cls-1" d="M211.1,250.87c-.24.71,4.59,11.53,4.59,11.53l.54-8.46,2.78,5.59,2.58-8.66.6,10.05,3.21-6,.89,7.26,2.71-5.5,1.65,3.89,4.54-10.83v13.66l2.76-4.24v5.18l3.13-3.53v5.41l2-1.65-1.2,7.6c-10.23,4.3-20.5,6.39-30.93-.72l-1.55-11.35,1.89,2.34Z"/><path class="cls-1" d="M240.72,259c-.24.71,4.59,11.53,4.59,11.53l.54-8.47,2.77,5.59,2.59-8.65.6,10,3.2-6,.89,7.26,2.71-5.5,1.65,3.89,4.54-10.83v13.66l2.76-4.24v5.18l3.13-3.53v5.42l2.05-1.65-1.2,7.6c-10.23,4.3-20.5,6.38-30.93-.73l-1.54-11.35,1.88,2.35Z"/><path class="cls-1" d="M191.73,235.83c.24.71-4.59,11.53-4.59,11.53l-.54-8.47-2.78,5.59-2.58-8.65-.6,10-3.21-6-.89,7.26-2.71-5.5-1.65,3.89-4.54-10.83v13.65l-2.76-4.23v5.18l-3.13-3.54v5.42l-2.05-1.65,1.2,7.6c10.23,4.3,20.5,6.39,30.93-.73L193.38,245l-1.89,2.34Z"/><path class="cls-1" d="M170.67,245.78c.23.7-4.59,11.52-4.59,11.52l-.55-8.46-2.77,5.59-2.59-8.65-.59,10-3.21-6-.89,7.26-2.71-5.5-1.65,3.89-4.54-10.83v13.66L143.82,254v5.18l-3.13-3.53v5.41l-2.05-1.65L143,279c10.23,4.3,17.35-5.62,27.78-12.73L172.32,255l-1.89,2.34Z"/><path class="cls-1" d="M110.09,245.78c.24.7-4.59,11.52-4.59,11.52l-.54-8.46-2.78,5.59-2.58-8.65-.6,10-3.21-6L94.9,257l-2.71-5.5-1.64,3.89L86,244.6v13.66L83.25,254v5.18l-3.13-3.53v5.41l-2.06-1.65,1.2,7.61c10.23,4.29,20.5,6.38,30.93-.73L111.74,255l-1.89,2.34Z"/><path class="cls-1" d="M294.16,250.87c-.24.71,4.59,11.53,4.59,11.53l.54-8.46,2.77,5.59,2.59-8.66.6,10.05,3.2-6,.9,7.26,2.7-5.5,1.65,3.89,4.54-10.83v13.66l2.76-4.24v5.18l3.13-3.53v5.41l2.05-1.65-1.2,7.6c-10.23,4.3-22,6.35-32.47-.76l-.8-10.35,2.68,1.38Z"/><path class="cls-3" d="M310.14,187.29c-.26.62-.67,14-1.37,23.57-.45,6.08-1.37,12.2-.5,18.23l3.41,23.56,5-27.75a44.08,44.08,0,0,0-1.65-22Z"/><path class="cls-2" d="M307.33,193.49c0-.25,0-.69.33-4.67.81-10.45,3-38.22,2-46.81-2.18-20-17.36-20.35-18-20.35v-3.23c.19,0,18.72.26,21.22,23.23,1,8.89-1.89,34.11-2.79,45.63-.17,2.17-.42,6.22-.43,6.5Z"/><path class="cls-7" d="M90.73,195.53s14.9-42.58,17.09-45.48-10.3-18.7-10.3-18.7l3.11,10.48L88.3,169.61a33.18,33.18,0,0,1,.71,4.86,13.2,13.2,0,0,1-2.72,8.64l-4.92.17,3.08,8.39Z"/><path class="cls-5" d="M123.06,260.74s1.7,7.75-1.06,11.48-23.7,1.28-25.56,0,6.81-2,6.81-2a16.74,16.74,0,0,0,8-4.49,83,83,0,0,1,7.27-7l.53,7.73Z"/><path class="cls-7" d="M144.69,273s1.59-5,2.85-9.42a51,51,0,0,0,1.62-8.51l2.58,8.51,1.45-4.83,4.14,7.73,4.41-7.73a7.71,7.71,0,0,0,6.17,7.73c6.47,1.52,23.52,2.7,28.52,3s17.34,2.13,18.81,1.5,5.59,0,5.59,0,2.35,3.21,2.35,2,2.1-4.89,3.11-4.21,2.77,4.47,2.77,4.47l4.41-9.1,1.47,6.81,4.13-2.82,4.06,5.11,5,1,2.94-1.55,4.8,3.34,6.19-5.08s7.08,3.09,10.39,3.29,19.49-2.66,23.9-3.29S314,271,314,271l2.28-9.94v9.31l2.43-3.86,2.06,4.49s2.06,3.65-5.89,4.36-58.33,8.86-68.13,8.83-75.83,7.52-93.57,6.72C119,289.32,95.73,280.08,110.53,278c16.8-2.33,23.6-5,26.51-8.85s4.73-4.92,4.73-4.92S142.92,273.28,144.69,273Z"/></svg>