<svg id="Calque_1" data-name="Calque 1" xmlns="http://www.w3.org/2000/svg" viewBox="0 0 343.13 343.13"><defs><style>.cls-1{fill:#f0e4d8;}.cls-2,.cls-3,.cls-4{fill:#282246;}.cls-3{opacity:0.5;}.cls-4{opacity:0.2;}</style></defs><path class="cls-1" d="M82.11,278.88H249.35a0,0,0,0,1,0,0v12.85a13.52,13.52,0,0,1-13.52,13.52H95.63a13.52,13.52,0,0,1-13.52-13.52V278.88a0,0,0,0,1,0,0Z"/><path class="cls-2" d="M249.35,278.88l-25-10.91H141.94a169.35,169.35,0,0,0-59.83,10.91H249.35Z"/><path class="cls-1" d="M176.15,54.4c0,.09,0,1.16.12,3.07,1,26,8.23,207.42,8.23,207.42H119.91"/><path class="cls-3" d="M176.27,57.47,161.41,264.89s21.58,3.36,23.09,0S176.27,57.47,176.27,57.47Z"/><path class="cls-1" d="M244.71,271,187.14,69.69s15.82,90.09,5.71,131.83-22.41,67.24-22.41,67.24Z"/><rect class="cls-1" x="152.21" y="259.11" width="4.86" height="11.84"/><rect class="cls-1" x="201.95" y="265.03" width="5.63" height="8.39"/><path class="cls-4" d="M193.49,114.67c.74,4.9,36.68,155.85,36.68,155.85l-25.41-1.29Z"/><path class="cls-3" d="M249.35,278.88c-3.1,1.77-12.16,20.55-28.92,20.55H92a26.57,26.57,0,0,0,13.79,5.82H226.14a28.06,28.06,0,0,0,17.08-9.47A25,25,0,0,0,249.35,278.88Z"/></svg>