<svg id="Calque_1" data-name="Calque 1" xmlns="http://www.w3.org/2000/svg" viewBox="0 0 343.13 343.13"><defs><style>.cls-1,.cls-4{fill:#282246;}.cls-2{fill:#ed6464;}.cls-3{fill:#74bf96;}.cls-4,.cls-5{opacity:0.5;}.cls-6{fill:#f0e4d8;}</style></defs><polygon class="cls-1" points="214.42 172.67 208.78 172.67 203.64 312.75 219.56 312.75 214.42 172.67"/><polygon class="cls-2" points="213.21 176.34 218.35 312.75 211.6 312.75 213.21 176.34"/><path class="cls-3" d="M247.13,252.76H175.28a8.21,8.21,0,0,1-7.84-10.66l35.92-115.17a8.21,8.21,0,0,1,15.68,0L255,242.1A8.21,8.21,0,0,1,247.13,252.76Z"/><path class="cls-4" d="M167.11,240,203.5,127a7.74,7.74,0,0,1,14.74,0L254.77,242a8.06,8.06,0,0,1-7.65,10.44l-70.53.3A9.84,9.84,0,0,1,167.11,240Z"/><path class="cls-3" d="M218.19,234H123.9a10.78,10.78,0,0,1-10.29-14L160.75,68.9c3.15-10.09,17.43-10.09,20.58,0L228.48,220A10.78,10.78,0,0,1,218.19,234Z"/><g class="cls-5"><path class="cls-6" d="M172.88,69.62a7.7,7.7,0,0,0-9.62,5.15L120.43,216.11a7.72,7.72,0,0,0,14.78,4.48L178,79.24A7.7,7.7,0,0,0,172.88,69.62Z"/></g><path class="cls-1" d="M175.26,128.92l-.86-4.41a2.89,2.89,0,0,0-5.68,0l-.85,4.41-6.76,183.83H182Z"/><polygon class="cls-2" points="173.67 133.74 180.42 312.75 171.56 312.75 173.67 133.74"/></svg>