<svg id="Calque_1" data-name="Calque 1" xmlns="http://www.w3.org/2000/svg" viewBox="0 0 343.13 343.13"><defs><style>.cls-1{fill:#5b6c9a;}.cls-2,.cls-4{fill:#282246;}.cls-3{fill:#f0e4d8;}.cls-4{opacity:0.5;}.cls-5{opacity:0.6;}.cls-6{opacity:0.1;}</style></defs><polygon class="cls-1" points="282.52 231.07 19.08 231.07 19.08 198.53 334.19 198.53 282.52 231.07"/><rect class="cls-2" x="17.01" y="231.07" width="266.3" height="7.11"/><rect class="cls-2" x="53.02" y="198.53" width="43.84" height="7.11"/><rect class="cls-2" x="105.25" y="198.53" width="43.84" height="7.11"/><rect class="cls-2" x="157.48" y="198.53" width="43.84" height="7.11"/><polygon class="cls-3" points="252.54 144.6 197.62 144.6 197.62 151.9 190.96 151.9 190.96 159.21 184.24 159.21 184.24 166.52 176.64 166.52 176.64 173.8 122.17 173.8 122.17 151.48 73.98 151.48 46.47 151.48 28.74 174.11 28.74 198.53 73.98 198.53 120.78 198.53 122.17 198.53 176.64 198.53 316.82 198.53 252.54 144.6"/><rect class="cls-2" x="122.18" y="178.14" width="55.23" height="7.11"/><rect class="cls-2" x="34.58" y="178.14" width="82.99" height="7.11"/><polygon class="cls-2" points="49.42 155.57 117.58 155.57 117.58 162.68 42.97 162.68 49.42 155.57"/><polygon class="cls-2" points="41.56 167 117.46 167 117.46 174.11 35.1 174.11 41.56 167"/><rect class="cls-2" x="182.21" y="178.14" width="70.73" height="7.11"/><rect class="cls-2" x="182.21" y="171.56" width="86.24" height="2.04"/><rect class="cls-2" x="190.31" y="163.47" width="70.39" height="2.04"/><rect class="cls-2" x="198.21" y="155.57" width="54.74" height="2.04"/><rect class="cls-2" x="256.35" y="181.7" width="25.02" height="2.04"/><rect class="cls-2" x="244.77" y="189.39" width="45.7" height="2.04"/><rect class="cls-2" x="179.67" y="189.39" width="59.7" height="2.04"/><rect class="cls-2" x="34.19" y="189.39" width="59.7" height="2.04"/><rect class="cls-2" x="99.28" y="189.39" width="75" height="2.04"/><rect class="cls-2" x="205.71" y="148.06" width="47.23" height="3.53"/><polygon class="cls-2" points="252.95 148.06 312.08 198.4 306.63 198.4 250.68 150.77 252.95 148.06"/><polygon class="cls-4" points="203.92 231.07 333.24 199.14 282.52 231.07 203.92 231.07"/><rect class="cls-3" x="104.95" y="165.5" width="3.29" height="21.67"/><rect class="cls-3" x="92.23" y="165.5" width="3.29" height="21.67"/><rect class="cls-3" x="79.5" y="165.5" width="3.29" height="21.67"/><rect class="cls-3" x="66.78" y="165.5" width="3.29" height="21.67"/><rect class="cls-3" x="54.06" y="165.5" width="3.29" height="21.67"/><rect class="cls-3" x="41.34" y="165.5" width="3.29" height="21.67"/><rect class="cls-3" x="244.81" y="154.03" width="3.29" height="21.67"/><rect class="cls-3" x="232.09" y="154.03" width="3.29" height="21.67"/><rect class="cls-3" x="219.37" y="154.03" width="3.29" height="21.67"/><rect class="cls-3" x="206.65" y="154.03" width="3.29" height="21.67"/><g class="cls-5"><polygon class="cls-3" points="256.73 197.29 188.22 163.47 203.92 148.06 252.31 146.4 312.71 197.66 256.73 197.29"/></g><polygon class="cls-4" points="28.74 197.66 122.17 197.66 122.17 151.48 46.47 151.49 28.74 174.11 28.74 197.66"/><rect class="cls-2" x="17.01" y="196.43" width="318.1" height="3.93"/><g class="cls-6"><polygon class="cls-3" points="19.08 223.66 334.19 200.25 19.08 200.25 19.08 223.66"/></g><rect class="cls-3" x="55.03" y="204.11" width="39.82" height="1.54"/><rect class="cls-3" x="107.26" y="204.11" width="39.82" height="1.54"/><rect class="cls-3" x="159.76" y="204.11" width="39.82" height="1.54"/></svg>