<svg id="Calque_1" data-name="Calque 1" xmlns="http://www.w3.org/2000/svg" viewBox="0 0 343.13 343.13"><defs><style>.cls-1,.cls-4{fill:#282246;}.cls-2{fill:#f0e4d8;}.cls-3{fill:#74bf96;}.cls-4,.cls-5{opacity:0.5;}.cls-6{opacity:0.2;}</style></defs><rect class="cls-1" x="213.55" y="154.35" width="95.24" height="15.03" transform="translate(64.99 -74.62) rotate(18.53)"/><rect class="cls-2" x="261.5" y="110.5" width="1.78" height="95.24" transform="translate(29.07 356.64) rotate(-71.47)"/><polygon class="cls-3" points="154.97 90.81 146.64 108.36 152.78 124.25 166.38 111.43 166.38 96.51 188.75 80.28 234.82 116.69 227.36 138.19 232.62 159.25 217.27 168.83 187.88 213.31 123.83 257.51 78.2 195.66 74.69 175.91 49.25 168.9 64.16 120.2 70.31 101.34 86.1 95.2 80.83 80.28 150.59 66.68 154.97 90.81"/><ellipse class="cls-1" cx="258.29" cy="204.4" rx="34.44" ry="32.93"/><ellipse class="cls-1" cx="195.55" cy="211.9" rx="34.44" ry="32.93"/><ellipse class="cls-1" cx="213.98" cy="244.83" rx="34.44" ry="32.93"/><ellipse class="cls-1" cx="204.11" cy="274.62" rx="20.18" ry="19.3"/><ellipse class="cls-1" cx="234.82" cy="281.27" rx="20.18" ry="19.3"/><ellipse class="cls-1" cx="215.73" cy="300.57" rx="20.18" ry="19.3"/><ellipse class="cls-1" cx="278.47" cy="223.55" rx="20.18" ry="19.3"/><ellipse class="cls-1" cx="253.02" cy="175.73" rx="20.18" ry="19.3"/><ellipse class="cls-1" cx="212.66" cy="195.03" rx="20.18" ry="19.3"/><ellipse class="cls-1" cx="234.82" cy="248.34" rx="34.44" ry="32.93"/><polygon class="cls-4" points="139.62 93.11 92.68 86.09 98.82 101.89 72.94 135.23 110.23 131.28 65.04 160.67 87.42 168.94 153.22 130.84 126.46 251.04 153.22 201.37 174.17 160.67 215.07 171.64 196.1 207.82 123.83 257.51 77.65 195.03 74.69 175.91 49.25 168.94 70.31 101.34 86.1 95.2 80.83 80.28 139.62 93.11"/><g class="cls-5"><polygon class="cls-2" points="147.15 67.35 144.12 94.97 110.23 94.97 112.86 102.54 86.87 128.2 125.03 123.59 100.03 156.44 155.63 126.88 163.86 147.61 197.42 158.8 183.93 134.78 218.15 139.39 234.82 116.69 202.12 91.57 150.12 127.04 142.03 107.8 152.34 88.39 147.15 67.35"/></g><g class="cls-6"><circle class="cls-2" cx="183.93" cy="199.95" r="8.43"/></g><g class="cls-6"><circle class="cls-2" cx="196.4" cy="237.33" r="8.43"/></g><g class="cls-6"><circle class="cls-2" cx="175.5" cy="223.84" r="8.43"/></g><g class="cls-6"><circle class="cls-2" cx="212.66" cy="195.03" r="8.43"/></g><g class="cls-5"><circle class="cls-2" cx="253.02" cy="175.73" r="8.43"/></g><g class="cls-5"><circle class="cls-2" cx="229.99" cy="221.75" r="8.43"/></g><g class="cls-6"><circle class="cls-2" cx="204.11" cy="283.06" r="8.43"/></g><g class="cls-6"><circle class="cls-2" cx="212.54" cy="261.97" r="8.43"/></g><g class="cls-6"><circle class="cls-2" cx="220.24" cy="307.06" r="8.43"/></g><g class="cls-5"><circle class="cls-2" cx="234.82" cy="290.78" r="8.43"/></g><g class="cls-5"><circle class="cls-2" cx="241.27" cy="265.94" r="8.43"/></g><g class="cls-5"><circle class="cls-2" cx="255" cy="247.42" r="8.43"/></g><g class="cls-5"><circle class="cls-2" cx="284.29" cy="228.9" r="8.43"/></g><g class="cls-5"><circle class="cls-2" cx="277.46" cy="203.46" r="8.43"/></g><g class="cls-5"><circle class="cls-2" cx="255" cy="224.44" r="8.43"/></g><g class="cls-6"><circle class="cls-2" cx="204.23" cy="216.18" r="8.43"/></g><polygon class="cls-4" points="123.83 257.51 77.65 195.03 74.69 175.91 49.25 168.94 62.52 167.3 96.08 175.74 102.66 204.4 123.83 257.51"/></svg>